<?xml version="1.0" encoding="utf-8"?>
<!-- Generator: Adobe Illustrator 15.1.0, SVG Export Plug-In  -->
<!DOCTYPE svg PUBLIC "-//W3C//DTD SVG 1.1//EN" "http://www.w3.org/Graphics/SVG/1.1/DTD/svg11.dtd" [
	<!ENTITY ns_flows "http://ns.adobe.com/Flows/1.0/">
]>
<svg version="1.1"
	 xmlns="http://www.w3.org/2000/svg" xmlns:xlink="http://www.w3.org/1999/xlink" viewBox="0 0 506 368"
	 xml:space="preserve" preserveAspectRatio="none">
<defs>
</defs>
<path style="fill:#FFFFFF;" d="M506.036,194.592v-21.384h-4.607c-9.982,0-17.405-11.975-17.405-34.642V55.598
	c0-20.101-3.328-32.503-8.703-41.484C470.201,5.56,462.009,0,453.563,0h-5.888v21.384h4.352c9.982,0,17.661,11.975,17.661,34.642
	v81.686c0,19.245,3.072,30.793,7.936,38.918c2.048,3.422,4.352,5.987,6.655,7.271c-2.304,1.711-4.607,3.85-6.655,7.271
	c-4.863,8.126-7.936,19.673-7.936,38.918v81.687c0,22.666-7.679,34.642-17.661,34.642h-4.352v21.383h5.888
	c8.446,0,16.638-5.56,21.757-14.113c5.375-8.98,8.703-21.383,8.703-41.484v-82.968c0-22.667,7.423-34.642,17.405-34.642H506.036z
	 M58.36,367.799v-21.383h-4.607c-9.982,0-17.662-11.976-17.662-34.642v-81.687c0-19.245-2.815-30.792-7.679-38.918
	c-2.048-3.421-4.607-5.987-6.911-7.271c2.304-1.71,4.863-3.849,6.911-7.271c4.863-8.125,7.679-19.673,7.679-38.918V56.025
	c0-22.667,7.679-34.642,17.662-34.642h4.607V0h-6.143C43.771,0,35.58,5.56,30.46,14.113c-5.375,8.981-8.703,21.384-8.703,41.484
	v82.969c0,22.667-7.423,34.642-17.406,34.642H0v21.384h4.352c9.983,0,17.406,11.975,17.406,34.642v82.968
	c0,20.102,3.328,32.504,8.703,41.484c5.12,8.554,13.311,14.113,21.757,14.113H58.36z"/>
</svg>
