<svg width="56" height="35" xmlns="http://www.w3.org/2000/svg">
 <!-- Created with Method Draw - http://github.com/duopixel/Method-Draw/ -->
 <g>
  <title>background</title>
  <rect fill="none" id="canvas_background" height="37" width="58" y="-1" x="-1"/>
  <g display="none" overflow="visible" y="0" x="0" height="100%" width="100%" id="canvasGrid">
   <rect fill="url(#gridpattern)" stroke-width="0" y="0" x="0" height="100%" width="100%"/>
  </g>
 </g>
 <g>
  <title>Layer 1</title>
  <path stroke="#000000" stroke-opacity="0.4" id="svg_1" d="m2.1775,12.13499l0,0c0,-3.86594 3.13396,-7 7,-7l0,0c1.85649,0 3.63693,0.73743 4.94975,2.05035c1.31271,1.31271 2.05025,3.09326 2.05025,4.94965l0,0c0,3.86615 -3.13396,7 -7,7l0,0c-3.86605,0 -7,-3.13385 -7,-7zm3.5,0l0,0c0,1.93307 1.56703,3.5 3.5,3.5c1.93296,0 3.5,-1.56693 3.5,-3.5c0,-1.93308 -1.56703,-3.49979 -3.5,-3.49979l0,0c-1.93297,0 -3.5,1.5667 -3.5,3.49979z" fill="none"/>
  <path stroke="#000000" stroke-opacity="0.4" id="svg_6" d="m21.1775,12.13499l0,0c0,-3.86593 3.13395,-7 7,-7l0,0c1.85649,0 3.63693,0.73743 4.94975,2.05036c1.31271,1.31271 2.05025,3.09326 2.05025,4.94964l0,0c0,3.86615 -3.13396,7 -7,7l0,0c-3.86605,0 -7,-3.13385 -7,-7zm3.5,0l0,0c0,1.93308 1.56703,3.5 3.5,3.5c1.93297,0 3.5,-1.56692 3.5,-3.5c0,-1.93308 -1.56703,-3.49978 -3.5,-3.49978l0,0c-1.93297,0 -3.5,1.5667 -3.5,3.49978z" fill="none"/>
  <path stroke="#000000" stroke-opacity="0.4" id="svg_7" d="m39.1775,12.13499l0,0c0,-3.86593 3.13395,-7 7,-7l0,0c1.85649,0 3.63693,0.73743 4.94975,2.05036c1.31271,1.31271 2.05025,3.09326 2.05025,4.94964l0,0c0,3.86615 -3.13396,7 -7,7l0,0c-3.86605,0 -7,-3.13385 -7,-7zm3.5,0l0,0c0,1.93308 1.56703,3.5 3.5,3.5c1.93297,0 3.5,-1.56692 3.5,-3.5c0,-1.93308 -1.56703,-3.49978 -3.5,-3.49978l0,0c-1.93297,0 -3.5,1.5667 -3.5,3.49978z" fill="none"/>
 </g>
</svg>
