<?xml version="1.0" encoding="utf-8"?>
<!-- Generator: Adobe Illustrator 15.1.0, SVG Export Plug-In  -->
<!DOCTYPE svg PUBLIC "-//W3C//DTD SVG 1.1//EN" "http://www.w3.org/Graphics/SVG/1.1/DTD/svg11.dtd" [
	<!ENTITY ns_flows "http://ns.adobe.com/Flows/1.0/">
]>
<svg version="1.1"
	 xmlns="http://www.w3.org/2000/svg" xmlns:xlink="http://www.w3.org/1999/xlink" xmlns:a="http://ns.adobe.com/AdobeSVGViewerExtensions/3.0/"
	 x="0px" y="0px" width="236px" height="44px" viewBox="-6 -5.11 236 44"
	 style="overflow:visible;enable-background:new -6 -5.11 236 44;" xml:space="preserve">
<defs>
</defs>
<path style="fill-rule:evenodd;clip-rule:evenodd;" d="M207.49,19.98c0,2.97-0.06,3.34-1.7,3.54l-0.71,0.08
	c-0.17,0.2-0.11,0.62,0.06,0.71c1.33-0.06,2.35-0.09,3.54-0.08c1.13,0,2.1,0.03,3.37,0.08c0.17-0.08,0.23-0.57,0.06-0.71l-0.59-0.09
	c-1.64-0.23-1.7-0.57-1.7-3.54l0-3.57c0-0.59,0.06-0.62,1.33-0.62c1.13,0,1.59,0.28,2.01,0.91c0.88,1.27,2.04,3.23,2.78,4.28
	c2.01,2.86,3.46,3.57,5.86,3.57c0.54,0,0.99-0.06,1.25-0.14c0.14-0.11,0.11-0.34-0.03-0.4c-0.76-0.06-1.47-0.37-1.95-0.79
	c-1.93-1.61-3.43-3.88-5.69-7.53c-0.14-0.23-0.28-0.51-0.14-0.68c1.42-0.57,3.54-2.04,3.54-4.73c0-1.98-0.99-3.26-2.35-3.97
	c-1.3-0.71-2.97-0.85-4.73-0.85c-2.78,0-4.73,0.08-6.32,0.23c-0.23,0.11-0.23,0.57-0.03,0.71l0.91,0.11
	c1.16,0.14,1.25,0.62,1.25,3.31L207.49,19.98L207.49,19.98z M209.81,7.23c0-0.79,0.08-0.91,1.84-0.91c3.14,0,4.53,2.12,4.53,4.36
	c0,1.93-0.65,2.92-1.42,3.51c-0.82,0.62-1.9,0.74-2.92,0.74c-1.44,0-1.87-0.06-1.96-0.14c-0.08-0.11-0.08-0.42-0.08-0.93V7.23
	L209.81,7.23z"/>
<path d="M191.08,19.97c0,2.97-0.14,3.4-1.76,3.54l-0.93,0.08c-0.17,0.17-0.11,0.62,0.06,0.71c1.67-0.06,2.63-0.09,3.85-0.09l2.55,0
	c2.52,0,5.04,0.03,7.59,0.09c0.37-0.77,1.08-2.95,1.27-3.94c-0.11-0.25-0.51-0.34-0.71-0.2c-0.74,1.47-1.5,2.46-2.01,2.75
	c-0.62,0.31-1.45,0.42-3.63,0.42c-2.49,0-3.09-0.31-3.43-0.65c-0.45-0.48-0.54-1.44-0.54-2.95l0-3.99c0-0.74,0.08-0.76,0.93-0.76
	h1.64c1.1,0,1.78,0.03,2.18,0.14c0.57,0.14,0.77,0.57,0.88,1.08l0.25,1.1c0.14,0.17,0.62,0.17,0.74-0.03c0-0.62-0.11-1.7-0.11-2.72
	c0-1.08,0.11-2.18,0.11-2.86c-0.11-0.2-0.59-0.2-0.74-0.03l-0.23,1.16c-0.14,0.71-0.34,0.88-0.68,0.99
	c-0.34,0.11-1.22,0.17-2.41,0.17h-1.64c-0.85,0-0.93,0-0.93-0.79l0-5.66c0-1.08,0-1.13,0.85-1.13l2.04,0c1.25,0,2.15,0.03,2.75,0.17
	c1.47,0.37,1.73,1.36,2.15,2.69c0.14,0.17,0.59,0.11,0.71-0.06c-0.11-1.25-0.28-3.29-0.45-3.77c-0.34,0.08-2.01,0.08-3.82,0.08
	l-5.32,0c-1.16,0-2.12-0.03-3.34-0.09c-0.17,0.08-0.23,0.59-0.06,0.71l0.45,0.06c1.67,0.2,1.73,0.62,1.73,3.57L191.08,19.97
	L191.08,19.97z"/>
<path d="M179.31,7.37c0-0.93-0.03-0.96,0.82-0.96h2.01c1.56,0,2.63,0.23,3.29,0.71c0.42,0.31,0.62,1.36,0.71,2.07
	c0.14,0.17,0.62,0.17,0.74-0.06c-0.08-0.85,0.11-3.14,0.42-4.31c-0.06-0.11-0.37-0.14-0.51-0.08c-0.42,0.74-0.68,0.79-2.21,0.79
	l-11.47,0c-1.3,0-2.24,0.03-2.41-0.88c-0.08-0.08-0.45-0.06-0.54,0c-0.2,1.13-0.62,2.95-1.08,4.22c0.11,0.23,0.51,0.37,0.74,0.2
	c0.31-0.71,0.59-1.33,1.27-1.95c0.71-0.65,2.27-0.71,3.48-0.71l1.56,0c0.85,0,0.85,0.03,0.85,0.91l0,12.66
	c0,2.97-0.14,3.4-1.76,3.54l-1.02,0.08c-0.23,0.14-0.17,0.62,0,0.71c1.81-0.06,2.8-0.09,3.94-0.09c1.13,0,2.1,0.03,3.71,0.09
	c0.17-0.08,0.23-0.59,0.06-0.71l-0.91-0.09c-1.64-0.17-1.7-0.57-1.7-3.54L179.31,7.37L179.31,7.37z"/>
<path d="M167.83,19.43c0-2.69-1.76-4.33-3.54-5.44l-2.27-1.42c-1.05-0.68-2.41-1.84-2.41-3.48c0-1.3,0.59-3.14,3.37-3.14
	c2.72,0,3.48,1.84,3.85,3.2c0.14,0.17,0.59,0.08,0.71-0.08c0-1.19-0.26-2.78-0.51-3.46c-0.23,0-0.62-0.09-0.99-0.17
	c-0.74-0.23-1.76-0.37-2.63-0.37c-3.68,0-5.78,2.18-5.78,4.87c0,2.32,1.64,3.94,3.06,4.87l2.69,1.76c2.07,1.33,2.32,2.72,2.32,3.96
	c0,1.7-1.16,3.26-3.54,3.26c-3.29,0-4.45-2.78-4.87-4.22c-0.11-0.17-0.54-0.11-0.68,0.08c0.06,1.33,0.43,3.34,0.77,3.96
	c0.54,0.31,2.04,1.05,4.42,1.05C165.48,24.67,167.83,22.55,167.83,19.43L167.83,19.43z"/>
<path d="M142.38,19.97c0,2.97-0.14,3.4-1.76,3.54l-0.93,0.09c-0.17,0.17-0.11,0.62,0.06,0.71c1.67-0.06,2.63-0.08,3.85-0.08h2.55
	c2.52,0,5.04,0.03,7.59,0.09c0.37-0.76,1.08-2.95,1.27-3.94c-0.11-0.26-0.51-0.34-0.71-0.2c-0.74,1.47-1.5,2.46-2.01,2.75
	c-0.62,0.31-1.44,0.42-3.62,0.42c-2.49,0-3.09-0.31-3.43-0.65c-0.45-0.48-0.54-1.45-0.54-2.95l0-3.99c0-0.74,0.08-0.76,0.93-0.76
	h1.64c1.1,0,1.78,0.03,2.18,0.14c0.57,0.14,0.77,0.57,0.88,1.08l0.25,1.1c0.14,0.17,0.62,0.17,0.74-0.03c0-0.62-0.11-1.7-0.11-2.72
	c0-1.08,0.11-2.18,0.11-2.86c-0.11-0.2-0.59-0.2-0.74-0.03l-0.23,1.16c-0.14,0.71-0.34,0.88-0.68,0.99s-1.22,0.17-2.41,0.17l-1.64,0
	c-0.85,0-0.94,0-0.94-0.79l0-5.66c0-1.08,0-1.13,0.85-1.13l2.04,0c1.25,0,2.15,0.03,2.75,0.17c1.47,0.37,1.73,1.36,2.15,2.69
	c0.14,0.17,0.59,0.11,0.71-0.06c-0.11-1.25-0.28-3.29-0.45-3.77c-0.34,0.08-2.01,0.08-3.82,0.08l-5.32,0
	c-1.16,0-2.12-0.03-3.34-0.09c-0.17,0.08-0.23,0.59-0.06,0.71l0.45,0.06c1.67,0.2,1.73,0.62,1.73,3.57L142.38,19.97L142.38,19.97z"
	/>
<path d="M126.85,19.97c0,2.97-0.06,3.37-1.7,3.54l-0.85,0.09c-0.17,0.17-0.11,0.62,0.06,0.71c1.59-0.06,2.49-0.08,3.68-0.08h2.61
	c2.92,0,5.61,0.03,7.05,0.09c0.4-0.76,1.19-3.65,1.19-3.96c0-0.2-0.54-0.31-0.71-0.17c-0.57,1.45-1.3,2.46-1.87,2.8
	c-0.45,0.26-1.05,0.37-3.46,0.37c-2.24,0-2.78-0.34-3.09-0.65c-0.51-0.54-0.6-1.28-0.6-3.06l0-9.86c0-2.97,0.06-3.43,1.73-3.57
	l0.68-0.06c0.17-0.11,0.11-0.62-0.06-0.71c-1.42,0.06-2.38,0.08-3.48,0.08c-1.13,0-2.1-0.03-3.68-0.09
	c-0.17,0.08-0.23,0.59-0.06,0.71l0.71,0.06c1.78,0.14,1.84,0.6,1.84,3.57L126.85,19.97L126.85,19.97z"/>
<path style="fill-rule:evenodd;clip-rule:evenodd;" d="M117.64,21.49c0.23,0.68,0.37,1.19,0.37,1.5c0,0.28-0.4,0.45-0.99,0.51
	l-0.82,0.08c-0.2,0.14-0.17,0.6,0.06,0.71c0.82-0.03,1.9-0.09,3.26-0.09c1.27,0,2.27,0.03,3.43,0.09c0.14-0.11,0.2-0.57,0-0.71
	l-0.76-0.09c-1.22-0.14-1.59-0.57-2.41-3l-3.88-11.39c-0.42-1.25-0.88-2.55-1.25-3.8c-0.06-0.2-0.25-0.25-0.42-0.25
	c-0.31,0.37-0.79,0.88-1.47,1.08c0.08,0.45-0.08,0.99-0.48,2.01l-2.89,7.65c-1.19,3.17-1.98,5.01-2.49,6.31
	c-0.4,1.02-1.02,1.33-1.7,1.39l-0.93,0.08c-0.17,0.14-0.11,0.6,0.06,0.71c0.76-0.03,1.78-0.09,2.72-0.09
	c1.33,0.03,2.21,0.03,2.95,0.09c0.25-0.11,0.25-0.57,0.06-0.71l-0.93-0.09c-0.68-0.06-0.82-0.23-0.82-0.57
	c0-0.31,0.2-1.08,0.62-2.35l0.99-2.97c0.2-0.59,0.37-0.68,1.08-0.68l4.28,0c0.85,0,0.96,0.09,1.16,0.71L117.64,21.49L117.64,21.49z
	 M112.57,10.19c0.31-0.85,0.59-1.53,0.68-1.67h0.06c0.17,0.34,0.43,1.1,0.65,1.78l1.53,4.62c0.25,0.76,0.2,0.88-0.62,0.88l-3.48,0
	c-0.79,0-0.82-0.03-0.59-0.68L112.57,10.19L112.57,10.19z"/>
<path d="M85.7,14.98c0,3.65,1.76,6.23,4.02,7.79c2.07,1.39,4.5,1.9,7.05,1.9c1.81,0,3.85-0.42,4.47-0.65
	c0.31-0.11,0.65-0.23,0.99-0.28c0.42-0.54,1.16-2.41,1.36-3.88c-0.11-0.2-0.54-0.25-0.74-0.11c-0.65,1.67-2.27,4.05-5.92,4.05
	c-4.65,0-8.41-3.29-8.41-9.23c0-5.86,3.68-8.61,8.01-8.61c4.11,0,5.38,2.21,5.81,4.14c0.2,0.17,0.62,0.14,0.76-0.06
	c-0.23-1.73-0.37-3.51-0.4-4.16c-0.25,0.03-0.45-0.03-0.79-0.11c-1.33-0.37-3.48-0.68-5.01-0.68c-2.95,0-5.58,0.79-7.65,2.41
	C87.11,9.14,85.7,11.83,85.7,14.98L85.7,14.98z"/>
<path style="fill-rule:evenodd;clip-rule:evenodd;" d="M81.19,21.49c0.23,0.68,0.37,1.19,0.37,1.5c0,0.28-0.4,0.45-0.99,0.51
	l-0.82,0.09c-0.2,0.14-0.17,0.59,0.06,0.71c0.82-0.03,1.9-0.08,3.26-0.08c1.27,0,2.27,0.03,3.43,0.09c0.14-0.11,0.2-0.57,0-0.71
	l-0.76-0.09c-1.22-0.14-1.59-0.57-2.41-3L79.43,9.11c-0.42-1.25-0.88-2.55-1.25-3.8c-0.06-0.2-0.25-0.25-0.42-0.25
	c-0.31,0.37-0.79,0.88-1.47,1.08c0.08,0.45-0.08,0.99-0.48,2.01l-2.89,7.65c-1.19,3.17-1.98,5.01-2.49,6.32
	c-0.4,1.02-1.02,1.33-1.7,1.39l-0.93,0.09c-0.17,0.14-0.11,0.59,0.06,0.71c0.76-0.03,1.78-0.08,2.72-0.08
	c1.33,0.03,2.21,0.03,2.95,0.09c0.25-0.11,0.25-0.57,0.06-0.71l-0.93-0.08c-0.68-0.06-0.82-0.23-0.82-0.57
	c0-0.31,0.2-1.08,0.62-2.35l0.99-2.97c0.2-0.59,0.37-0.68,1.08-0.68l4.28,0c0.85,0,0.96,0.08,1.16,0.71L81.19,21.49L81.19,21.49z
	 M76.11,10.19c0.31-0.85,0.59-1.53,0.68-1.67h0.06c0.17,0.34,0.42,1.1,0.65,1.78l1.53,4.62c0.26,0.76,0.2,0.88-0.62,0.88l-3.48,0
	c-0.79,0-0.82-0.03-0.59-0.68L76.11,10.19L76.11,10.19z"/>
<path d="M45.3,6.27c-1.12-2.3-2.02-4.54-1.87-5.94c-1.19,0.11-2.16,0.11-2.99,0.11c-0.9,0-1.76-0.04-2.84-0.11
	c-0.29,0.14-0.32,0.68-0.14,0.9l0.58,0.07c2.2,0.36,2.48,0.83,2.41,3.1c-0.07,1.98-0.22,5.04-0.4,8.03
	c-0.22,3.56-0.4,5.54-0.61,7.92c-0.22,2.52-0.72,2.77-2.23,2.95l-0.79,0.11c-0.22,0.18-0.14,0.72,0.07,0.9
	c1.22-0.07,2.52-0.11,3.67-0.11c1.37,0,2.77,0.04,4,0.11c0.25-0.11,0.29-0.68,0.04-0.9l-1.37-0.11c-1.4-0.11-1.62-0.68-1.62-3.35
	c0-3.06,0.14-6.26,0.25-8.46c0.11-2.09,0.22-4.18,0.36-6.41h0.07c0.79,1.66,1.55,3.53,2.3,5.18l3.24,6.95
	c0.83,1.77,2.56,5.29,3.17,7.2c0.07,0.11,0.25,0.14,0.32,0.14c0.14,0,0.29-0.04,0.36-0.14c0.65-1.66,2.27-5.04,3.89-8.21l3.2-6.3
	c0.72-1.4,2.09-4.28,2.34-4.68h0.07l0.11,15.01c0,2.3,0,2.88-1.76,3.06l-1.04,0.11c-0.22,0.21-0.18,0.72,0.07,0.9
	c1.48-0.07,3.1-0.11,4.36-0.11c1.3,0,2.77,0.04,4.25,0.11c0.25-0.14,0.29-0.68,0.07-0.9l-1.15-0.11c-1.69-0.18-1.66-1.12-1.76-2.92
	c-0.29-5.19-0.33-11.85-0.4-15.66c-0.04-2.52,0.25-3.17,2.52-3.42l0.76-0.07c0.18-0.14,0.18-0.76-0.04-0.9
	c-1.12,0.07-2.3,0.11-3.2,0.11c-0.72,0-1.48,0-2.7-0.11c-0.07,1.66-1.08,3.64-2.74,6.91l-3.38,6.88c-0.9,1.84-1.8,3.71-2.77,5.4
	h-0.07c-0.86-1.58-1.66-3.24-2.48-4.93L45.3,6.27L45.3,6.27z"/>
<path d="M14.27,33.73c0.68-0.49,1.59-1.17,2.61-2.01L11.15,26l1.38-1.38l5.83,5.83c0.78-0.69,1.57-1.45,2.35-2.26l-5.88-5.88
	l3.3-3.3l5.54,5.54c0.65-0.97,1.21-1.97,1.62-2.99l-4.86-4.86l1.47-1.47l4.05,4.05c0.08-0.47,0.12-0.93,0.12-1.4l-0.01-3.1
	l-1.86-1.86l1.85-1.85l-0.01-4.6l-4.15,4.15l-1.39-1.39l5.53-5.53L26.04,0h-0.9l-6.93,6.93L14.9,3.62L18.52,0l-4.61,0L12.6,1.31
	L11.28,0H6.34L5.03,1.31L3.73,0H0.06c0,0,0,0.35,0,0.94l2.67,2.67l-2.7,2.7c-0.01,1.9-0.02,3.96-0.02,5.79l0.9,0.9L0,13.91
	c0,2.12,0,3.62,0.01,3.62c0,0.75,0.11,1.5,0.29,2.24l2.54,2.54L1.8,23.35c0.54,0.94,1.18,1.86,1.87,2.74l1.48-1.48L6.54,26
	L4.94,27.6c0.75,0.83,1.52,1.61,2.28,2.33l1.62-1.62L14.27,33.73z M12.53,20.01l-1.39-1.39l3.3-3.3l1.39,1.39L12.53,20.01z
	 M18.21,11.55l1.39,1.39l-1.47,1.47l-1.39-1.39L18.21,11.55z M12.6,5.93l3.31,3.31l-1.47,1.47L11.13,7.4L12.6,5.93z M8.81,2.14
	l1.48,1.48L8.82,5.09L7.34,3.61L8.81,2.14z M5.03,5.92L6.51,7.4l-3.3,3.3L1.74,9.22L5.03,5.92z M5.15,20l-3.31-3.31l1.38-1.38
	l3.31,3.31L5.15,20z M5.52,13.01l3.3-3.3l3.31,3.31l-3.3,3.3L5.52,13.01z M7.46,22.31l1.38-1.38l1.39,1.39l-1.38,1.38L7.46,22.31z"
	/>
</svg>
