<?xml version="1.0" encoding="utf-8"?>
<!-- Generator: Adobe Illustrator 15.1.0, SVG Export Plug-In  -->
<!DOCTYPE svg PUBLIC "-//W3C//DTD SVG 1.1//EN" "http://www.w3.org/Graphics/SVG/1.1/DTD/svg11.dtd" [
	<!ENTITY ns_flows "http://ns.adobe.com/Flows/1.0/">
]>
<svg version="1.1"
	 xmlns="http://www.w3.org/2000/svg" xmlns:xlink="http://www.w3.org/1999/xlink" xmlns:a="http://ns.adobe.com/AdobeSVGViewerExtensions/3.0/"
	 x="0px" y="0px" width="198px" height="201px" viewBox="-7 -8 198 201"
	 style="overflow:visible;enable-background:new -7 -8 198 201;" xml:space="preserve">
<defs>
</defs>
<path style="display:none;fill:none;" d="M53.92,87.25l74,0l0.12,50.96c0,23.63-37.25,47.62-37.25,47.62s-37.02-24.54-37.02-48.64
	C53.65,137.18,53.92,87.25,53.92,87.25L53.92,87.25z"/>
<path style="fill-rule:evenodd;clip-rule:evenodd;" d="M168.98,19.36c0,2.93-0.05,3.29-1.67,3.49l-0.7,0.08
	c-0.17,0.2-0.11,0.61,0.06,0.7c1.31-0.06,2.32-0.08,3.49-0.08c1.12,0,2.07,0.03,3.32,0.08c0.17-0.08,0.22-0.56,0.06-0.7l-0.59-0.08
	c-1.62-0.22-1.67-0.56-1.67-3.49l0-3.52c0-0.59,0.06-0.61,1.31-0.61c1.12,0,1.56,0.28,1.98,0.89c0.87,1.26,2.01,3.18,2.74,4.22
	c1.98,2.82,3.41,3.52,5.78,3.52c0.53,0,0.98-0.06,1.23-0.14c0.14-0.11,0.11-0.33-0.03-0.39c-0.75-0.06-1.45-0.36-1.93-0.78
	c-1.9-1.59-3.38-3.82-5.61-7.42c-0.14-0.22-0.28-0.5-0.14-0.67c1.4-0.56,3.49-2.01,3.49-4.66c0-1.95-0.98-3.21-2.32-3.91
	c-1.28-0.7-2.93-0.84-4.66-0.84c-2.74,0-4.66,0.08-6.22,0.22c-0.22,0.11-0.22,0.56-0.03,0.7l0.89,0.11
	c1.14,0.14,1.23,0.61,1.23,3.27L168.98,19.36L168.98,19.36z M171.27,6.8c0-0.78,0.08-0.89,1.81-0.89c3.1,0,4.47,2.09,4.47,4.3
	c0,1.9-0.64,2.88-1.39,3.46c-0.81,0.61-1.87,0.73-2.88,0.73c-1.42,0-1.84-0.06-1.93-0.14c-0.08-0.11-0.08-0.42-0.08-0.92V6.8
	L171.27,6.8z"/>
<path d="M152.77,19.36c0,2.93-0.14,3.35-1.73,3.49l-0.92,0.08c-0.17,0.17-0.11,0.61,0.06,0.7c1.65-0.06,2.6-0.08,3.8-0.08l2.51,0
	c2.48,0,4.97,0.03,7.48,0.08c0.36-0.75,1.06-2.9,1.26-3.88c-0.11-0.25-0.5-0.33-0.7-0.2c-0.73,1.45-1.48,2.43-1.98,2.71
	c-0.61,0.31-1.42,0.42-3.57,0.42c-2.46,0-3.04-0.31-3.38-0.64c-0.45-0.47-0.53-1.42-0.53-2.9l0-3.94c0-0.73,0.08-0.75,0.92-0.75
	h1.62c1.09,0,1.76,0.03,2.15,0.14c0.56,0.14,0.75,0.56,0.87,1.06l0.25,1.09c0.14,0.17,0.61,0.17,0.73-0.03
	c0-0.61-0.11-1.67-0.11-2.68c0-1.06,0.11-2.15,0.11-2.82c-0.11-0.2-0.59-0.2-0.73-0.03l-0.22,1.14c-0.14,0.7-0.33,0.86-0.67,0.98
	s-1.2,0.17-2.37,0.17h-1.62c-0.84,0-0.92,0-0.92-0.78l0-5.58c0-1.06,0-1.12,0.84-1.12h2.01c1.23,0,2.12,0.03,2.71,0.17
	c1.45,0.36,1.7,1.34,2.12,2.65c0.14,0.17,0.59,0.11,0.7-0.06c-0.11-1.23-0.28-3.24-0.45-3.71c-0.33,0.08-1.98,0.08-3.77,0.08
	l-5.25,0c-1.14,0-2.09-0.03-3.29-0.08c-0.17,0.08-0.22,0.59-0.06,0.7l0.45,0.06c1.65,0.2,1.7,0.61,1.7,3.52L152.77,19.36
	L152.77,19.36z"/>
<path d="M141.15,6.94c0-0.92-0.03-0.95,0.81-0.95l1.98,0c1.54,0,2.6,0.22,3.24,0.7c0.42,0.31,0.61,1.34,0.7,2.04
	c0.14,0.17,0.61,0.17,0.73-0.06c-0.08-0.84,0.11-3.1,0.42-4.24c-0.06-0.11-0.36-0.14-0.5-0.08c-0.42,0.73-0.67,0.78-2.18,0.78
	l-11.3,0c-1.28,0-2.21,0.03-2.37-0.87c-0.08-0.08-0.45-0.06-0.53,0c-0.2,1.12-0.61,2.9-1.06,4.16c0.11,0.22,0.5,0.36,0.73,0.2
	c0.31-0.7,0.59-1.31,1.25-1.93c0.7-0.64,2.23-0.7,3.43-0.7l1.54,0c0.84,0,0.84,0.03,0.84,0.89l0,12.48c0,2.93-0.14,3.35-1.73,3.49
	l-1,0.08c-0.22,0.14-0.17,0.61,0,0.7c1.79-0.06,2.76-0.08,3.88-0.08c1.12,0,2.07,0.03,3.66,0.08c0.17-0.08,0.22-0.59,0.06-0.7
	l-0.89-0.08c-1.62-0.17-1.68-0.56-1.68-3.49L141.15,6.94L141.15,6.94z"/>
<path d="M129.81,18.82c0-2.65-1.73-4.27-3.49-5.36l-2.23-1.4c-1.03-0.67-2.37-1.81-2.37-3.43c0-1.28,0.59-3.1,3.32-3.1
	c2.68,0,3.43,1.81,3.8,3.15c0.14,0.17,0.59,0.08,0.7-0.08c0-1.17-0.25-2.74-0.5-3.41c-0.22,0-0.61-0.08-0.98-0.17
	c-0.73-0.22-1.73-0.36-2.6-0.36c-3.63,0-5.69,2.15-5.69,4.8c0,2.29,1.62,3.88,3.01,4.8l2.65,1.73c2.04,1.31,2.29,2.68,2.29,3.91
	c0,1.67-1.14,3.21-3.49,3.21c-3.24,0-4.38-2.74-4.8-4.16c-0.11-0.17-0.53-0.11-0.67,0.08c0.06,1.31,0.42,3.29,0.75,3.91
	c0.53,0.31,2.01,1.03,4.35,1.03C127.49,23.99,129.81,21.89,129.81,18.82L129.81,18.82z"/>
<path d="M104.7,19.35c0,2.93-0.14,3.35-1.73,3.49l-0.92,0.08c-0.17,0.17-0.11,0.61,0.06,0.7c1.65-0.06,2.6-0.08,3.8-0.08l2.51,0
	c2.48,0,4.97,0.03,7.48,0.08c0.36-0.75,1.06-2.9,1.26-3.88c-0.11-0.25-0.5-0.33-0.7-0.2c-0.73,1.45-1.48,2.43-1.98,2.71
	c-0.61,0.31-1.42,0.42-3.57,0.42c-2.46,0-3.04-0.31-3.38-0.64c-0.45-0.47-0.53-1.42-0.53-2.9v-3.94c0-0.73,0.08-0.75,0.92-0.75
	l1.62,0c1.09,0,1.76,0.03,2.15,0.14c0.56,0.14,0.75,0.56,0.87,1.06l0.25,1.09c0.14,0.17,0.61,0.17,0.73-0.03
	c0-0.61-0.11-1.67-0.11-2.68c0-1.06,0.11-2.15,0.11-2.82c-0.11-0.2-0.59-0.2-0.73-0.03l-0.22,1.14c-0.14,0.7-0.33,0.87-0.67,0.98
	c-0.33,0.11-1.2,0.17-2.37,0.17h-1.62c-0.84,0-0.92,0-0.92-0.78l0-5.58c0-1.06,0-1.12,0.84-1.12h2.01c1.23,0,2.12,0.03,2.71,0.17
	c1.45,0.36,1.7,1.34,2.12,2.65c0.14,0.17,0.59,0.11,0.7-0.06c-0.11-1.23-0.28-3.24-0.45-3.71c-0.33,0.08-1.98,0.08-3.77,0.08
	l-5.25,0c-1.14,0-2.09-0.03-3.29-0.08c-0.17,0.08-0.22,0.59-0.06,0.7l0.45,0.06c1.65,0.2,1.7,0.61,1.7,3.52L104.7,19.35L104.7,19.35
	z"/>
<path d="M89.36,19.35c0,2.93-0.06,3.32-1.67,3.49l-0.84,0.08c-0.17,0.17-0.11,0.61,0.06,0.7c1.56-0.06,2.46-0.08,3.63-0.08l2.57,0
	c2.87,0,5.53,0.03,6.95,0.08c0.39-0.75,1.17-3.6,1.17-3.91c0-0.2-0.53-0.31-0.7-0.17c-0.56,1.42-1.28,2.43-1.84,2.76
	c-0.45,0.25-1.03,0.36-3.4,0.36c-2.2,0-2.73-0.33-3.04-0.64c-0.5-0.53-0.59-1.26-0.59-3.01l0-9.71c0-2.93,0.06-3.38,1.7-3.52
	l0.67-0.06c0.17-0.11,0.11-0.61-0.06-0.7c-1.4,0.06-2.34,0.08-3.43,0.08c-1.12,0-2.07-0.03-3.63-0.08c-0.17,0.08-0.22,0.59-0.06,0.7
	l0.7,0.06c1.76,0.14,1.81,0.59,1.81,3.52L89.36,19.35L89.36,19.35z"/>
<path style="fill-rule:evenodd;clip-rule:evenodd;" d="M80.25,20.85c0.22,0.67,0.36,1.17,0.36,1.48c0,0.28-0.39,0.45-0.98,0.5
	l-0.81,0.08c-0.2,0.14-0.17,0.59,0.06,0.7c0.81-0.03,1.87-0.08,3.21-0.08c1.26,0,2.23,0.03,3.38,0.08c0.14-0.11,0.2-0.56,0-0.7
	l-0.75-0.08c-1.2-0.14-1.56-0.56-2.37-2.96L78.52,8.66c-0.42-1.23-0.87-2.51-1.23-3.74c-0.06-0.2-0.25-0.25-0.42-0.25
	c-0.31,0.36-0.78,0.86-1.45,1.06c0.08,0.45-0.08,0.98-0.47,1.98l-2.85,7.54c-1.17,3.13-1.95,4.94-2.46,6.22
	c-0.39,1-1,1.31-1.67,1.37l-0.92,0.08c-0.17,0.14-0.11,0.59,0.06,0.7c0.75-0.03,1.76-0.08,2.68-0.08c1.31,0.03,2.18,0.03,2.9,0.08
	c0.25-0.11,0.25-0.56,0.06-0.7l-0.92-0.08c-0.67-0.06-0.81-0.22-0.81-0.56c0-0.31,0.2-1.06,0.61-2.32l0.98-2.93
	c0.2-0.59,0.36-0.67,1.06-0.67l4.21,0c0.84,0,0.95,0.08,1.14,0.7L80.25,20.85L80.25,20.85z M75.26,9.72
	c0.31-0.84,0.59-1.51,0.67-1.65h0.06c0.17,0.33,0.42,1.09,0.64,1.76l1.51,4.55c0.25,0.75,0.2,0.87-0.61,0.87l-3.43,0
	c-0.78,0-0.81-0.03-0.59-0.67L75.26,9.72L75.26,9.72z"/>
<path d="M48.74,14.43c0,3.6,1.73,6.14,3.96,7.68c2.04,1.37,4.44,1.87,6.95,1.87c1.79,0,3.8-0.42,4.41-0.64
	c0.31-0.11,0.64-0.22,0.98-0.28c0.42-0.53,1.14-2.37,1.34-3.82c-0.11-0.2-0.53-0.25-0.73-0.11c-0.64,1.65-2.23,3.99-5.83,3.99
	c-4.58,0-8.29-3.24-8.29-9.1c0-5.78,3.63-8.48,7.9-8.48c4.05,0,5.3,2.18,5.72,4.08c0.2,0.17,0.61,0.14,0.75-0.06
	c-0.22-1.7-0.36-3.46-0.39-4.1c-0.25,0.03-0.45-0.03-0.78-0.11c-1.31-0.36-3.43-0.67-4.94-0.67c-2.9,0-5.5,0.78-7.54,2.37
	C50.13,8.68,48.74,11.33,48.74,14.43L48.74,14.43z"/>
<path style="fill-rule:evenodd;clip-rule:evenodd;" d="M44.26,20.85c0.22,0.67,0.36,1.17,0.36,1.48c0,0.28-0.39,0.45-0.98,0.5
	l-0.81,0.08c-0.2,0.14-0.17,0.59,0.06,0.7c0.81-0.03,1.87-0.08,3.21-0.08c1.26,0,2.23,0.03,3.38,0.08c0.14-0.11,0.2-0.56,0-0.7
	l-0.75-0.08c-1.2-0.14-1.56-0.56-2.37-2.96L42.53,8.65c-0.42-1.23-0.87-2.51-1.23-3.74c-0.06-0.2-0.25-0.25-0.42-0.25
	c-0.31,0.36-0.78,0.87-1.45,1.06c0.08,0.45-0.08,0.98-0.47,1.98l-2.85,7.54c-1.17,3.13-1.95,4.94-2.46,6.22
	c-0.39,1-1,1.31-1.67,1.37l-0.92,0.08c-0.17,0.14-0.11,0.59,0.06,0.7c0.75-0.03,1.76-0.08,2.68-0.08c1.31,0.03,2.18,0.03,2.9,0.08
	c0.25-0.11,0.25-0.56,0.06-0.7l-0.92-0.08c-0.67-0.06-0.81-0.22-0.81-0.56c0-0.31,0.2-1.06,0.61-2.32l0.98-2.93
	c0.2-0.59,0.36-0.67,1.06-0.67l4.21,0c0.84,0,0.95,0.08,1.14,0.7L44.26,20.85L44.26,20.85z M39.26,9.71
	c0.31-0.84,0.59-1.51,0.67-1.65h0.06c0.17,0.33,0.42,1.09,0.64,1.76l1.51,4.55c0.25,0.75,0.2,0.87-0.61,0.87l-3.43,0
	c-0.78,0-0.81-0.03-0.59-0.67L39.26,9.71L39.26,9.71z"/>
<path d="M8.89,5.86C7.79,3.58,6.9,1.38,7.04,0C5.87,0.11,4.92,0.11,4.1,0.11C3.21,0.11,2.36,0.07,1.3,0
	C1.01,0.14,0.98,0.67,1.16,0.89l0.57,0.07C3.89,1.31,4.17,1.77,4.1,4.01c-0.07,1.95-0.21,4.97-0.39,7.91
	c-0.21,3.51-0.39,5.46-0.6,7.81c-0.21,2.48-0.71,2.73-2.2,2.91l-0.78,0.11c-0.21,0.18-0.14,0.71,0.07,0.89
	c1.21-0.07,2.48-0.11,3.62-0.11c1.35,0,2.73,0.04,3.94,0.11c0.25-0.11,0.28-0.67,0.04-0.89l-1.35-0.11c-1.38-0.11-1.6-0.67-1.6-3.3
	c0-3.02,0.14-6.17,0.25-8.34C5.2,8.94,5.31,6.88,5.45,4.68h0.07C6.3,6.32,7.05,8.16,7.79,9.79l3.19,6.85
	c0.82,1.74,2.52,5.22,3.12,7.1c0.07,0.11,0.25,0.14,0.32,0.14c0.14,0,0.28-0.04,0.35-0.14c0.64-1.63,2.23-4.97,3.83-8.09l3.16-6.21
	c0.71-1.38,2.06-4.22,2.31-4.61h0.07l0.11,14.79c0,2.27,0,2.84-1.74,3.02l-1.03,0.11c-0.21,0.21-0.18,0.71,0.07,0.89
	c1.46-0.07,3.05-0.11,4.29-0.11c1.28,0,2.73,0.04,4.19,0.11c0.25-0.14,0.28-0.67,0.07-0.89l-1.14-0.11
	c-1.67-0.18-1.63-1.1-1.74-2.87c-0.28-5.11-0.32-11.67-0.39-15.43c-0.04-2.48,0.25-3.12,2.48-3.37l0.75-0.07
	c0.18-0.14,0.18-0.75-0.04-0.89c-1.1,0.07-2.27,0.11-3.16,0.11c-0.71,0-1.45,0-2.66-0.11c-0.07,1.63-1.06,3.58-2.7,6.81l-3.33,6.78
	c-0.89,1.81-1.77,3.65-2.73,5.32h-0.07c-0.85-1.56-1.63-3.19-2.45-4.86L8.89,5.86L8.89,5.86z"/>
<path d="M143.25,55.02c0,2.93-0.14,3.35-1.73,3.49l-0.92,0.08c-0.17,0.17-0.11,0.61,0.06,0.7c1.65-0.06,2.6-0.08,3.8-0.08h2.51
	c2.48,0,4.97,0.03,7.48,0.08c0.36-0.75,1.06-2.9,1.26-3.88c-0.11-0.25-0.5-0.33-0.7-0.2c-0.73,1.45-1.48,2.43-1.98,2.71
	c-0.61,0.31-1.42,0.42-3.57,0.42c-2.46,0-3.04-0.31-3.38-0.64c-0.45-0.47-0.53-1.42-0.53-2.9l0-3.94c0-0.73,0.08-0.75,0.92-0.75
	h1.62c1.09,0,1.76,0.03,2.15,0.14c0.56,0.14,0.75,0.56,0.87,1.06l0.25,1.09c0.14,0.17,0.61,0.17,0.73-0.03
	c0-0.61-0.11-1.67-0.11-2.68c0-1.06,0.11-2.15,0.11-2.82c-0.11-0.2-0.59-0.2-0.72-0.03l-0.22,1.14c-0.14,0.7-0.33,0.87-0.67,0.98
	c-0.33,0.11-1.2,0.17-2.37,0.17l-1.62,0c-0.84,0-0.92,0-0.92-0.78l0-5.58c0-1.06,0-1.12,0.84-1.12l2.01,0
	c1.23,0,2.12,0.03,2.71,0.17c1.45,0.36,1.7,1.34,2.12,2.65c0.14,0.17,0.59,0.11,0.7-0.06c-0.11-1.23-0.28-3.24-0.45-3.71
	c-0.33,0.08-1.98,0.08-3.77,0.08l-5.25,0c-1.14,0-2.09-0.03-3.29-0.08c-0.17,0.08-0.22,0.59-0.06,0.7l0.45,0.06
	c1.65,0.2,1.7,0.61,1.7,3.52L143.25,55.02L143.25,55.02z"/>
<path d="M137.29,54.8c0-1.42,0.03-2.21,1.2-2.34l0.45-0.06c0.2-0.17,0.17-0.59-0.03-0.7c-0.92,0.06-1.87,0.08-2.96,0.08
	c-1.65,0-3.18-0.03-3.99-0.08c-0.2,0.08-0.22,0.59,0,0.7l1.23,0.14c1.73,0.2,1.81,0.36,1.82,2.71v1.12c0,0.89-0.14,1.4-0.28,1.59
	c-0.31,0.47-1.34,0.84-3.07,0.84c-5.61,0-8.37-4.22-8.37-9.57c0-4.19,2.37-8.04,7.79-8.04c2.85,0,4.94,0.95,5.72,3.96
	c0.17,0.17,0.67,0.14,0.75-0.08c-0.25-1.67-0.42-3.13-0.42-4.05c-0.33,0.06-1.2-0.14-1.73-0.25c-0.47-0.11-1.95-0.42-3.54-0.42
	c-4.21,0-6.98,1.31-8.85,3.26c-1.73,1.84-2.51,4.24-2.51,6.61c0,2.46,0.89,4.66,2.57,6.34c2.15,2.18,5.19,3.1,8.51,3.1
	c1.51,0,3.52-0.33,5-0.73c0.53-0.14,1.03-0.25,1.37-0.25c0.11-0.08,0.11-0.25,0.03-0.33c-0.5-0.2-0.67-0.87-0.67-1.98V54.8
	L137.29,54.8z"/>
<path d="M106.85,55.02c0,2.93-0.14,3.35-1.73,3.49l-0.92,0.08c-0.17,0.17-0.11,0.61,0.06,0.7c1.65-0.06,2.6-0.08,3.8-0.08l2.51,0
	c2.48,0,4.97,0.03,7.48,0.08c0.36-0.75,1.06-2.9,1.26-3.88c-0.11-0.25-0.5-0.33-0.7-0.2c-0.73,1.45-1.48,2.43-1.98,2.71
	c-0.61,0.31-1.42,0.42-3.57,0.42c-2.46,0-3.04-0.31-3.38-0.64c-0.45-0.47-0.53-1.42-0.53-2.9v-3.94c0-0.73,0.08-0.75,0.92-0.75h1.62
	c1.09,0,1.76,0.03,2.15,0.14c0.56,0.14,0.75,0.56,0.87,1.06l0.25,1.09c0.14,0.17,0.61,0.17,0.73-0.03c0-0.61-0.11-1.67-0.11-2.68
	c0-1.06,0.11-2.15,0.11-2.82c-0.11-0.2-0.59-0.2-0.73-0.03l-0.22,1.14c-0.14,0.7-0.33,0.87-0.67,0.98c-0.33,0.11-1.2,0.17-2.37,0.17
	l-1.62,0c-0.84,0-0.92,0-0.92-0.78v-5.58c0-1.06,0-1.12,0.84-1.12l2.01,0c1.23,0,2.12,0.03,2.71,0.17c1.45,0.36,1.7,1.34,2.12,2.65
	c0.14,0.17,0.59,0.11,0.7-0.06c-0.11-1.23-0.28-3.24-0.45-3.71c-0.33,0.08-1.98,0.08-3.77,0.08l-5.25,0c-1.14,0-2.09-0.03-3.29-0.08
	c-0.17,0.08-0.22,0.59-0.06,0.7l0.45,0.06c1.65,0.2,1.7,0.61,1.7,3.52L106.85,55.02L106.85,55.02z"/>
<path d="M91.8,55.02c0,2.93-0.06,3.32-1.67,3.49l-0.84,0.08c-0.17,0.17-0.11,0.61,0.06,0.7c1.56-0.06,2.46-0.08,3.63-0.08h2.57
	c2.88,0,5.53,0.03,6.95,0.08c0.39-0.75,1.17-3.6,1.17-3.91c0-0.2-0.53-0.31-0.7-0.17c-0.56,1.42-1.28,2.43-1.84,2.76
	c-0.45,0.25-1.03,0.36-3.41,0.36c-2.21,0-2.74-0.34-3.04-0.64c-0.5-0.53-0.59-1.26-0.59-3.01l0-9.71c0-2.93,0.06-3.38,1.7-3.52
	l0.67-0.06c0.17-0.11,0.11-0.61-0.06-0.7c-1.4,0.06-2.34,0.08-3.43,0.08c-1.12,0-2.07-0.03-3.63-0.08c-0.17,0.08-0.22,0.59-0.06,0.7
	l0.7,0.06c1.76,0.14,1.81,0.59,1.81,3.52L91.8,55.02L91.8,55.02z"/>
<path d="M76.74,55.01c0,2.93-0.06,3.32-1.67,3.49l-0.84,0.08c-0.17,0.17-0.11,0.61,0.06,0.7c1.56-0.06,2.46-0.08,3.63-0.08l2.57,0
	c2.87,0,5.53,0.03,6.95,0.08c0.39-0.75,1.17-3.6,1.17-3.91c0-0.2-0.53-0.31-0.7-0.17c-0.56,1.42-1.28,2.43-1.84,2.76
	c-0.45,0.25-1.03,0.36-3.41,0.36c-2.21,0-2.74-0.34-3.04-0.64c-0.5-0.53-0.59-1.26-0.59-3.01l0-9.71c0-2.93,0.06-3.38,1.7-3.52
	l0.67-0.06c0.17-0.11,0.11-0.61-0.06-0.7c-1.4,0.06-2.34,0.08-3.43,0.08c-1.12,0-2.07-0.03-3.63-0.08c-0.17,0.08-0.22,0.59-0.06,0.7
	l0.7,0.06c1.76,0.14,1.81,0.59,1.81,3.52L76.74,55.01L76.74,55.01z"/>
<path style="fill-rule:evenodd;clip-rule:evenodd;" d="M62.58,59.65c5.39,0,9.69-4.1,9.68-9.74c0-4.91-3.24-9.57-9.69-9.57
	c-5.75,0-9.94,4.27-9.94,9.85C52.64,55.21,56.38,59.64,62.58,59.65L62.58,59.65z M62.94,58.78c-5.5,0-7.51-5.36-7.51-9.49
	c0-6.11,3.77-8.09,6.67-8.09c5.33,0,7.37,4.97,7.37,9.57C69.47,56.27,66.29,58.78,62.94,58.78L62.94,58.78z"/>
<path d="M28.12,47.63c0,4.58,2.2,7.81,5.04,9.76c2.59,1.74,5.64,2.38,8.83,2.38c2.27,0,4.83-0.53,5.61-0.82
	c0.39-0.14,0.82-0.28,1.24-0.35c0.53-0.67,1.45-3.02,1.7-4.86c-0.14-0.25-0.67-0.32-0.92-0.14c-0.82,2.09-2.84,5.07-7.42,5.07
	c-5.82,0-10.54-4.12-10.54-11.57c0-7.34,4.61-10.79,10.04-10.78c5.14,0,6.74,2.77,7.27,5.18c0.25,0.21,0.78,0.18,0.96-0.07
	c-0.28-2.16-0.46-4.4-0.5-5.22c-0.32,0.04-0.57-0.04-0.99-0.14c-1.67-0.46-4.36-0.85-6.28-0.85c-3.69,0-6.99,0.99-9.58,3.01
	C29.9,40.32,28.12,43.69,28.12,47.63L28.12,47.63z"/>
<path d="M95.5,182.53c2.04-1.5,4.59-3.46,7.38-5.8L86.65,160.5l3.93-3.93l16.49,16.49c2.21-2.01,4.45-4.21,6.62-6.55l-16.53-16.53
	l9.41-9.41l15.41,15.41c1.82-2.85,3.33-5.79,4.39-8.78l-13.22-13.22l4.2-4.2l10.58,10.58c0.07-0.72,0.1-1.44,0.1-2.17l-0.03-10.93
	l-4.08-4.08l4.06-4.06L127.96,106l-10.61,10.61l-3.94-3.94l14.53-14.53l-0.03-10.9h-2.25l-18.84,18.85l-9.42-9.42l9.42-9.43
	l-13.17,0l-2.84,2.84l-2.84-2.84l-15.89,0l-2.84,2.84l-2.84-2.84l-12.5,0c0,0,0,0.24,0,0.67l8.75,8.75l-8.84,8.84
	c-0.02,4.65-0.04,9.64-0.06,14.25l3.69,3.7l-3.72,3.72c-0.01,5.88-0.01,10,0.03,10.01c0,1.32,0.13,2.64,0.34,3.96l8.84,8.84
	l-3.97,3.97c1.56,2.69,3.39,5.3,5.37,7.8l5.19-5.19l3.94,3.94l-5.51,5.51c2.14,2.37,4.35,4.6,6.52,6.65l5.57-5.57L95.5,182.53z
	 M90.58,143.4l-3.94-3.94l9.41-9.41l3.94,3.94L90.58,143.4z M106.83,119.27l3.94,3.94l-4.2,4.2l-3.94-3.94L106.83,119.27z
	 M90.82,103.26l9.42,9.42l-4.2,4.2l-9.42-9.42L90.82,103.26z M80.04,92.47l4.2,4.2l-4.2,4.2l-4.2-4.2L80.04,92.47z M69.25,103.26
	l4.2,4.2l-9.41,9.41l-4.2-4.2L69.25,103.26z M69.54,143.4l-9.42-9.42l3.93-3.93l9.42,9.42L69.54,143.4z M70.63,123.46l9.41-9.41
	l9.42,9.42l-9.41,9.41L70.63,123.46z M76.12,149.98l3.93-3.93l3.94,3.94l-3.93,3.93L76.12,149.98z"/>
</svg>
