<?xml version="1.0" encoding="utf-8"?>
<!-- Generator: Adobe Illustrator 15.1.0, SVG Export Plug-In  -->
<!DOCTYPE svg PUBLIC "-//W3C//DTD SVG 1.1//EN" "http://www.w3.org/Graphics/SVG/1.1/DTD/svg11.dtd" [
	<!ENTITY ns_flows "http://ns.adobe.com/Flows/1.0/">
]>
<svg version="1.1"
	 xmlns="http://www.w3.org/2000/svg" xmlns:xlink="http://www.w3.org/1999/xlink" xmlns:a="http://ns.adobe.com/AdobeSVGViewerExtensions/3.0/"
	 x="0px" y="0px" width="256px" height="157px" viewBox="-9 -7 256 157"
	 style="overflow:visible;enable-background:new -9 -7 256 157;" xml:space="preserve">
<defs>
</defs>
<path style="fill-rule:evenodd;clip-rule:evenodd;" d="M220.55,25.3c0,3.83-0.07,4.3-2.19,4.56l-0.91,0.11
	c-0.22,0.26-0.15,0.8,0.07,0.91c1.71-0.07,3.03-0.11,4.56-0.11c1.46,0,2.7,0.04,4.34,0.11c0.22-0.11,0.29-0.73,0.07-0.91l-0.77-0.11
	c-2.12-0.29-2.19-0.73-2.19-4.56l0-4.6c0-0.77,0.07-0.8,1.71-0.8c1.46,0,2.04,0.36,2.59,1.17c1.13,1.64,2.63,4.16,3.58,5.51
	c2.59,3.69,4.45,4.6,7.55,4.6c0.69,0,1.28-0.07,1.61-0.18c0.18-0.15,0.15-0.44-0.04-0.51c-0.98-0.07-1.9-0.47-2.52-1.02
	c-2.48-2.08-4.41-5-7.33-9.71c-0.18-0.29-0.36-0.66-0.18-0.88c1.82-0.73,4.56-2.63,4.56-6.09c0-2.55-1.28-4.2-3.03-5.11
	c-1.68-0.91-3.83-1.09-6.09-1.1c-3.58,0-6.09,0.11-8.14,0.29c-0.29,0.15-0.29,0.73-0.04,0.91l1.17,0.15c1.5,0.18,1.6,0.8,1.61,4.27
	L220.55,25.3L220.55,25.3z M223.54,8.89c0-1.02,0.11-1.17,2.37-1.17c4.05,0,5.84,2.74,5.84,5.62c0,2.48-0.84,3.76-1.82,4.52
	c-1.06,0.8-2.44,0.95-3.76,0.95c-1.86,0-2.41-0.07-2.52-0.18c-0.11-0.15-0.11-0.55-0.11-1.2L223.54,8.89L223.54,8.89z"/>
<path d="M199.41,25.3c0,3.83-0.18,4.38-2.26,4.56l-1.2,0.11c-0.22,0.22-0.15,0.8,0.07,0.91c2.15-0.07,3.39-0.11,4.96-0.11l3.28,0
	c3.25,0,6.49,0.04,9.78,0.11c0.47-0.98,1.39-3.79,1.64-5.07c-0.15-0.33-0.66-0.44-0.91-0.26c-0.95,1.9-1.93,3.17-2.59,3.54
	c-0.8,0.4-1.86,0.55-4.67,0.55c-3.21,0-3.98-0.4-4.42-0.84c-0.58-0.62-0.69-1.86-0.69-3.79l0-5.14c0-0.95,0.11-0.98,1.2-0.98h2.12
	c1.42,0,2.3,0.04,2.81,0.18c0.73,0.18,0.98,0.73,1.13,1.39l0.33,1.42c0.18,0.22,0.8,0.22,0.95-0.04c0-0.8-0.15-2.19-0.15-3.5
	c0-1.39,0.15-2.81,0.15-3.69c-0.15-0.25-0.77-0.26-0.95-0.04l-0.29,1.5c-0.18,0.91-0.44,1.13-0.88,1.28s-1.57,0.22-3.1,0.22h-2.12
	c-1.09,0-1.2,0-1.2-1.02l0-7.3c0-1.39,0-1.46,1.09-1.46l2.63,0c1.61,0,2.77,0.04,3.54,0.22c1.9,0.47,2.23,1.75,2.77,3.47
	c0.18,0.22,0.77,0.15,0.91-0.07c-0.15-1.6-0.37-4.23-0.58-4.85c-0.44,0.11-2.59,0.11-4.93,0.11l-6.86,0c-1.5,0-2.74-0.04-4.3-0.11
	c-0.22,0.11-0.29,0.77-0.07,0.91l0.58,0.07c2.15,0.26,2.23,0.8,2.23,4.6L199.41,25.3L199.41,25.3z"/>
<path d="M184.25,9.06c0-1.2-0.04-1.24,1.06-1.24l2.59,0c2.01,0,3.39,0.29,4.23,0.91c0.55,0.4,0.8,1.75,0.91,2.66
	c0.18,0.22,0.8,0.22,0.95-0.07c-0.11-1.09,0.15-4.05,0.55-5.55c-0.07-0.15-0.47-0.18-0.66-0.11c-0.55,0.95-0.88,1.02-2.85,1.02
	l-14.78,0c-1.68,0-2.88,0.04-3.1-1.13c-0.11-0.11-0.58-0.07-0.69,0c-0.25,1.46-0.8,3.79-1.39,5.44c0.15,0.29,0.66,0.47,0.95,0.26
	c0.4-0.91,0.77-1.71,1.64-2.52c0.91-0.84,2.92-0.91,4.49-0.91h2.01c1.09,0,1.09,0.04,1.09,1.17l0,16.31c0,3.83-0.18,4.38-2.26,4.56
	l-1.31,0.11c-0.29,0.18-0.22,0.8,0,0.91c2.33-0.07,3.61-0.11,5.07-0.11c1.46,0,2.7,0.04,4.78,0.11c0.22-0.11,0.29-0.77,0.07-0.91
	l-1.17-0.11c-2.12-0.22-2.19-0.73-2.19-4.56L184.25,9.06L184.25,9.06z"/>
<path d="M169.47,24.6c0-3.47-2.26-5.58-4.56-7.01l-2.92-1.82c-1.35-0.88-3.1-2.37-3.1-4.49c0-1.68,0.77-4.05,4.34-4.05
	c3.5,0,4.49,2.37,4.96,4.12c0.18,0.22,0.77,0.11,0.91-0.11c0-1.53-0.33-3.58-0.66-4.45c-0.29,0-0.8-0.11-1.28-0.22
	c-0.95-0.29-2.26-0.47-3.39-0.47c-4.74,0-7.44,2.81-7.44,6.27c0,2.99,2.12,5.07,3.94,6.28l3.47,2.26c2.66,1.72,2.99,3.5,2.99,5.11
	c0,2.19-1.5,4.2-4.56,4.19c-4.23,0-5.73-3.58-6.28-5.44c-0.15-0.22-0.69-0.15-0.88,0.11c0.07,1.71,0.55,4.31,0.99,5.11
	c0.69,0.4,2.63,1.35,5.69,1.35C166.44,31.35,169.47,28.62,169.47,24.6L169.47,24.6z"/>
<path d="M136.69,25.29c0,3.83-0.18,4.38-2.26,4.56l-1.2,0.11c-0.22,0.22-0.15,0.8,0.07,0.91c2.15-0.07,3.39-0.11,4.96-0.11l3.28,0
	c3.25,0,6.49,0.04,9.78,0.11c0.47-0.98,1.39-3.79,1.64-5.07c-0.15-0.33-0.66-0.44-0.91-0.26c-0.95,1.9-1.93,3.17-2.59,3.54
	c-0.8,0.4-1.86,0.55-4.67,0.55c-3.21,0-3.98-0.4-4.41-0.84c-0.58-0.62-0.69-1.86-0.69-3.79l0-5.14c0-0.95,0.11-0.98,1.2-0.98l2.12,0
	c1.42,0,2.3,0.04,2.81,0.18c0.73,0.18,0.99,0.73,1.13,1.39l0.33,1.42c0.18,0.22,0.8,0.22,0.95-0.04c0-0.8-0.15-2.19-0.15-3.5
	c0-1.39,0.15-2.81,0.15-3.68c-0.15-0.26-0.77-0.26-0.95-0.04l-0.29,1.5c-0.18,0.91-0.44,1.13-0.88,1.28s-1.57,0.22-3.1,0.22h-2.12
	c-1.09,0-1.2,0-1.2-1.02l0-7.3c0-1.39,0-1.46,1.09-1.46h2.63c1.61,0,2.77,0.04,3.54,0.22c1.9,0.47,2.23,1.75,2.77,3.47
	c0.18,0.22,0.77,0.15,0.91-0.07c-0.15-1.6-0.37-4.23-0.58-4.85c-0.44,0.11-2.59,0.11-4.92,0.11l-6.86,0c-1.5,0-2.74-0.04-4.31-0.11
	c-0.22,0.11-0.29,0.77-0.07,0.91l0.58,0.07c2.15,0.26,2.23,0.8,2.23,4.6L136.69,25.29L136.69,25.29z"/>
<path d="M116.68,25.29c0,3.83-0.07,4.34-2.19,4.56l-1.09,0.11c-0.22,0.22-0.15,0.8,0.07,0.91c2.04-0.07,3.21-0.11,4.74-0.11l3.36,0
	c3.76,0,7.22,0.04,9.08,0.11c0.51-0.98,1.53-4.71,1.53-5.11c0-0.26-0.69-0.4-0.91-0.22c-0.73,1.86-1.68,3.17-2.41,3.61
	c-0.58,0.33-1.35,0.47-4.45,0.47c-2.88,0-3.58-0.44-3.98-0.84c-0.66-0.69-0.77-1.64-0.77-3.94l0-12.7c0-3.83,0.07-4.41,2.22-4.6
	l0.88-0.07c0.22-0.15,0.15-0.8-0.07-0.91c-1.82,0.07-3.06,0.11-4.49,0.11c-1.46,0-2.7-0.04-4.74-0.11
	c-0.22,0.11-0.29,0.77-0.07,0.91l0.91,0.07c2.3,0.18,2.37,0.77,2.37,4.6L116.68,25.29L116.68,25.29z"/>
<path style="fill-rule:evenodd;clip-rule:evenodd;" d="M104.82,27.26c0.29,0.88,0.47,1.53,0.47,1.93c0,0.37-0.51,0.58-1.28,0.66
	l-1.06,0.11c-0.26,0.18-0.22,0.77,0.07,0.91c1.06-0.04,2.44-0.11,4.2-0.11c1.64,0,2.92,0.04,4.41,0.11c0.18-0.15,0.26-0.73,0-0.91
	l-0.98-0.11c-1.57-0.18-2.04-0.73-3.1-3.87l-5-14.67c-0.55-1.61-1.13-3.28-1.61-4.89c-0.07-0.26-0.33-0.33-0.55-0.33
	c-0.4,0.47-1.02,1.13-1.9,1.39c0.11,0.58-0.11,1.28-0.62,2.59l-3.72,9.85c-1.53,4.09-2.55,6.46-3.21,8.14
	c-0.51,1.31-1.31,1.71-2.19,1.79l-1.2,0.11c-0.22,0.18-0.15,0.77,0.07,0.91c0.99-0.04,2.3-0.11,3.5-0.11
	c1.71,0.04,2.85,0.04,3.79,0.11c0.33-0.15,0.33-0.73,0.07-0.91l-1.2-0.11c-0.88-0.07-1.06-0.29-1.06-0.73c0-0.4,0.26-1.39,0.8-3.03
	l1.28-3.83c0.26-0.77,0.47-0.88,1.39-0.88l5.51,0c1.09,0,1.24,0.11,1.5,0.91L104.82,27.26L104.82,27.26z M98.28,12.7
	c0.4-1.09,0.77-1.97,0.88-2.15h0.07c0.22,0.44,0.55,1.42,0.84,2.3l1.97,5.95c0.33,0.98,0.26,1.13-0.8,1.13l-4.49,0
	c-1.02,0-1.06-0.04-0.77-0.88L98.28,12.7L98.28,12.7z"/>
<path d="M63.67,18.86c0,4.71,2.26,8.03,5.18,10.03c2.66,1.79,5.8,2.45,9.08,2.45c2.33,0,4.96-0.55,5.76-0.84
	c0.4-0.15,0.84-0.29,1.28-0.36c0.55-0.69,1.5-3.1,1.75-5c-0.15-0.26-0.69-0.33-0.95-0.15c-0.84,2.15-2.92,5.22-7.62,5.22
	c-5.98,0-10.84-4.23-10.84-11.9c0-7.55,4.74-11.09,10.32-11.09c5.29,0,6.93,2.85,7.48,5.33c0.26,0.22,0.8,0.18,0.99-0.07
	c-0.29-2.23-0.48-4.52-0.51-5.36c-0.33,0.04-0.58-0.04-1.02-0.15C82.86,6.5,80.08,6.1,78.11,6.1c-3.79,0-7.19,1.02-9.85,3.1
	C65.49,11.35,63.67,14.81,63.67,18.86L63.67,18.86z"/>
<path style="fill-rule:evenodd;clip-rule:evenodd;" d="M57.85,27.25c0.29,0.88,0.47,1.53,0.47,1.93c0,0.36-0.51,0.58-1.28,0.66
	l-1.06,0.11c-0.26,0.18-0.22,0.77,0.07,0.91c1.06-0.04,2.44-0.11,4.2-0.11c1.64,0,2.92,0.04,4.41,0.11c0.18-0.15,0.26-0.73,0-0.91
	l-0.98-0.11c-1.57-0.18-2.04-0.73-3.1-3.87l-5-14.67c-0.55-1.61-1.13-3.28-1.61-4.89c-0.07-0.26-0.33-0.33-0.55-0.33
	c-0.4,0.47-1.02,1.13-1.9,1.39c0.11,0.58-0.11,1.28-0.62,2.59l-3.72,9.85c-1.53,4.09-2.55,6.46-3.21,8.14
	c-0.51,1.31-1.31,1.71-2.19,1.79l-1.2,0.11c-0.22,0.18-0.15,0.77,0.07,0.91c0.98-0.04,2.3-0.11,3.5-0.11
	c1.71,0.04,2.85,0.04,3.79,0.11c0.33-0.15,0.33-0.73,0.07-0.91l-1.2-0.11c-0.88-0.07-1.06-0.29-1.06-0.73c0-0.4,0.26-1.39,0.8-3.03
	l1.28-3.83c0.26-0.77,0.47-0.88,1.39-0.88l5.51,0c1.09,0,1.24,0.11,1.5,0.91L57.85,27.25L57.85,27.25z M51.32,12.7
	c0.4-1.09,0.77-1.97,0.88-2.15h0.07c0.22,0.44,0.55,1.42,0.84,2.3l1.97,5.95c0.33,0.98,0.26,1.13-0.8,1.13l-4.49,0
	c-1.02,0-1.06-0.04-0.77-0.88L51.32,12.7L51.32,12.7z"/>
<path d="M11.62,7.65C10.18,4.69,9.02,1.81,9.21,0C7.68,0.14,6.43,0.14,5.36,0.14C4.2,0.14,3.09,0.09,1.7,0
	C1.32,0.19,1.28,0.88,1.51,1.16l0.74,0.09c2.83,0.46,3.2,1.07,3.11,3.99c-0.09,2.55-0.28,6.49-0.51,10.34
	c-0.28,4.59-0.51,7.14-0.79,10.2c-0.28,3.25-0.93,3.57-2.88,3.8l-1.02,0.14c-0.28,0.23-0.19,0.93,0.09,1.16
	c1.58-0.09,3.25-0.14,4.73-0.14c1.76,0,3.57,0.05,5.15,0.14c0.32-0.14,0.37-0.88,0.05-1.16l-1.76-0.14
	c-1.81-0.14-2.09-0.88-2.09-4.31c0-3.94,0.18-8.07,0.32-10.9C6.8,11.69,6.94,9,7.12,6.12h0.09c1.02,2.13,1.99,4.54,2.97,6.68
	l4.17,8.95c1.07,2.27,3.29,6.82,4.08,9.28c0.09,0.14,0.33,0.19,0.42,0.19c0.19,0,0.37-0.05,0.46-0.19
	c0.83-2.13,2.92-6.49,5.01-10.57l4.13-8.12c0.93-1.81,2.69-5.52,3.01-6.03h0.09l0.14,19.34c0,2.97,0,3.71-2.27,3.94l-1.35,0.14
	c-0.28,0.28-0.23,0.93,0.09,1.16c1.9-0.09,3.99-0.14,5.61-0.14c1.67,0,3.57,0.05,5.47,0.14c0.32-0.19,0.37-0.88,0.09-1.16
	l-1.48-0.14c-2.18-0.23-2.13-1.44-2.27-3.76c-0.37-6.68-0.42-15.26-0.51-20.17c-0.05-3.25,0.32-4.08,3.25-4.41l0.97-0.09
	c0.23-0.19,0.23-0.97-0.05-1.16c-1.44,0.09-2.97,0.14-4.13,0.14c-0.93,0-1.9,0-3.48-0.14c-0.09,2.13-1.39,4.68-3.52,8.9l-4.36,8.86
	c-1.16,2.37-2.32,4.78-3.57,6.96h-0.09c-1.11-2.04-2.13-4.17-3.2-6.35L11.62,7.65L11.62,7.65z"/>
<path d="M122.82,140.76c1.69-1.24,3.8-2.87,6.11-4.8l-13.41-13.41l3.25-3.26l13.63,13.63c1.83-1.67,3.69-3.48,5.48-5.42
	l-13.66-13.66l7.79-7.79l12.73,12.73c1.5-2.36,2.76-4.79,3.64-7.27l-10.92-10.92l3.48-3.48l8.73,8.73c0.05-0.6,0.09-1.19,0.09-1.79
	l-0.02-9.05l-3.35-3.35l3.33-3.33l-0.03-10.88l-8.76,8.76l-3.26-3.26l12-12l-0.02-9.08h-1.8L132.23,77.5l-7.8-7.8l7.83-7.83h-10.9
	l-2.38,2.38l-2.38-2.38h-13.11l-2.38,2.38l-2.38-2.38l-10.35,0c0,0,0,0.2,0,0.55l7.28,7.28l-7.35,7.35
	c-0.02,3.84-0.03,7.94-0.05,11.74l3.09,3.09l-3.1,3.11c-0.01,4.84-0.01,8.23,0.02,8.23c0,1.09,0.11,2.18,0.28,3.27l7.35,7.35
	l-3.3,3.3c1.3,2.22,2.81,4.39,4.45,6.45l4.3-4.3l3.26,3.26l-4.57,4.57c1.77,1.96,3.6,3.81,5.4,5.5l4.61-4.62L122.82,140.76z
	 M118.77,108.39l-3.26-3.26l7.79-7.79l3.26,3.26L118.77,108.39z M132.23,88.4l3.26,3.26l-3.48,3.48l-3.26-3.26L132.23,88.4z
	 M118.98,75.15l7.8,7.8l-3.48,3.48l-7.8-7.8L118.98,75.15z M110.04,66.22l3.48,3.48l-3.48,3.48l-3.48-3.48L110.04,66.22z
	 M101.12,75.15l3.48,3.48l-7.79,7.79l-3.48-3.48L101.12,75.15z M101.35,108.38l-7.8-7.8l3.25-3.26l7.8,7.8L101.35,108.38z
	 M102.26,91.87l7.79-7.79l7.8,7.8l-7.79,7.79L102.26,91.87z M106.8,113.83l3.25-3.25l3.26,3.26l-3.25,3.25L106.8,113.83z"/>
</svg>
