<?xml version="1.0" encoding="utf-8"?>
<!-- Generator: Adobe Illustrator 15.1.0, SVG Export Plug-In  -->
<!DOCTYPE svg PUBLIC "-//W3C//DTD SVG 1.1//EN" "http://www.w3.org/Graphics/SVG/1.1/DTD/svg11.dtd" [
	<!ENTITY ns_flows "http://ns.adobe.com/Flows/1.0/">
]>
<svg version="1.1"
	 xmlns="http://www.w3.org/2000/svg" xmlns:xlink="http://www.w3.org/1999/xlink" xmlns:a="http://ns.adobe.com/AdobeSVGViewerExtensions/3.0/"
	 x="0px" y="0px" width="432px" height="1080px" viewBox="-5.79 -7.75 432 1080"
	 style="overflow:visible;enable-background:new -5.79 -7.75 432 1080;" xml:space="preserve">
<defs>
</defs>
<path d="M398.13,25.63c0,3.79-0.18,4.34-2.24,4.51l-1.19,0.11c-0.22,0.22-0.14,0.79,0.07,0.9c2.13-0.07,3.36-0.1,4.91-0.1h3.25
	c3.22,0,6.43,0.04,9.68,0.11c0.47-0.98,1.38-3.75,1.63-5.02c-0.15-0.33-0.65-0.44-0.9-0.26c-0.94,1.88-1.91,3.14-2.57,3.5
	c-0.79,0.4-1.84,0.54-4.62,0.54c-3.18,0-3.94-0.4-4.37-0.83c-0.58-0.61-0.69-1.84-0.69-3.76v-5.09c0-0.94,0.11-0.98,1.19-0.98h2.09
	c1.41,0,2.27,0.04,2.78,0.18c0.72,0.18,0.97,0.72,1.12,1.38l0.33,1.41c0.18,0.22,0.8,0.22,0.94-0.04c0-0.79-0.14-2.16-0.14-3.46
	c0-1.37,0.14-2.78,0.14-3.65c-0.14-0.25-0.76-0.25-0.94-0.03l-0.29,1.48c-0.18,0.9-0.43,1.12-0.87,1.27
	c-0.43,0.15-1.55,0.21-3.07,0.21h-2.09c-1.08,0-1.19,0-1.19-1.01V9.78c0-1.37,0-1.45,1.09-1.45h2.59c1.59,0,2.74,0.04,3.5,0.22
	c1.87,0.47,2.2,1.74,2.74,3.43c0.18,0.22,0.76,0.14,0.9-0.07c-0.15-1.59-0.36-4.19-0.58-4.8c-0.44,0.11-2.57,0.11-4.88,0.11l-6.79,0
	c-1.49,0-2.71-0.03-4.26-0.11c-0.22,0.11-0.29,0.75-0.07,0.9l0.58,0.07c2.13,0.25,2.21,0.8,2.21,4.55V25.63L398.13,25.63z"/>
<path d="M390.48,25.34c0-1.85,0.04-2.85,1.56-3.03l0.58-0.07c0.25-0.22,0.22-0.76-0.04-0.91c-1.19,0.07-2.42,0.11-3.83,0.11
	c-2.13,0-4.12-0.04-5.16-0.11c-0.26,0.11-0.29,0.76,0,0.9l1.58,0.18c2.24,0.25,2.35,0.47,2.35,3.5v1.44c0,1.15-0.19,1.8-0.36,2.06
	c-0.4,0.62-1.73,1.08-3.97,1.08c-7.26,0-10.84-5.45-10.84-12.38c0-5.42,3.07-10.4,10.08-10.4c3.68,0,6.39,1.23,7.4,5.13
	c0.22,0.22,0.87,0.18,0.98-0.11c-0.33-2.17-0.54-4.04-0.54-5.24c-0.44,0.07-1.56-0.18-2.24-0.33c-0.61-0.14-2.53-0.54-4.59-0.54
	c-5.45,0-9.02,1.7-11.44,4.22c-2.24,2.38-3.25,5.49-3.25,8.56c0,3.18,1.15,6.03,3.32,8.2c2.78,2.82,6.72,4.01,11.01,4.01
	c1.95,0,4.55-0.43,6.46-0.94c0.69-0.18,1.34-0.32,1.77-0.32c0.14-0.11,0.14-0.33,0.03-0.44c-0.65-0.25-0.87-1.12-0.87-2.56V25.34
	L390.48,25.34z"/>
<path d="M351.13,25.62c0,3.79-0.18,4.33-2.23,4.51l-1.2,0.11c-0.21,0.22-0.14,0.8,0.08,0.9c2.13-0.07,3.36-0.1,4.91-0.1h3.25
	c3.21,0,6.43,0.04,9.68,0.11c0.47-0.97,1.37-3.76,1.62-5.02c-0.14-0.33-0.65-0.43-0.9-0.25c-0.94,1.88-1.91,3.14-2.56,3.5
	c-0.79,0.4-1.84,0.54-4.63,0.54c-3.17,0-3.93-0.4-4.36-0.83c-0.58-0.62-0.69-1.84-0.69-3.76v-5.09c0-0.94,0.1-0.98,1.19-0.98h2.1
	c1.41,0,2.27,0.03,2.78,0.18c0.72,0.18,0.97,0.72,1.12,1.37l0.32,1.41c0.18,0.22,0.79,0.22,0.94-0.04c0-0.79-0.15-2.17-0.15-3.47
	c0-1.37,0.15-2.78,0.15-3.64c-0.15-0.25-0.76-0.25-0.94-0.04l-0.29,1.49c-0.18,0.9-0.43,1.12-0.87,1.27
	c-0.43,0.14-1.55,0.22-3.06,0.22h-2.1c-1.08,0-1.19,0-1.19-1.01V9.77c0-1.37,0-1.44,1.08-1.44h2.6c1.59,0,2.74,0.04,3.51,0.22
	c1.87,0.47,2.2,1.73,2.74,3.43c0.18,0.22,0.76,0.15,0.9-0.07c-0.15-1.59-0.36-4.19-0.58-4.8c-0.43,0.11-2.56,0.11-4.87,0.11l-6.79,0
	c-1.48,0-2.71-0.04-4.26-0.11c-0.22,0.1-0.29,0.76-0.07,0.9l0.58,0.07c2.13,0.25,2.2,0.79,2.2,4.55V25.62L351.13,25.62z"/>
<path d="M331.69,25.62c0,3.79-0.07,4.3-2.17,4.51l-1.08,0.1c-0.22,0.22-0.15,0.8,0.07,0.9c2.02-0.07,3.18-0.11,4.69-0.11h3.32
	c3.72,0,7.15,0.04,8.99,0.11c0.51-0.98,1.52-4.66,1.52-5.05c0-0.26-0.69-0.4-0.91-0.22c-0.72,1.84-1.66,3.14-2.38,3.57
	c-0.58,0.32-1.34,0.47-4.41,0.47c-2.85,0-3.53-0.43-3.93-0.83c-0.65-0.69-0.76-1.63-0.76-3.9l0-12.56c0-3.79,0.07-4.37,2.2-4.55
	L337.72,8c0.22-0.14,0.15-0.8-0.07-0.91c-1.81,0.08-3.04,0.11-4.44,0.11c-1.45,0-2.67-0.03-4.69-0.11c-0.22,0.11-0.29,0.76-0.07,0.9
	l0.9,0.08c2.27,0.18,2.34,0.75,2.34,4.55V25.62L331.69,25.62z"/>
<path d="M312.25,25.61c0,3.79-0.07,4.3-2.17,4.52l-1.08,0.11c-0.22,0.22-0.15,0.79,0.07,0.9c2.02-0.07,3.18-0.11,4.69-0.11h3.32
	c3.73,0,7.15,0.04,8.99,0.11c0.5-0.98,1.51-4.66,1.51-5.06c0-0.25-0.68-0.4-0.9-0.21c-0.72,1.84-1.66,3.14-2.38,3.57
	c-0.58,0.33-1.33,0.47-4.41,0.47c-2.85,0-3.54-0.43-3.93-0.83c-0.65-0.69-0.76-1.63-0.76-3.9V12.62c0-3.79,0.07-4.37,2.2-4.55
	L318.28,8c0.22-0.15,0.15-0.8-0.07-0.9c-1.81,0.07-3.04,0.11-4.44,0.11c-1.45,0-2.67-0.04-4.7-0.11c-0.22,0.1-0.29,0.76-0.07,0.9
	l0.9,0.07c2.28,0.18,2.35,0.76,2.35,4.55L312.25,25.61L312.25,25.61z"/>
<path style="fill-rule:evenodd;clip-rule:evenodd;" d="M293.98,31.61c6.97,0,12.54-5.3,12.54-12.6c0-6.35-4.19-12.38-12.54-12.38
	c-7.44,0-12.85,5.52-12.85,12.74C281.12,25.87,285.96,31.61,293.98,31.61L293.98,31.61z M294.45,30.49c-7.12,0-9.72-6.94-9.72-12.28
	c0-7.91,4.87-10.47,8.63-10.47c6.89,0,9.53,6.42,9.53,12.38C302.9,27.24,298.78,30.49,294.45,30.49L294.45,30.49z"/>
<path d="M249.41,16.06c0,5.92,2.85,10.1,6.52,12.62c3.35,2.25,7.3,3.08,11.43,3.08c2.93,0,6.24-0.69,7.26-1.06
	c0.5-0.18,1.05-0.37,1.6-0.46c0.69-0.87,1.89-3.9,2.21-6.29c-0.19-0.32-0.87-0.42-1.2-0.19c-1.05,2.71-3.67,6.56-9.59,6.56
	c-7.53,0-13.63-5.33-13.63-14.97c0-9.5,5.96-13.95,12.99-13.95c6.66,0,8.73,3.58,9.41,6.7c0.32,0.27,1.01,0.23,1.24-0.09
	c-0.37-2.8-0.6-5.69-0.64-6.75c-0.41,0.05-0.73-0.04-1.28-0.18c-2.16-0.6-5.65-1.1-8.13-1.1c-4.78,0-9.04,1.28-12.39,3.9
	C251.7,6.61,249.41,10.97,249.41,16.06L249.41,16.06z"/>
<path style="fill-rule:evenodd;clip-rule:evenodd;" d="M218.29,25.61c0,3.79-0.07,4.26-2.17,4.51l-0.9,0.11
	c-0.22,0.25-0.14,0.79,0.07,0.9c1.7-0.07,3-0.11,4.52-0.11c1.45,0,2.67,0.04,4.29,0.11c0.22-0.11,0.29-0.73,0.07-0.9l-0.76-0.11
	c-2.09-0.29-2.17-0.72-2.17-4.51v-4.55c0-0.76,0.08-0.79,1.7-0.79c1.45,0,2.02,0.36,2.56,1.15c1.12,1.63,2.6,4.12,3.54,5.46
	c2.57,3.65,4.41,4.55,7.48,4.55c0.69,0,1.27-0.07,1.59-0.18c0.18-0.15,0.15-0.44-0.03-0.51c-0.98-0.07-1.88-0.47-2.49-1.01
	c-2.46-2.06-4.38-4.95-7.26-9.61c-0.18-0.29-0.36-0.65-0.18-0.87c1.8-0.72,4.51-2.6,4.51-6.03c0-2.53-1.26-4.15-3-5.05
	c-1.66-0.91-3.79-1.09-6.03-1.09c-3.54,0-6.03,0.11-8.05,0.29c-0.29,0.15-0.29,0.72-0.04,0.9l1.16,0.15
	c1.48,0.18,1.59,0.79,1.59,4.22V25.61L218.29,25.61z M221.24,9.35c0-1.01,0.12-1.15,2.35-1.15c4.01,0,5.78,2.71,5.78,5.56
	c0,2.45-0.83,3.72-1.81,4.48c-1.04,0.79-2.42,0.93-3.72,0.93c-1.84,0-2.39-0.07-2.49-0.18c-0.12-0.15-0.12-0.54-0.12-1.19V9.35
	L221.24,9.35z"/>
<path d="M197.36,25.6c0,3.79-0.18,4.34-2.24,4.51l-1.19,0.11c-0.22,0.22-0.14,0.8,0.07,0.9c2.13-0.07,3.36-0.1,4.91-0.1h3.25
	c3.21,0,6.43,0.04,9.68,0.11c0.47-0.98,1.37-3.76,1.62-5.02c-0.15-0.32-0.65-0.43-0.9-0.25c-0.94,1.88-1.92,3.14-2.56,3.5
	c-0.79,0.4-1.84,0.54-4.62,0.54c-3.18,0-3.94-0.4-4.37-0.83c-0.58-0.62-0.69-1.84-0.69-3.76v-5.09c0-0.94,0.11-0.97,1.19-0.97h2.1
	c1.41,0,2.27,0.03,2.78,0.18c0.72,0.18,0.98,0.72,1.12,1.37l0.32,1.41c0.18,0.22,0.8,0.22,0.94-0.03c0-0.79-0.15-2.17-0.15-3.47
	c0-1.37,0.15-2.78,0.15-3.65c-0.15-0.25-0.76-0.25-0.94-0.03l-0.29,1.48c-0.18,0.9-0.43,1.12-0.87,1.27
	c-0.43,0.15-1.55,0.22-3.07,0.22h-2.1c-1.08,0-1.19,0-1.19-1.01V9.75c0-1.37,0-1.44,1.08-1.44h2.6c1.59,0,2.74,0.04,3.5,0.21
	c1.88,0.47,2.21,1.74,2.75,3.43c0.18,0.22,0.76,0.14,0.9-0.07c-0.14-1.59-0.36-4.19-0.58-4.81c-0.43,0.11-2.56,0.11-4.88,0.11h-6.79
	c-1.48,0-2.71-0.04-4.26-0.11c-0.22,0.11-0.29,0.76-0.07,0.9l0.58,0.07c2.13,0.25,2.2,0.8,2.2,4.55L197.36,25.6L197.36,25.6z"/>
<path d="M182.36,9.53c0-1.19-0.04-1.23,1.05-1.23l2.56,0c1.99,0,3.36,0.29,4.19,0.9c0.54,0.4,0.79,1.73,0.9,2.63
	c0.18,0.22,0.79,0.22,0.94-0.07c-0.11-1.08,0.14-4,0.54-5.49c-0.07-0.15-0.47-0.18-0.65-0.11c-0.54,0.94-0.87,1.01-2.82,1.01h-14.62
	c-1.66,0-2.85,0.03-3.07-1.12c-0.11-0.11-0.58-0.07-0.68,0c-0.25,1.45-0.79,3.75-1.37,5.38c0.14,0.29,0.65,0.47,0.94,0.26
	c0.4-0.9,0.76-1.7,1.62-2.49c0.9-0.83,2.89-0.9,4.44-0.9h1.99c1.08,0,1.08,0.04,1.08,1.16l0,16.14c0,3.79-0.18,4.33-2.24,4.51
	l-1.3,0.11c-0.29,0.18-0.22,0.8,0,0.9c2.31-0.07,3.57-0.1,5.02-0.1c1.44,0,2.67,0.03,4.73,0.11c0.22-0.11,0.29-0.76,0.07-0.9
	l-1.16-0.11c-2.09-0.22-2.17-0.72-2.17-4.51L182.36,9.53L182.36,9.53z"/>
<path d="M167.73,24.91c0-3.43-2.24-5.53-4.52-6.94l-2.89-1.8c-1.33-0.87-3.07-2.35-3.07-4.45c0-1.66,0.76-4.01,4.3-4.01
	c3.47,0,4.44,2.35,4.91,4.08c0.18,0.22,0.76,0.11,0.9-0.11c0-1.52-0.32-3.54-0.65-4.41c-0.29,0-0.79-0.11-1.26-0.21
	c-0.94-0.29-2.24-0.47-3.36-0.47c-4.7,0-7.37,2.78-7.37,6.21c0,2.96,2.1,5.02,3.9,6.21l3.43,2.24c2.64,1.7,2.96,3.47,2.96,5.05
	c0,2.17-1.48,4.15-4.51,4.15c-4.19,0-5.67-3.54-6.21-5.38c-0.14-0.22-0.69-0.14-0.86,0.11c0.07,1.7,0.54,4.26,0.98,5.05
	c0.69,0.4,2.6,1.34,5.63,1.34C164.73,31.59,167.73,28.89,167.73,24.91L167.73,24.91z"/>
<path d="M135.28,25.59c0,3.79-0.18,4.33-2.24,4.51l-1.19,0.1c-0.22,0.22-0.14,0.8,0.07,0.91c2.13-0.07,3.36-0.11,4.91-0.11h3.25
	c3.21,0,6.43,0.04,9.68,0.11c0.47-0.98,1.37-3.76,1.62-5.02c-0.15-0.33-0.65-0.43-0.9-0.25c-0.94,1.88-1.91,3.14-2.56,3.5
	c-0.79,0.4-1.84,0.54-4.62,0.54c-3.18,0-3.93-0.4-4.37-0.83c-0.58-0.61-0.69-1.84-0.69-3.76v-5.09c0-0.94,0.11-0.98,1.19-0.98h2.09
	c1.41,0,2.28,0.04,2.78,0.18c0.72,0.18,0.98,0.72,1.12,1.37l0.33,1.41c0.18,0.22,0.79,0.22,0.94-0.04c0-0.8-0.14-2.17-0.14-3.47
	c0-1.37,0.14-2.77,0.14-3.64c-0.14-0.25-0.76-0.25-0.94-0.04l-0.29,1.48c-0.18,0.9-0.44,1.12-0.87,1.26
	c-0.43,0.14-1.55,0.21-3.07,0.21h-2.09c-1.08,0-1.19,0-1.19-1.01V9.74c0-1.37,0-1.44,1.08-1.44h2.6c1.59,0,2.74,0.04,3.5,0.22
	c1.88,0.47,2.2,1.73,2.75,3.43c0.18,0.21,0.76,0.14,0.9-0.07c-0.15-1.59-0.36-4.19-0.58-4.8c-0.43,0.11-2.56,0.11-4.88,0.11h-6.79
	c-1.48,0-2.71-0.04-4.26-0.11c-0.22,0.11-0.29,0.76-0.07,0.9l0.58,0.07c2.13,0.26,2.2,0.8,2.2,4.55L135.28,25.59L135.28,25.59z"/>
<path d="M115.48,25.59c0,3.79-0.07,4.3-2.17,4.51l-1.08,0.11c-0.22,0.22-0.14,0.79,0.07,0.9c2.02-0.07,3.18-0.11,4.69-0.11l3.32,0
	c3.72,0,7.15,0.04,8.99,0.11c0.5-0.97,1.52-4.66,1.52-5.05c0-0.25-0.69-0.4-0.9-0.21c-0.72,1.84-1.66,3.14-2.38,3.58
	c-0.58,0.32-1.34,0.47-4.41,0.47c-2.85,0-3.54-0.43-3.94-0.83c-0.65-0.68-0.76-1.62-0.76-3.9l0-12.56c0-3.79,0.07-4.37,2.2-4.55
	l0.87-0.07c0.22-0.14,0.14-0.79-0.07-0.9c-1.81,0.07-3.03,0.1-4.44,0.1c-1.44,0-2.67-0.03-4.69-0.1c-0.22,0.1-0.29,0.76-0.07,0.9
	l0.9,0.07c2.27,0.18,2.35,0.76,2.35,4.55L115.48,25.59L115.48,25.59z"/>
<path style="fill-rule:evenodd;clip-rule:evenodd;" d="M103.74,27.54c0.29,0.86,0.47,1.51,0.47,1.91c0,0.36-0.51,0.58-1.26,0.65
	l-1.05,0.11c-0.25,0.18-0.22,0.76,0.07,0.9c1.05-0.04,2.42-0.11,4.15-0.11c1.62,0,2.89,0.03,4.37,0.11c0.18-0.15,0.25-0.72,0-0.9
	l-0.97-0.11c-1.55-0.18-2.02-0.72-3.07-3.83l-4.95-14.51c-0.54-1.59-1.12-3.25-1.59-4.84c-0.07-0.25-0.32-0.32-0.54-0.32
	c-0.4,0.46-1.01,1.12-1.88,1.37c0.11,0.58-0.11,1.26-0.61,2.56l-3.68,9.75c-1.52,4.04-2.53,6.39-3.18,8.05
	c-0.51,1.3-1.3,1.7-2.17,1.77l-1.19,0.11c-0.22,0.18-0.15,0.76,0.07,0.9C87.71,31.08,89.01,31,90.2,31c1.7,0.04,2.82,0.04,3.76,0.11
	c0.33-0.14,0.33-0.72,0.07-0.91l-1.19-0.11c-0.87-0.07-1.05-0.29-1.05-0.72c0-0.4,0.25-1.37,0.79-3l1.26-3.79
	c0.25-0.76,0.47-0.87,1.37-0.87h5.45c1.08,0,1.23,0.11,1.48,0.9L103.74,27.54L103.74,27.54z M97.27,13.13
	c0.4-1.08,0.76-1.95,0.87-2.13h0.07c0.22,0.43,0.54,1.41,0.83,2.28l1.95,5.89c0.32,0.97,0.25,1.12-0.8,1.12h-4.44
	c-1.01,0-1.05-0.03-0.76-0.87L97.27,13.13L97.27,13.13z"/>
<path d="M63.01,19.23c0,4.66,2.24,7.95,5.13,9.93c2.64,1.77,5.74,2.42,8.99,2.42c2.31,0,4.91-0.54,5.7-0.83
	c0.4-0.14,0.83-0.29,1.26-0.36c0.54-0.69,1.48-3.07,1.73-4.95c-0.15-0.25-0.69-0.32-0.94-0.14c-0.83,2.13-2.89,5.16-7.55,5.16
	c-5.92,0-10.72-4.19-10.73-11.77c0-7.47,4.69-10.98,10.22-10.98c5.24,0,6.86,2.82,7.4,5.27c0.25,0.21,0.79,0.18,0.98-0.07
	c-0.29-2.2-0.47-4.48-0.51-5.31c-0.32,0.04-0.58-0.04-1.01-0.15c-1.7-0.47-4.44-0.86-6.39-0.86c-3.76,0-7.11,1.01-9.75,3.07
	C64.82,11.79,63.01,15.22,63.01,19.23L63.01,19.23z"/>
<path style="fill-rule:evenodd;clip-rule:evenodd;" d="M57.26,27.53c0.29,0.87,0.47,1.52,0.47,1.91c0,0.36-0.51,0.58-1.26,0.65
	l-1.05,0.11c-0.25,0.18-0.22,0.76,0.07,0.9c1.05-0.04,2.42-0.11,4.15-0.11c1.63,0,2.89,0.04,4.37,0.11c0.18-0.14,0.25-0.72,0-0.9
	l-0.98-0.11c-1.55-0.18-2.02-0.72-3.07-3.83l-4.95-14.52c-0.54-1.59-1.12-3.25-1.59-4.84c-0.07-0.25-0.32-0.32-0.54-0.32
	c-0.4,0.47-1.01,1.12-1.88,1.37c0.11,0.58-0.11,1.26-0.61,2.56l-3.68,9.75c-1.52,4.04-2.53,6.39-3.18,8.05
	c-0.5,1.3-1.3,1.7-2.17,1.77l-1.19,0.11c-0.22,0.18-0.14,0.75,0.07,0.9c0.98-0.04,2.28-0.11,3.47-0.11c1.7,0.04,2.82,0.04,3.76,0.11
	c0.32-0.15,0.32-0.72,0.07-0.9l-1.19-0.11c-0.87-0.07-1.05-0.29-1.05-0.72c0-0.4,0.25-1.37,0.79-3l1.26-3.79
	c0.25-0.76,0.47-0.87,1.37-0.87h5.45c1.08,0,1.23,0.11,1.48,0.9L57.26,27.53L57.26,27.53z M50.79,13.13
	c0.4-1.08,0.76-1.95,0.87-2.13h0.07c0.22,0.43,0.54,1.41,0.83,2.27l1.95,5.89c0.33,0.97,0.25,1.12-0.79,1.12h-4.44
	c-1.01,0-1.05-0.04-0.76-0.87L50.79,13.13L50.79,13.13z"/>
<path d="M11.5,8.14C10.08,5.2,8.93,2.35,9.11,0.56C7.6,0.7,6.36,0.7,5.3,0.7c-1.15,0-2.25-0.05-3.63-0.14
	C1.31,0.75,1.26,1.43,1.49,1.71L2.23,1.8C5.03,2.26,5.4,2.86,5.3,5.75c-0.09,2.52-0.28,6.42-0.5,10.23
	c-0.27,4.54-0.5,7.07-0.78,10.1c-0.27,3.21-0.92,3.54-2.84,3.77l-1.01,0.14c-0.27,0.23-0.18,0.92,0.09,1.15
	c1.56-0.09,3.21-0.14,4.68-0.14c1.75,0,3.53,0.05,5.1,0.14c0.32-0.14,0.37-0.87,0.04-1.15l-1.75-0.14
	c-1.79-0.14-2.06-0.87-2.06-4.27c0-3.9,0.18-7.98,0.32-10.79c0.14-2.66,0.27-5.32,0.46-8.17h0.09c1.01,2.11,1.98,4.5,2.94,6.61
	l4.13,8.86c1.06,2.25,3.26,6.75,4.04,9.18c0.09,0.14,0.32,0.18,0.42,0.18c0.18,0,0.37-0.04,0.46-0.18
	c0.83-2.11,2.89-6.43,4.96-10.46l4.08-8.04c0.92-1.78,2.66-5.46,2.98-5.96h0.09l0.14,19.14c0,2.94,0,3.67-2.25,3.9l-1.33,0.14
	c-0.28,0.27-0.23,0.92,0.09,1.15c1.88-0.09,3.95-0.14,5.55-0.14c1.65,0,3.53,0.05,5.42,0.14c0.32-0.19,0.37-0.87,0.09-1.15
	l-1.47-0.14c-2.16-0.23-2.11-1.42-2.25-3.72c-0.37-6.61-0.41-15.1-0.51-19.97c-0.05-3.21,0.32-4.04,3.21-4.36l0.96-0.09
	c0.23-0.19,0.23-0.97-0.05-1.15c-1.42,0.09-2.94,0.14-4.08,0.14c-0.92,0-1.88,0-3.44-0.14c-0.09,2.11-1.38,4.63-3.48,8.81
	l-4.32,8.77c-1.15,2.34-2.3,4.73-3.53,6.89H19.9c-1.1-2.02-2.11-4.13-3.17-6.29L11.5,8.14L11.5,8.14z"/>
<path d="M212.99,201.27c2.56-1.88,5.82-4.37,9.4-7.34l-20.96-20.96l5-4.99l21.31,21.31c2.81-2.55,5.68-5.33,8.45-8.3l-21.38-21.39
	l11.96-11.96l20.01,20.01c2.32-3.59,4.27-7.3,5.66-11.08l-17.3-17.3l5.33-5.34l14.05,14.05c0.13-1.11,0.19-2.2,0.19-3.3l-0.03-13.27
	l-5.85-5.85l5.82-5.82l-0.04-16.7l-14.15,14.15l-5.01-5l19.13-19.14l-0.03-13.13h-3.57l-23.89,23.9l-11.97-11.97l11.92-11.93H210.3
	l-3.56,3.56l-3.56-3.56l-20.3,0l-3.55,3.55l-3.55-3.55H160.5c0,0,0,0.52-0.01,1.46l10.46,10.46l-10.56,10.57
	c-0.03,6.33-0.06,13.18-0.08,19.45l4.03,4.03l-4.05,4.05c-0.02,7.86-0.02,13.44,0.03,13.44c0,1.92,0.18,3.84,0.53,5.75l10.46,10.46
	l-4.65,4.65c1.96,3.43,4.27,6.77,6.78,9.96l6.25-6.24l5,5l-6.68,6.68c2.7,3.02,5.5,5.86,8.26,8.47l6.78-6.78L212.99,201.27z
	 M206.42,151.23l-5-5l11.96-11.96l5,5L206.42,151.23z M227.08,120.55l5.01,5l-5.34,5.33l-5-5L227.08,120.55z M206.74,100.21
	l11.97,11.97l-5.34,5.33l-11.97-11.97L206.74,100.21z M193.03,86.5l5.34,5.34l-5.33,5.33l-5.34-5.34L193.03,86.5z M179.33,100.2
	l5.34,5.34l-11.96,11.97l-5.34-5.35L179.33,100.2z M179.68,151.22l-11.97-11.97l5-5l11.97,11.97L179.68,151.22z M181.08,125.88
	l11.96-11.96l11.97,11.97l-11.96,11.96L181.08,125.88z M188.05,159.59l5-5l5,5.01l-5,4.99L188.05,159.59z"/>
<path d="M326,541.02c0,2.02-0.1,2.31-1.19,2.4l-0.63,0.06c-0.12,0.11-0.08,0.42,0.04,0.48c1.13-0.04,1.79-0.06,2.61-0.06h1.73
	c1.71,0,3.42,0.02,5.15,0.06c0.25-0.52,0.73-2,0.86-2.67c-0.08-0.17-0.35-0.23-0.48-0.14c-0.5,1-1.02,1.67-1.36,1.86
	c-0.42,0.21-0.98,0.29-2.46,0.29c-1.69,0-2.09-0.21-2.33-0.44c-0.31-0.33-0.37-0.98-0.37-2v-2.71c0-0.5,0.06-0.52,0.64-0.52h1.11
	c0.75,0,1.21,0.02,1.48,0.1c0.38,0.09,0.52,0.38,0.6,0.73l0.17,0.75c0.1,0.12,0.42,0.12,0.5-0.02c0-0.42-0.08-1.15-0.08-1.84
	c0-0.73,0.08-1.48,0.08-1.94c-0.08-0.13-0.4-0.13-0.5-0.02l-0.15,0.79c-0.1,0.48-0.23,0.6-0.46,0.67s-0.83,0.12-1.63,0.12h-1.12
	c-0.58,0-0.63,0-0.63-0.54v-3.85c0-0.73,0-0.77,0.58-0.77h1.38c0.85,0,1.46,0.02,1.87,0.12c1,0.25,1.17,0.92,1.46,1.83
	c0.1,0.12,0.4,0.08,0.48-0.04c-0.08-0.85-0.19-2.23-0.31-2.56c-0.23,0.06-1.36,0.06-2.6,0.06l-3.61,0c-0.79,0-1.44-0.02-2.27-0.06
	c-0.12,0.06-0.15,0.4-0.04,0.48l0.31,0.04c1.13,0.13,1.17,0.42,1.17,2.42L326,541.02L326,541.02z"/>
<path d="M321.93,540.86c0-0.98,0.02-1.52,0.83-1.61l0.31-0.04c0.13-0.12,0.12-0.4-0.02-0.48c-0.63,0.04-1.29,0.06-2.04,0.06
	c-1.13,0-2.19-0.02-2.75-0.06c-0.13,0.06-0.15,0.4,0,0.48l0.85,0.1c1.19,0.13,1.25,0.25,1.25,1.86v0.77c0,0.62-0.1,0.96-0.19,1.09
	c-0.21,0.33-0.92,0.58-2.11,0.58c-3.86,0-5.77-2.9-5.77-6.59c0-2.88,1.63-5.54,5.36-5.53c1.96,0,3.4,0.65,3.94,2.73
	c0.12,0.11,0.46,0.1,0.52-0.06c-0.17-1.15-0.29-2.15-0.29-2.79c-0.23,0.04-0.83-0.1-1.19-0.17c-0.33-0.08-1.35-0.29-2.44-0.29
	c-2.9,0-4.81,0.9-6.09,2.25c-1.19,1.27-1.73,2.92-1.73,4.56c0,1.69,0.62,3.21,1.77,4.36c1.48,1.5,3.58,2.13,5.86,2.13
	c1.04,0,2.42-0.23,3.44-0.5c0.37-0.1,0.71-0.17,0.94-0.17c0.08-0.06,0.08-0.17,0.02-0.23c-0.35-0.13-0.46-0.59-0.46-1.36V540.86
	L321.93,540.86z"/>
<path d="M300.98,541.01c0,2.02-0.1,2.31-1.19,2.4l-0.63,0.06c-0.12,0.12-0.08,0.42,0.04,0.48c1.13-0.04,1.79-0.06,2.61-0.06h1.73
	c1.71,0,3.42,0.02,5.15,0.06c0.25-0.52,0.73-2,0.86-2.67c-0.08-0.17-0.35-0.23-0.48-0.13c-0.5,1-1.02,1.67-1.37,1.86
	c-0.42,0.21-0.98,0.29-2.46,0.29c-1.69,0-2.1-0.21-2.33-0.44c-0.31-0.33-0.36-0.98-0.36-2l0-2.71c0-0.5,0.06-0.52,0.63-0.52h1.12
	c0.75,0,1.21,0.02,1.48,0.1c0.38,0.1,0.52,0.38,0.59,0.73l0.17,0.75c0.1,0.12,0.42,0.12,0.5-0.02c0-0.42-0.08-1.15-0.08-1.85
	c0-0.73,0.08-1.48,0.08-1.94c-0.08-0.13-0.4-0.13-0.5-0.02l-0.15,0.79c-0.1,0.48-0.23,0.59-0.46,0.67
	c-0.23,0.08-0.83,0.12-1.63,0.12h-1.12c-0.58,0-0.63,0-0.63-0.54v-3.84c0-0.73,0-0.77,0.58-0.77h1.38c0.85,0,1.46,0.02,1.87,0.12
	c1,0.25,1.17,0.92,1.46,1.83c0.1,0.12,0.41,0.08,0.48-0.04c-0.08-0.85-0.19-2.23-0.31-2.56c-0.23,0.06-1.37,0.06-2.6,0.06h-3.61
	c-0.79,0-1.44-0.02-2.27-0.06c-0.12,0.06-0.15,0.41-0.04,0.48l0.31,0.04c1.13,0.13,1.17,0.42,1.17,2.42L300.98,541.01L300.98,541.01
	z"/>
<path d="M290.63,541.01c0,2.02-0.04,2.29-1.15,2.4l-0.58,0.06c-0.11,0.12-0.08,0.42,0.04,0.48c1.08-0.04,1.69-0.06,2.5-0.06h1.77
	c1.98,0,3.81,0.02,4.79,0.06c0.27-0.52,0.81-2.48,0.81-2.69c0-0.13-0.36-0.21-0.48-0.12c-0.38,0.98-0.88,1.67-1.27,1.9
	c-0.31,0.17-0.71,0.25-2.34,0.25c-1.52,0-1.88-0.23-2.1-0.44c-0.35-0.37-0.4-0.87-0.4-2.08l0-6.69c0-2.02,0.04-2.33,1.17-2.42
	l0.46-0.04c0.11-0.08,0.08-0.42-0.04-0.48c-0.96,0.04-1.62,0.06-2.37,0.06c-0.77,0-1.42-0.02-2.5-0.06
	c-0.12,0.06-0.15,0.4-0.04,0.48l0.48,0.04c1.21,0.1,1.25,0.4,1.25,2.42V541.01L290.63,541.01z"/>
<path d="M280.28,541.01c0,2.02-0.04,2.29-1.15,2.4l-0.58,0.06c-0.12,0.12-0.08,0.42,0.04,0.48c1.08-0.04,1.69-0.06,2.5-0.06h1.77
	c1.98,0,3.81,0.02,4.79,0.06c0.27-0.52,0.81-2.48,0.81-2.69c0-0.14-0.37-0.21-0.48-0.12c-0.38,0.98-0.88,1.67-1.27,1.9
	c-0.31,0.17-0.71,0.25-2.34,0.25c-1.52,0-1.88-0.23-2.1-0.44c-0.35-0.37-0.4-0.87-0.4-2.08v-6.69c0-2.02,0.04-2.33,1.17-2.42
	l0.46-0.04c0.12-0.08,0.08-0.42-0.04-0.48c-0.96,0.04-1.61,0.06-2.36,0.06c-0.77,0-1.42-0.02-2.5-0.06
	c-0.12,0.06-0.15,0.41-0.04,0.48l0.48,0.04c1.21,0.1,1.25,0.4,1.25,2.42V541.01L280.28,541.01z"/>
<path style="fill-rule:evenodd;clip-rule:evenodd;" d="M270.56,544.2c3.71,0,6.67-2.83,6.67-6.71c0-3.38-2.23-6.59-6.67-6.59
	c-3.96,0-6.84,2.94-6.84,6.79C263.71,541.14,266.29,544.2,270.56,544.2L270.56,544.2z M270.81,543.6c-3.79,0-5.17-3.69-5.17-6.54
	c0-4.21,2.59-5.57,4.59-5.57c3.67,0,5.08,3.42,5.08,6.59C275.31,541.88,273.11,543.6,270.81,543.6L270.81,543.6z"/>
<path d="M246.83,535.92c0,3.15,1.52,5.38,3.47,6.72c1.78,1.2,3.88,1.64,6.08,1.64c1.56,0,3.32-0.37,3.86-0.56
	c0.27-0.1,0.56-0.19,0.86-0.24c0.37-0.46,1-2.08,1.17-3.35c-0.1-0.17-0.46-0.22-0.64-0.1c-0.56,1.44-1.95,3.5-5.11,3.5
	c-4.01,0-7.26-2.84-7.26-7.97c0-5.06,3.18-7.43,6.92-7.43c3.54,0,4.64,1.91,5.01,3.57c0.17,0.15,0.54,0.12,0.66-0.05
	c-0.2-1.49-0.32-3.03-0.34-3.59c-0.22,0.02-0.39-0.03-0.69-0.1c-1.15-0.32-3-0.59-4.32-0.59c-2.54,0-4.81,0.68-6.6,2.08
	C248.05,530.89,246.83,533.21,246.83,535.92L246.83,535.92z"/>
<path style="fill-rule:evenodd;clip-rule:evenodd;" d="M230.26,541c0,2.02-0.04,2.27-1.15,2.4l-0.48,0.06
	c-0.12,0.13-0.08,0.42,0.04,0.48c0.9-0.04,1.6-0.06,2.4-0.06c0.77,0,1.42,0.02,2.29,0.06c0.12-0.06,0.15-0.38,0.04-0.48l-0.4-0.06
	c-1.12-0.15-1.15-0.38-1.15-2.4l0-2.42c0-0.4,0.04-0.42,0.91-0.42c0.77,0,1.08,0.19,1.36,0.62c0.6,0.86,1.38,2.19,1.88,2.9
	c1.36,1.94,2.35,2.42,3.98,2.42c0.37,0,0.67-0.04,0.85-0.1c0.09-0.08,0.08-0.23-0.02-0.27c-0.52-0.04-1-0.25-1.33-0.54
	c-1.31-1.09-2.33-2.63-3.87-5.11c-0.1-0.15-0.19-0.35-0.1-0.46c0.96-0.38,2.4-1.38,2.4-3.21c0-1.34-0.67-2.21-1.6-2.69
	c-0.88-0.48-2.02-0.58-3.21-0.58c-1.88,0-3.21,0.06-4.29,0.15c-0.15,0.08-0.15,0.38-0.02,0.48l0.62,0.08
	c0.79,0.09,0.85,0.42,0.85,2.25V541L230.26,541z M231.84,532.35c0-0.54,0.06-0.62,1.25-0.62c2.13,0,3.08,1.44,3.08,2.96
	c0,1.31-0.44,1.98-0.96,2.38c-0.56,0.42-1.29,0.5-1.98,0.5c-0.98,0-1.27-0.04-1.33-0.1c-0.06-0.08-0.06-0.29-0.06-0.64V532.35
	L231.84,532.35z"/>
<path d="M219.12,541c0,2.02-0.1,2.31-1.19,2.4l-0.63,0.06c-0.12,0.12-0.08,0.42,0.04,0.48c1.13-0.04,1.79-0.06,2.61-0.06l1.73,0
	c1.71,0,3.42,0.02,5.15,0.06c0.25-0.52,0.73-2,0.86-2.67c-0.08-0.17-0.35-0.23-0.48-0.13c-0.5,1-1.02,1.67-1.36,1.86
	c-0.42,0.21-0.98,0.29-2.46,0.29c-1.69,0-2.1-0.21-2.33-0.44c-0.31-0.33-0.36-0.98-0.36-2l0-2.71c0-0.5,0.06-0.52,0.63-0.52h1.12
	c0.75,0,1.21,0.02,1.48,0.1c0.38,0.1,0.52,0.38,0.6,0.73l0.17,0.75c0.1,0.12,0.42,0.12,0.5-0.02c0-0.42-0.08-1.15-0.08-1.85
	c0-0.73,0.08-1.48,0.08-1.94c-0.08-0.13-0.4-0.13-0.5-0.02l-0.15,0.79c-0.1,0.48-0.23,0.6-0.46,0.67c-0.23,0.08-0.83,0.12-1.63,0.12
	h-1.12c-0.58,0-0.63,0-0.63-0.54v-3.85c0-0.73,0-0.77,0.58-0.77h1.38c0.85,0,1.46,0.02,1.87,0.12c1,0.25,1.17,0.92,1.46,1.83
	c0.1,0.12,0.4,0.08,0.48-0.04c-0.08-0.85-0.19-2.23-0.31-2.56c-0.23,0.06-1.36,0.06-2.59,0.06h-3.61c-0.79,0-1.44-0.02-2.27-0.06
	c-0.12,0.06-0.15,0.4-0.04,0.48l0.31,0.04c1.13,0.13,1.17,0.42,1.17,2.42L219.12,541L219.12,541z"/>
<path d="M211.14,532.45c0-0.63-0.02-0.65,0.56-0.65h1.36c1.06,0,1.79,0.15,2.23,0.48c0.29,0.21,0.42,0.92,0.48,1.4
	c0.1,0.12,0.42,0.12,0.5-0.04c-0.06-0.58,0.08-2.13,0.29-2.92c-0.04-0.08-0.25-0.1-0.35-0.06c-0.29,0.5-0.46,0.54-1.5,0.54l-7.79,0
	c-0.88,0-1.52,0.02-1.63-0.6c-0.06-0.06-0.31-0.04-0.36,0c-0.14,0.77-0.42,2-0.73,2.86c0.08,0.15,0.35,0.25,0.5,0.14
	c0.21-0.48,0.4-0.9,0.86-1.33c0.48-0.44,1.54-0.48,2.36-0.48h1.06c0.58,0,0.58,0.02,0.58,0.62V541c0,2.02-0.1,2.31-1.19,2.4
	l-0.69,0.06c-0.15,0.1-0.12,0.42,0,0.48c1.23-0.04,1.9-0.06,2.67-0.06c0.77,0,1.42,0.02,2.52,0.06c0.12-0.06,0.15-0.4,0.04-0.48
	l-0.62-0.06c-1.11-0.12-1.15-0.38-1.15-2.4L211.14,532.45L211.14,532.45z"/>
<path d="M203.34,540.64c0-1.83-1.19-2.94-2.4-3.69l-1.54-0.96c-0.71-0.46-1.63-1.25-1.63-2.36c0-0.88,0.4-2.13,2.29-2.13
	c1.85,0,2.37,1.25,2.62,2.17c0.1,0.11,0.4,0.06,0.48-0.06c0-0.81-0.17-1.88-0.35-2.35c-0.15,0-0.42-0.06-0.67-0.12
	c-0.5-0.15-1.19-0.25-1.79-0.25c-2.5,0-3.92,1.48-3.92,3.3c0,1.58,1.12,2.67,2.08,3.31l1.83,1.19c1.4,0.9,1.58,1.84,1.58,2.69
	c0,1.15-0.79,2.21-2.4,2.21c-2.23,0-3.02-1.88-3.31-2.86c-0.08-0.12-0.37-0.08-0.46,0.06c0.04,0.9,0.29,2.27,0.52,2.69
	c0.37,0.21,1.39,0.71,3,0.71C201.75,544.19,203.34,542.75,203.34,540.64L203.34,540.64z"/>
<path d="M186.07,541c0,2.02-0.1,2.31-1.19,2.4l-0.63,0.06c-0.12,0.12-0.08,0.42,0.04,0.48c1.13-0.04,1.79-0.06,2.61-0.06h1.73
	c1.71,0,3.42,0.02,5.15,0.06c0.25-0.52,0.73-2,0.86-2.67c-0.08-0.17-0.35-0.23-0.48-0.13c-0.5,1-1.02,1.67-1.36,1.86
	c-0.42,0.21-0.98,0.29-2.46,0.29c-1.69,0-2.09-0.21-2.33-0.44c-0.31-0.33-0.37-0.98-0.37-2v-2.71c0-0.5,0.06-0.52,0.63-0.52h1.11
	c0.75,0,1.21,0.02,1.48,0.1c0.38,0.1,0.52,0.38,0.6,0.73l0.17,0.75c0.1,0.12,0.42,0.12,0.5-0.02c0-0.42-0.08-1.15-0.08-1.85
	c0-0.73,0.08-1.48,0.08-1.94c-0.08-0.13-0.4-0.13-0.5-0.02l-0.15,0.79c-0.1,0.48-0.23,0.6-0.46,0.67c-0.23,0.08-0.83,0.12-1.63,0.12
	l-1.11,0c-0.58,0-0.64,0-0.64-0.54v-3.84c0-0.73,0-0.77,0.58-0.77h1.38c0.85,0,1.46,0.02,1.86,0.12c1,0.25,1.17,0.92,1.46,1.83
	c0.1,0.12,0.4,0.08,0.48-0.04c-0.08-0.85-0.19-2.23-0.31-2.56c-0.23,0.06-1.37,0.06-2.6,0.06l-3.61,0c-0.79,0-1.44-0.02-2.27-0.06
	c-0.12,0.06-0.15,0.4-0.04,0.48l0.31,0.04c1.13,0.13,1.17,0.42,1.17,2.42L186.07,541L186.07,541z"/>
<path d="M175.53,541c0,2.02-0.04,2.29-1.15,2.4l-0.58,0.06c-0.12,0.12-0.08,0.42,0.04,0.48c1.08-0.04,1.69-0.06,2.5-0.06h1.77
	c1.98,0,3.81,0.02,4.79,0.06c0.27-0.52,0.81-2.48,0.81-2.69c0-0.13-0.37-0.21-0.48-0.12c-0.38,0.98-0.88,1.67-1.27,1.9
	c-0.31,0.17-0.71,0.25-2.34,0.25c-1.52,0-1.88-0.23-2.1-0.44c-0.35-0.37-0.4-0.87-0.4-2.08l0-6.69c0-2.02,0.04-2.33,1.17-2.42
	l0.46-0.04c0.12-0.08,0.08-0.42-0.04-0.48c-0.96,0.04-1.61,0.06-2.37,0.06c-0.77,0-1.42-0.02-2.5-0.06
	c-0.12,0.06-0.15,0.4-0.04,0.48l0.48,0.04c1.21,0.1,1.25,0.41,1.25,2.42L175.53,541L175.53,541z"/>
<path style="fill-rule:evenodd;clip-rule:evenodd;" d="M169.28,542.03c0.15,0.46,0.25,0.81,0.25,1.02c0,0.19-0.27,0.31-0.67,0.35
	l-0.56,0.06c-0.14,0.1-0.12,0.41,0.04,0.48c0.56-0.02,1.29-0.06,2.21-0.06c0.86,0,1.54,0.02,2.33,0.06c0.1-0.08,0.13-0.38,0-0.48
	l-0.52-0.06c-0.83-0.1-1.08-0.38-1.63-2.04l-2.63-7.73c-0.29-0.84-0.6-1.73-0.85-2.58c-0.04-0.14-0.17-0.17-0.29-0.17
	c-0.21,0.25-0.54,0.6-1,0.73c0.06,0.31-0.06,0.67-0.33,1.37l-1.96,5.19c-0.81,2.15-1.35,3.4-1.69,4.29
	c-0.27,0.69-0.69,0.9-1.15,0.94l-0.63,0.06c-0.12,0.1-0.08,0.4,0.04,0.48c0.52-0.02,1.21-0.06,1.85-0.06c0.9,0.02,1.5,0.02,2,0.06
	c0.17-0.08,0.17-0.38,0.04-0.48l-0.64-0.06c-0.46-0.04-0.56-0.15-0.56-0.38c0-0.21,0.13-0.73,0.42-1.6l0.67-2.02
	c0.13-0.4,0.25-0.46,0.73-0.46h2.9c0.58,0,0.65,0.06,0.79,0.48L169.28,542.03L169.28,542.03z M165.84,534.36
	c0.21-0.58,0.4-1.04,0.46-1.13h0.04c0.12,0.23,0.29,0.75,0.44,1.21l1.04,3.13c0.17,0.52,0.13,0.6-0.42,0.6h-2.36
	c-0.54,0-0.56-0.02-0.4-0.46L165.84,534.36L165.84,534.36z"/>
<path d="M147.6,537.61c0,2.48,1.19,4.23,2.73,5.29c1.4,0.94,3.06,1.29,4.79,1.29c1.23,0,2.61-0.29,3.04-0.44
	c0.21-0.08,0.44-0.15,0.67-0.19c0.29-0.37,0.79-1.63,0.92-2.63c-0.08-0.13-0.37-0.17-0.5-0.08c-0.44,1.13-1.54,2.75-4.02,2.75
	c-3.15,0-5.71-2.23-5.71-6.27c0-3.98,2.5-5.84,5.44-5.84c2.79,0,3.65,1.5,3.94,2.81c0.13,0.12,0.42,0.1,0.52-0.04
	c-0.15-1.17-0.25-2.38-0.27-2.83c-0.17,0.02-0.31-0.02-0.54-0.08c-0.9-0.25-2.36-0.46-3.4-0.46c-2,0-3.79,0.54-5.19,1.63
	C148.56,533.65,147.6,535.48,147.6,537.61L147.6,537.61z"/>
<path style="fill-rule:evenodd;clip-rule:evenodd;" d="M144.54,542.03c0.15,0.46,0.25,0.81,0.25,1.02c0,0.19-0.27,0.31-0.67,0.35
	l-0.56,0.06c-0.14,0.1-0.12,0.4,0.04,0.48c0.56-0.02,1.29-0.06,2.21-0.06c0.86,0,1.54,0.02,2.33,0.06c0.1-0.08,0.13-0.38,0-0.48
	l-0.52-0.06c-0.83-0.1-1.08-0.38-1.63-2.04l-2.63-7.73c-0.29-0.84-0.6-1.73-0.85-2.58c-0.04-0.13-0.17-0.17-0.29-0.17
	c-0.21,0.25-0.54,0.6-1,0.73c0.06,0.31-0.06,0.67-0.33,1.36l-1.96,5.19c-0.81,2.15-1.35,3.4-1.69,4.29
	c-0.27,0.69-0.69,0.9-1.15,0.94l-0.63,0.06c-0.12,0.1-0.08,0.4,0.04,0.48c0.52-0.02,1.21-0.06,1.85-0.06c0.9,0.02,1.5,0.02,2,0.06
	c0.17-0.08,0.17-0.38,0.04-0.48l-0.63-0.06c-0.46-0.04-0.56-0.15-0.56-0.39c0-0.21,0.13-0.73,0.42-1.59l0.67-2.02
	c0.13-0.4,0.25-0.46,0.73-0.46l2.9,0c0.58,0,0.65,0.06,0.79,0.48L144.54,542.03L144.54,542.03z M141.09,534.36
	c0.21-0.58,0.4-1.04,0.46-1.13h0.04c0.11,0.23,0.29,0.75,0.44,1.21l1.04,3.13c0.17,0.52,0.13,0.6-0.42,0.6l-2.36,0
	c-0.54,0-0.56-0.02-0.4-0.46L141.09,534.36L141.09,534.36z"/>
<path d="M120.18,531.7c-0.76-1.56-1.37-3.08-1.27-4.03c-0.81,0.07-1.47,0.07-2.03,0.07c-0.61,0-1.2-0.02-1.93-0.07
	c-0.2,0.1-0.22,0.46-0.1,0.61l0.39,0.05c1.49,0.24,1.69,0.56,1.64,2.1c-0.05,1.34-0.15,3.42-0.27,5.45
	c-0.15,2.42-0.27,3.76-0.41,5.38c-0.15,1.71-0.49,1.88-1.52,2l-0.54,0.07c-0.15,0.12-0.1,0.49,0.05,0.61
	c0.83-0.05,1.71-0.07,2.49-0.07c0.93,0,1.88,0.02,2.71,0.07c0.17-0.07,0.2-0.46,0.02-0.61l-0.93-0.08c-0.95-0.07-1.1-0.46-1.1-2.27
	c0-2.08,0.1-4.25,0.17-5.74c0.07-1.42,0.15-2.83,0.24-4.35h0.05c0.54,1.12,1.05,2.4,1.56,3.52l2.2,4.72
	c0.56,1.2,1.74,3.59,2.15,4.89c0.05,0.07,0.17,0.1,0.22,0.1c0.1,0,0.2-0.02,0.24-0.1c0.44-1.12,1.54-3.42,2.64-5.57l2.17-4.28
	c0.49-0.95,1.42-2.91,1.59-3.18h0.05l0.07,10.19c0,1.56,0,1.95-1.2,2.08l-0.71,0.08c-0.15,0.15-0.12,0.49,0.05,0.61
	c1-0.05,2.1-0.07,2.96-0.07c0.88,0,1.88,0.03,2.88,0.07c0.17-0.1,0.2-0.46,0.05-0.61l-0.78-0.07c-1.15-0.12-1.12-0.76-1.2-1.98
	c-0.2-3.52-0.22-8.04-0.27-10.63c-0.02-1.71,0.17-2.15,1.71-2.32l0.51-0.05c0.12-0.1,0.12-0.51-0.02-0.61
	c-0.76,0.05-1.56,0.07-2.18,0.07c-0.49,0-1,0-1.83-0.07c-0.05,1.12-0.73,2.47-1.86,4.69l-2.3,4.67c-0.61,1.25-1.22,2.52-1.88,3.67
	h-0.05c-0.59-1.08-1.12-2.2-1.69-3.35L120.18,531.7L120.18,531.7z"/>
<path d="M99.12,550.34c0.46-0.33,1.08-0.8,1.77-1.36L97,545.09l0.94-0.93l3.96,3.96c0.53-0.47,1.07-0.98,1.6-1.54l-3.99-3.99
	l2.24-2.24l3.76,3.76c0.44-0.66,0.82-1.34,1.1-2.03l-3.3-3.3l1-1l2.75,2.75c0.05-0.32,0.08-0.63,0.08-0.95l0-2.1l-1.26-1.26
	l1.26-1.26l-0.01-3.13l-2.82,2.82l-0.94-0.94l3.75-3.75l-0.01-2.52h-0.61l-4.7,4.7l-2.25-2.25l2.46-2.46h-3.13l-0.89,0.89
	l-0.89-0.89h-3.36l-0.89,0.89l-0.89-0.89h-2.49c0,0,0,0.24,0,0.64l1.81,1.81l-1.83,1.83c-0.01,1.29-0.01,2.69-0.02,3.93l0.61,0.61
	l-0.62,0.62c0,1.44,0,2.45,0.01,2.45c0,0.51,0.07,1.01,0.2,1.52l1.72,1.72l-0.71,0.71c0.37,0.64,0.8,1.26,1.27,1.86l1-1l0.94,0.94
	l-1.08,1.08c0.51,0.56,1.03,1.1,1.55,1.58l1.1-1.1L99.12,550.34z M97.93,541.03l-0.94-0.94l2.24-2.24l0.94,0.94L97.93,541.03z
	 M101.79,535.28l0.94,0.94l-1,1l-0.94-0.94L101.79,535.28z M97.98,531.47l2.25,2.25l-1,1l-2.25-2.25L97.98,531.47z M95.41,528.9l1,1
	l-1,1l-1-1L95.41,528.9z M92.85,531.47l1,1l-2.24,2.24l-1-1L92.85,531.47z M92.93,541.02l-2.25-2.25l0.93-0.93l2.25,2.25
	L92.93,541.02z M93.18,536.27l2.24-2.24l2.25,2.25l-2.24,2.24L93.18,536.27z M94.49,542.59l0.93-0.93l0.94,0.94l-0.94,0.94
	L94.49,542.59z"/>
<path style="fill-rule:evenodd;clip-rule:evenodd;" d="M251.42,942.35c0,1.57-0.03,1.77-0.9,1.88l-0.38,0.04
	c-0.09,0.1-0.06,0.33,0.03,0.38c0.71-0.03,1.25-0.04,1.88-0.04c0.6,0,1.11,0.01,1.78,0.05c0.09-0.05,0.12-0.3,0.03-0.38l-0.31-0.04
	c-0.87-0.12-0.9-0.3-0.9-1.88v-1.89c0-0.31,0.03-0.33,0.7-0.33c0.6,0,0.84,0.15,1.06,0.48c0.46,0.67,1.08,1.71,1.47,2.26
	c1.06,1.51,1.83,1.89,3.1,1.89c0.29,0,0.52-0.03,0.66-0.07c0.08-0.06,0.06-0.18-0.01-0.21c-0.41-0.03-0.78-0.2-1.04-0.42
	c-1.02-0.86-1.81-2.05-3.01-3.99c-0.07-0.12-0.15-0.27-0.08-0.36c0.75-0.3,1.87-1.08,1.87-2.5c0-1.05-0.52-1.72-1.24-2.1
	c-0.69-0.37-1.57-0.45-2.5-0.45c-1.47,0-2.5,0.04-3.34,0.12c-0.12,0.06-0.12,0.3-0.01,0.37l0.48,0.06c0.61,0.08,0.66,0.33,0.66,1.75
	V942.35L251.42,942.35z M252.65,935.61c0-0.42,0.05-0.48,0.97-0.48c1.66,0,2.4,1.12,2.4,2.31c0,1.02-0.34,1.54-0.75,1.86
	c-0.43,0.33-1,0.39-1.54,0.39c-0.76,0-0.99-0.03-1.03-0.07c-0.04-0.06-0.04-0.23-0.04-0.5L252.65,935.61L252.65,935.61z"/>
<path d="M242.73,942.35c0,1.57-0.07,1.8-0.93,1.87l-0.49,0.04c-0.09,0.09-0.06,0.33,0.03,0.37c0.88-0.03,1.39-0.04,2.04-0.04h1.35
	c1.33,0,2.67,0.02,4.02,0.05c0.2-0.41,0.57-1.56,0.68-2.08c-0.06-0.13-0.27-0.18-0.38-0.11c-0.39,0.78-0.79,1.3-1.06,1.45
	c-0.33,0.17-0.76,0.22-1.92,0.22c-1.32,0-1.63-0.17-1.81-0.34c-0.24-0.26-0.28-0.76-0.28-1.56v-2.11c0-0.39,0.04-0.41,0.49-0.41
	h0.87c0.58,0,0.94,0.02,1.15,0.08c0.3,0.07,0.4,0.3,0.46,0.57l0.13,0.58c0.08,0.09,0.33,0.09,0.39-0.02c0-0.33-0.06-0.9-0.06-1.44
	c0-0.57,0.06-1.15,0.06-1.51c-0.06-0.1-0.32-0.1-0.39-0.02l-0.12,0.62c-0.08,0.38-0.18,0.46-0.36,0.52
	c-0.18,0.06-0.64,0.09-1.27,0.09h-0.87c-0.45,0-0.49,0-0.49-0.42l0-3c0-0.57,0-0.6,0.45-0.6h1.08c0.66,0,1.14,0.02,1.45,0.09
	c0.78,0.19,0.91,0.72,1.14,1.42c0.08,0.09,0.32,0.06,0.38-0.03c-0.06-0.66-0.15-1.74-0.24-1.99c-0.18,0.04-1.06,0.04-2.02,0.04
	h-2.82c-0.62,0-1.12-0.02-1.77-0.05c-0.09,0.05-0.12,0.32-0.03,0.37l0.24,0.03c0.88,0.11,0.91,0.33,0.91,1.89V942.35L242.73,942.35z
	"/>
<path d="M236.51,935.68c0-0.49-0.01-0.51,0.43-0.51h1.06c0.82,0,1.39,0.12,1.74,0.38c0.23,0.17,0.33,0.72,0.38,1.09
	c0.08,0.09,0.33,0.09,0.39-0.03c-0.05-0.45,0.06-1.67,0.22-2.28c-0.03-0.06-0.2-0.08-0.27-0.04c-0.23,0.39-0.36,0.42-1.17,0.42
	l-6.07,0c-0.69,0-1.18,0.01-1.27-0.47c-0.04-0.04-0.24-0.03-0.28,0c-0.11,0.6-0.33,1.56-0.57,2.23c0.06,0.12,0.27,0.19,0.39,0.1
	c0.17-0.38,0.32-0.7,0.67-1.03c0.38-0.34,1.2-0.37,1.84-0.37h0.83c0.45,0,0.45,0.01,0.45,0.48l0,6.7c0,1.57-0.08,1.8-0.93,1.87
	l-0.54,0.04c-0.12,0.07-0.09,0.33,0,0.38c0.96-0.03,1.48-0.05,2.08-0.05s1.11,0.02,1.96,0.05c0.09-0.04,0.12-0.32,0.03-0.37
	l-0.48-0.05c-0.87-0.09-0.9-0.3-0.9-1.87V935.68L236.51,935.68z"/>
<path d="M230.44,942.07c0-1.42-0.93-2.29-1.88-2.88l-1.2-0.75c-0.55-0.36-1.27-0.97-1.27-1.84c0-0.69,0.32-1.67,1.79-1.66
	c1.44,0,1.84,0.97,2.04,1.69c0.08,0.09,0.32,0.04,0.38-0.04c0-0.63-0.13-1.47-0.27-1.83c-0.12,0-0.33-0.05-0.52-0.09
	c-0.39-0.12-0.93-0.19-1.39-0.19c-1.95,0-3.06,1.16-3.06,2.58c0,1.23,0.87,2.08,1.62,2.58l1.43,0.93c1.09,0.7,1.23,1.44,1.23,2.1
	c0,0.9-0.62,1.72-1.88,1.72c-1.74,0-2.35-1.47-2.58-2.23c-0.06-0.09-0.29-0.06-0.36,0.04c0.03,0.7,0.22,1.77,0.4,2.1
	c0.29,0.16,1.08,0.55,2.34,0.55C229.19,944.84,230.44,943.72,230.44,942.07L230.44,942.07z"/>
<path d="M216.97,942.35c0,1.57-0.07,1.8-0.93,1.87l-0.49,0.04c-0.09,0.09-0.06,0.33,0.03,0.38c0.88-0.03,1.39-0.04,2.04-0.04h1.35
	c1.33,0,2.67,0.02,4.02,0.05c0.19-0.4,0.57-1.56,0.67-2.08c-0.06-0.13-0.27-0.18-0.38-0.11c-0.39,0.78-0.79,1.3-1.06,1.45
	c-0.33,0.16-0.76,0.22-1.92,0.22c-1.32,0-1.63-0.16-1.81-0.34c-0.24-0.25-0.29-0.76-0.29-1.56v-2.11c0-0.39,0.04-0.4,0.49-0.4h0.87
	c0.58,0,0.94,0.02,1.15,0.08c0.3,0.08,0.41,0.3,0.46,0.57l0.13,0.58c0.08,0.09,0.33,0.09,0.39-0.01c0-0.33-0.06-0.9-0.06-1.44
	c0-0.57,0.06-1.16,0.06-1.51c-0.06-0.1-0.31-0.1-0.39-0.01l-0.12,0.61c-0.08,0.38-0.18,0.46-0.36,0.52
	c-0.18,0.06-0.64,0.09-1.27,0.09h-0.87c-0.45,0-0.49,0-0.49-0.42v-3c0-0.57,0-0.6,0.45-0.6h1.08c0.66,0,1.14,0.01,1.45,0.09
	c0.78,0.19,0.91,0.72,1.14,1.42c0.07,0.09,0.31,0.06,0.37-0.03c-0.06-0.66-0.15-1.74-0.24-1.99c-0.18,0.04-1.06,0.04-2.02,0.04
	h-2.82c-0.62,0-1.12-0.02-1.77-0.04c-0.09,0.04-0.12,0.31-0.03,0.37l0.24,0.03c0.88,0.1,0.91,0.33,0.91,1.89V942.35L216.97,942.35z"
	/>
<path d="M208.75,942.35c0,1.57-0.03,1.78-0.9,1.87l-0.45,0.04c-0.09,0.09-0.06,0.33,0.03,0.37c0.84-0.03,1.32-0.04,1.95-0.04h1.38
	c1.54,0,2.97,0.02,3.73,0.04c0.21-0.4,0.63-1.93,0.63-2.1c0-0.1-0.29-0.17-0.38-0.09c-0.3,0.76-0.69,1.3-0.99,1.48
	c-0.24,0.13-0.55,0.19-1.83,0.19c-1.18,0-1.47-0.18-1.63-0.34c-0.27-0.28-0.31-0.67-0.31-1.62v-5.22c0-1.57,0.03-1.81,0.91-1.89
	l0.36-0.03c0.09-0.06,0.06-0.33-0.03-0.37c-0.75,0.03-1.26,0.04-1.84,0.04c-0.6,0-1.11-0.02-1.95-0.04
	c-0.09,0.04-0.12,0.31-0.03,0.37l0.38,0.03c0.94,0.07,0.97,0.31,0.97,1.89L208.75,942.35L208.75,942.35z"/>
<path style="fill-rule:evenodd;clip-rule:evenodd;" d="M203.87,943.16c0.12,0.36,0.19,0.63,0.19,0.79c0,0.15-0.21,0.24-0.52,0.27
	l-0.43,0.04c-0.1,0.08-0.09,0.32,0.03,0.38c0.43-0.02,1-0.04,1.72-0.04c0.67,0,1.2,0.02,1.81,0.04c0.07-0.06,0.1-0.3,0-0.38
	l-0.41-0.04c-0.64-0.08-0.84-0.3-1.27-1.59l-2.05-6.03c-0.23-0.66-0.47-1.35-0.66-2.01c-0.03-0.11-0.14-0.14-0.23-0.14
	c-0.16,0.2-0.42,0.47-0.78,0.57c0.04,0.24-0.05,0.52-0.26,1.06l-1.53,4.05c-0.63,1.68-1.05,2.65-1.32,3.34
	c-0.21,0.54-0.54,0.7-0.9,0.73l-0.49,0.04c-0.09,0.07-0.06,0.31,0.03,0.38c0.4-0.02,0.94-0.04,1.44-0.04
	c0.7,0.01,1.17,0.01,1.56,0.04c0.13-0.06,0.13-0.3,0.03-0.38l-0.5-0.04c-0.36-0.03-0.44-0.12-0.44-0.3c0-0.16,0.1-0.57,0.33-1.24
	l0.52-1.57c0.1-0.32,0.19-0.36,0.57-0.36h2.26c0.45,0,0.51,0.04,0.61,0.37L203.87,943.16L203.87,943.16z M201.19,937.18
	c0.17-0.45,0.31-0.81,0.36-0.88h0.03c0.09,0.18,0.22,0.58,0.34,0.94l0.81,2.44c0.14,0.4,0.1,0.46-0.33,0.46h-1.84
	c-0.42,0-0.44-0.02-0.31-0.36L201.19,937.18L201.19,937.18z"/>
<path d="M186.96,939.71c0,1.93,0.93,3.3,2.13,4.12c1.09,0.73,2.38,1,3.73,1c0.96,0,2.04-0.23,2.37-0.34
	c0.17-0.06,0.34-0.12,0.52-0.15c0.22-0.28,0.61-1.27,0.72-2.05c-0.06-0.11-0.28-0.13-0.39-0.06c-0.35,0.88-1.2,2.14-3.13,2.14
	c-2.46,0-4.45-1.74-4.45-4.89c0-3.1,1.95-4.56,4.24-4.56c2.17,0,2.85,1.17,3.07,2.19c0.1,0.09,0.33,0.08,0.4-0.03
	c-0.12-0.91-0.19-1.86-0.21-2.2c-0.14,0.02-0.24-0.01-0.42-0.06c-0.7-0.19-1.84-0.36-2.65-0.36c-1.56,0-2.95,0.42-4.05,1.27
	C187.71,936.62,186.96,938.05,186.96,939.71L186.96,939.71z"/>
<path style="fill-rule:evenodd;clip-rule:evenodd;" d="M184.58,943.16c0.12,0.36,0.19,0.63,0.19,0.79c0,0.15-0.21,0.24-0.52,0.27
	l-0.43,0.04c-0.1,0.08-0.09,0.32,0.03,0.38c0.43-0.01,1-0.04,1.72-0.04c0.67,0,1.2,0.01,1.81,0.04c0.08-0.06,0.1-0.3,0-0.38
	l-0.4-0.04c-0.64-0.08-0.84-0.3-1.27-1.59l-2.05-6.03c-0.23-0.66-0.46-1.35-0.66-2.01c-0.03-0.11-0.14-0.14-0.23-0.14
	c-0.16,0.2-0.42,0.46-0.78,0.57c0.05,0.24-0.04,0.52-0.25,1.06l-1.53,4.05c-0.63,1.68-1.05,2.65-1.32,3.34
	c-0.21,0.54-0.54,0.7-0.9,0.73l-0.49,0.05c-0.09,0.08-0.06,0.31,0.03,0.37c0.41-0.01,0.94-0.04,1.44-0.04
	c0.71,0.02,1.17,0.02,1.56,0.04c0.13-0.06,0.13-0.3,0.03-0.37l-0.49-0.05c-0.36-0.03-0.44-0.12-0.44-0.3c0-0.17,0.1-0.57,0.33-1.24
	l0.52-1.57c0.1-0.31,0.19-0.36,0.57-0.36l2.26,0c0.45,0,0.51,0.04,0.61,0.38L184.58,943.16L184.58,943.16z M181.89,937.18
	c0.16-0.45,0.31-0.81,0.36-0.88h0.03c0.09,0.18,0.22,0.58,0.35,0.94l0.81,2.44c0.13,0.41,0.1,0.46-0.33,0.46h-1.84
	c-0.42,0-0.43-0.01-0.31-0.36L181.89,937.18L181.89,937.18z"/>
<path d="M165.58,935.1c-0.59-1.22-1.07-2.4-0.99-3.14c-0.63,0.06-1.14,0.06-1.58,0.06c-0.48,0-0.93-0.02-1.51-0.06
	c-0.15,0.08-0.17,0.36-0.08,0.48l0.3,0.04c1.16,0.19,1.31,0.44,1.28,1.64c-0.04,1.05-0.11,2.67-0.21,4.25
	c-0.11,1.89-0.21,2.93-0.32,4.19c-0.11,1.33-0.38,1.47-1.18,1.56l-0.42,0.06c-0.11,0.09-0.08,0.38,0.04,0.48
	c0.65-0.04,1.33-0.06,1.94-0.06c0.72,0,1.47,0.02,2.11,0.06c0.13-0.06,0.15-0.36,0.02-0.48l-0.72-0.06
	c-0.74-0.06-0.86-0.36-0.86-1.77c0-1.62,0.08-3.31,0.13-4.48c0.06-1.1,0.11-2.21,0.19-3.39h0.04c0.42,0.88,0.82,1.87,1.22,2.74
	l1.72,3.68c0.44,0.93,1.35,2.8,1.68,3.81c0.04,0.06,0.13,0.08,0.17,0.08c0.08,0,0.15-0.02,0.19-0.08c0.34-0.88,1.2-2.67,2.06-4.34
	l1.7-3.33c0.38-0.74,1.1-2.27,1.24-2.48h0.04l0.06,7.95c0,1.22,0,1.52-0.93,1.62l-0.55,0.06c-0.11,0.12-0.1,0.38,0.04,0.48
	c0.78-0.04,1.64-0.06,2.31-0.06c0.69,0,1.47,0.02,2.25,0.06c0.13-0.08,0.15-0.36,0.04-0.48l-0.61-0.06c-0.9-0.1-0.88-0.59-0.93-1.54
	c-0.15-2.74-0.17-6.27-0.21-8.29c-0.02-1.33,0.13-1.68,1.33-1.81l0.4-0.04c0.1-0.08,0.1-0.4-0.02-0.48
	c-0.59,0.04-1.22,0.06-1.7,0.06c-0.38,0-0.78,0-1.43-0.06c-0.04,0.88-0.57,1.92-1.45,3.66l-1.79,3.64
	c-0.48,0.97-0.95,1.96-1.47,2.86h-0.04c-0.46-0.84-0.88-1.71-1.32-2.61L165.58,935.1L165.58,935.1z"/>
<path d="M211.27,989.79c0.69-0.51,1.56-1.18,2.51-1.97l-5.51-5.51l1.34-1.34l5.6,5.6c0.75-0.68,1.52-1.43,2.25-2.23l-5.61-5.61
	l3.2-3.2l5.23,5.23c0.62-0.97,1.13-1.97,1.5-2.99l-4.49-4.49l1.43-1.43l3.59,3.59c0.02-0.25,0.03-0.49,0.03-0.74l-0.01-3.72
	l-1.38-1.37l1.37-1.37l-0.01-4.47l-3.6,3.6l-1.34-1.34l4.93-4.93l-0.01-3.73h-0.74l-6.42,6.42l-3.21-3.21l3.22-3.22h-4.48
	l-0.98,0.98l-0.98-0.98h-5.38l-0.98,0.98l-0.98-0.98h-4.25c0,0,0,0.08,0,0.23l2.99,2.99l-3.02,3.02c-0.01,1.58-0.01,3.26-0.02,4.83
	l1.27,1.27l-1.28,1.28c0,1.99,0,3.38,0.01,3.38c0,0.45,0.04,0.9,0.12,1.34l3.02,3.02l-1.36,1.36c0.53,0.91,1.15,1.8,1.83,2.65
	l1.77-1.77l1.34,1.34l-1.88,1.88c0.73,0.81,1.48,1.56,2.22,2.26l1.9-1.9L211.27,989.79z M209.6,976.49l-1.34-1.34l3.2-3.2l1.34,1.34
	L209.6,976.49z M215.14,968.28l1.34,1.34l-1.43,1.43l-1.34-1.34L215.14,968.28z M209.69,962.84l3.21,3.2l-1.43,1.43l-3.21-3.21
	L209.69,962.84z M206.02,959.16l1.43,1.43l-1.43,1.43l-1.43-1.43L206.02,959.16z M202.35,962.83l1.43,1.43l-3.2,3.2l-1.43-1.43
	L202.35,962.83z M202.45,976.49l-3.2-3.2l1.34-1.34l3.21,3.21L202.45,976.49z M202.82,969.71l3.2-3.2l3.21,3.2l-3.2,3.2
	L202.82,969.71z M204.69,978.73l1.34-1.34l1.34,1.34l-1.34,1.34L204.69,978.73z"/>
<path style="display:none;fill:none;" d="M171.45,307.53l85.09,0l0.14,58.6c0,27.17-42.83,54.76-42.83,54.76
	s-42.57-28.21-42.57-55.93C171.14,364.94,171.45,307.53,171.45,307.53L171.45,307.53z"/>
<path style="fill-rule:evenodd;clip-rule:evenodd;" d="M300.29,235.26c0,3.37-0.06,3.79-1.92,4.01l-0.8,0.1
	c-0.19,0.23-0.13,0.71,0.07,0.8c1.51-0.06,2.66-0.1,4.01-0.1c1.29,0,2.38,0.03,3.82,0.1c0.19-0.1,0.26-0.64,0.06-0.8l-0.67-0.1
	c-1.86-0.26-1.93-0.64-1.93-4.01v-4.04c0-0.67,0.07-0.71,1.51-0.71c1.28,0,1.8,0.32,2.28,1.03c0.99,1.44,2.31,3.66,3.14,4.85
	c2.28,3.24,3.92,4.05,6.65,4.05c0.61,0,1.12-0.06,1.41-0.16c0.16-0.13,0.13-0.39-0.03-0.45c-0.87-0.06-1.67-0.42-2.21-0.9
	c-2.18-1.83-3.88-4.4-6.45-8.54c-0.16-0.26-0.32-0.58-0.16-0.77c1.61-0.64,4.01-2.31,4.01-5.36c0-2.25-1.12-3.69-2.66-4.49
	c-1.48-0.8-3.37-0.96-5.36-0.96c-3.15,0-5.36,0.1-7.16,0.26c-0.26,0.13-0.26,0.64-0.03,0.8l1.03,0.13c1.32,0.16,1.41,0.71,1.41,3.75
	V235.26L300.29,235.26z M302.93,220.82c0-0.9,0.09-1.03,2.08-1.03c3.56,0,5.13,2.41,5.13,4.94c0,2.18-0.74,3.31-1.6,3.98
	c-0.93,0.71-2.15,0.83-3.3,0.83c-1.63,0-2.12-0.06-2.22-0.16c-0.09-0.13-0.09-0.48-0.09-1.06V220.82L302.93,220.82z"/>
<path d="M281.66,235.26c0,3.37-0.16,3.85-1.99,4.01l-1.06,0.1c-0.19,0.19-0.13,0.71,0.07,0.8c1.89-0.06,2.99-0.1,4.37-0.1h2.89
	c2.86,0,5.71,0.03,8.6,0.1c0.42-0.87,1.22-3.34,1.45-4.46c-0.13-0.29-0.58-0.39-0.8-0.22c-0.83,1.67-1.7,2.79-2.28,3.11
	c-0.71,0.35-1.64,0.48-4.11,0.48c-2.82,0-3.5-0.35-3.88-0.74c-0.51-0.55-0.61-1.64-0.61-3.34v-4.52c0-0.84,0.1-0.87,1.06-0.87h1.86
	c1.25,0,2.03,0.03,2.47,0.16c0.64,0.16,0.87,0.64,0.99,1.22l0.29,1.25c0.16,0.19,0.71,0.19,0.83-0.03c0-0.71-0.13-1.92-0.13-3.08
	c0-1.22,0.13-2.47,0.13-3.24c-0.13-0.22-0.68-0.22-0.83-0.03l-0.26,1.32c-0.16,0.8-0.39,1-0.77,1.12c-0.38,0.13-1.38,0.19-2.73,0.19
	h-1.86c-0.96,0-1.06,0-1.06-0.9l0-6.42c0-1.22,0-1.28,0.96-1.28h2.31c1.41,0,2.44,0.03,3.11,0.19c1.67,0.42,1.96,1.54,2.44,3.05
	c0.16,0.19,0.68,0.13,0.8-0.07c-0.13-1.41-0.32-3.72-0.52-4.27c-0.38,0.1-2.28,0.1-4.33,0.1l-6.03,0c-1.31,0-2.41-0.03-3.79-0.1
	c-0.19,0.1-0.26,0.67-0.07,0.8l0.51,0.06c1.89,0.23,1.96,0.71,1.96,4.04V235.26L281.66,235.26z"/>
<path d="M268.29,220.97c0-1.06-0.03-1.09,0.93-1.09l2.28,0c1.77,0,2.98,0.26,3.72,0.8c0.48,0.35,0.71,1.54,0.8,2.34
	c0.16,0.19,0.71,0.19,0.83-0.06c-0.1-0.96,0.13-3.56,0.48-4.88c-0.06-0.13-0.42-0.16-0.58-0.1c-0.48,0.83-0.77,0.9-2.5,0.9l-13,0
	c-1.48,0-2.54,0.03-2.73-1c-0.1-0.1-0.51-0.06-0.61,0c-0.23,1.28-0.7,3.34-1.22,4.78c0.13,0.26,0.58,0.42,0.83,0.22
	c0.35-0.8,0.67-1.51,1.44-2.21c0.8-0.74,2.57-0.8,3.95-0.8h1.76c0.96,0,0.96,0.03,0.96,1.03l0,14.35c0,3.37-0.16,3.85-1.99,4.01
	l-1.16,0.1c-0.26,0.16-0.19,0.71,0,0.8c2.05-0.06,3.18-0.1,4.46-0.1c1.29,0,2.38,0.03,4.21,0.1c0.19-0.1,0.26-0.67,0.06-0.8
	l-1.03-0.1c-1.86-0.19-1.93-0.64-1.93-4.01V220.97L268.29,220.97z"/>
<path d="M255.26,234.64c0-3.05-1.99-4.91-4.01-6.16l-2.57-1.61c-1.19-0.77-2.73-2.09-2.73-3.95c0-1.48,0.67-3.56,3.82-3.56
	c3.08,0,3.95,2.08,4.37,3.62c0.16,0.19,0.67,0.1,0.8-0.1c0-1.35-0.29-3.14-0.58-3.92c-0.26,0-0.7-0.1-1.12-0.19
	c-0.83-0.26-1.99-0.42-2.99-0.42c-4.17,0-6.54,2.47-6.54,5.52c0,2.63,1.86,4.46,3.47,5.52l3.05,1.99c2.34,1.51,2.63,3.08,2.63,4.49
	c0,1.93-1.32,3.69-4.01,3.69c-3.72,0-5.04-3.15-5.52-4.78c-0.13-0.19-0.61-0.13-0.77,0.1c0.07,1.51,0.48,3.79,0.87,4.49
	c0.61,0.35,2.31,1.19,5.01,1.19C252.59,240.58,255.26,238.18,255.26,234.64L255.26,234.64z"/>
<path d="M226.38,235.25c0,3.37-0.16,3.85-1.99,4.01l-1.06,0.1c-0.19,0.19-0.12,0.71,0.07,0.8c1.89-0.06,2.99-0.1,4.37-0.1h2.89
	c2.86,0,5.71,0.03,8.6,0.1c0.42-0.87,1.22-3.34,1.45-4.46c-0.13-0.29-0.58-0.38-0.8-0.22c-0.83,1.67-1.7,2.79-2.28,3.11
	c-0.71,0.35-1.64,0.48-4.11,0.48c-2.82,0-3.5-0.35-3.88-0.74c-0.51-0.54-0.61-1.64-0.61-3.34v-4.52c0-0.84,0.1-0.87,1.06-0.87h1.86
	c1.25,0,2.02,0.03,2.47,0.16c0.64,0.16,0.87,0.64,1,1.22l0.29,1.25c0.16,0.19,0.71,0.19,0.83-0.03c0-0.71-0.13-1.92-0.13-3.08
	c0-1.22,0.13-2.47,0.13-3.24c-0.13-0.23-0.67-0.23-0.84-0.03l-0.26,1.32c-0.16,0.8-0.38,0.99-0.77,1.12
	c-0.38,0.13-1.38,0.19-2.73,0.19h-1.86c-0.96,0-1.06,0-1.06-0.9l0-6.42c0-1.22,0-1.28,0.96-1.28h2.31c1.41,0,2.44,0.03,3.12,0.19
	c1.67,0.42,1.96,1.54,2.44,3.05c0.16,0.19,0.68,0.13,0.8-0.06c-0.13-1.41-0.32-3.72-0.51-4.27c-0.38,0.1-2.28,0.1-4.33,0.1h-6.04
	c-1.32,0-2.41-0.03-3.79-0.1c-0.19,0.1-0.26,0.67-0.07,0.8l0.51,0.06c1.89,0.23,1.96,0.71,1.96,4.04L226.38,235.25L226.38,235.25z"
	/>
<path d="M208.75,235.25c0,3.37-0.06,3.82-1.92,4.01l-0.96,0.1c-0.19,0.19-0.13,0.71,0.06,0.8c1.8-0.06,2.83-0.1,4.17-0.1l2.95,0
	c3.31,0,6.36,0.03,7.99,0.1c0.45-0.87,1.35-4.14,1.35-4.49c0-0.22-0.61-0.35-0.8-0.19c-0.64,1.64-1.48,2.79-2.12,3.18
	c-0.51,0.29-1.19,0.42-3.91,0.42c-2.54,0-3.15-0.38-3.5-0.74c-0.58-0.61-0.67-1.45-0.67-3.47l0-11.17c0-3.37,0.06-3.88,1.96-4.04
	l0.77-0.06c0.19-0.13,0.13-0.71-0.07-0.8c-1.6,0.06-2.69,0.1-3.95,0.1c-1.28,0-2.38-0.03-4.17-0.1c-0.19,0.1-0.26,0.67-0.06,0.8
	l0.8,0.06c2.02,0.16,2.09,0.68,2.09,4.05L208.75,235.25L208.75,235.25z"/>
<path style="fill-rule:evenodd;clip-rule:evenodd;" d="M198.27,236.98c0.26,0.77,0.42,1.35,0.42,1.7c0,0.32-0.45,0.51-1.12,0.58
	l-0.93,0.1c-0.22,0.16-0.19,0.67,0.07,0.8c0.93-0.03,2.15-0.1,3.69-0.1c1.44,0,2.57,0.03,3.88,0.1c0.16-0.13,0.22-0.64,0-0.8
	l-0.87-0.1c-1.38-0.16-1.8-0.64-2.73-3.4l-4.4-12.9c-0.48-1.41-1-2.89-1.41-4.3c-0.06-0.22-0.29-0.29-0.48-0.29
	c-0.35,0.42-0.9,0.99-1.67,1.22c0.1,0.51-0.1,1.12-0.54,2.28l-3.27,8.67c-1.35,3.59-2.25,5.68-2.82,7.16
	c-0.45,1.15-1.16,1.51-1.93,1.57l-1.06,0.1c-0.19,0.16-0.13,0.68,0.06,0.8c0.87-0.03,2.02-0.1,3.08-0.1c1.51,0.03,2.5,0.03,3.34,0.1
	c0.29-0.13,0.29-0.64,0.06-0.8l-1.06-0.1c-0.77-0.06-0.93-0.26-0.93-0.64c0-0.35,0.23-1.22,0.71-2.67l1.12-3.37
	c0.22-0.67,0.42-0.77,1.22-0.77l4.85,0c0.96,0,1.09,0.1,1.32,0.8L198.27,236.98L198.27,236.98z M192.53,224.17
	c0.35-0.96,0.67-1.73,0.77-1.89h0.06c0.19,0.38,0.48,1.25,0.74,2.02l1.73,5.23c0.29,0.87,0.23,0.99-0.71,0.99h-3.95
	c-0.9,0-0.93-0.03-0.67-0.77L192.53,224.17L192.53,224.17z"/>
<path d="M162.03,229.59c0,4.14,1.99,7.06,4.56,8.83c2.34,1.57,5.1,2.15,7.99,2.15c2.05,0,4.36-0.48,5.07-0.74
	c0.35-0.13,0.74-0.26,1.12-0.32c0.48-0.61,1.31-2.73,1.54-4.4c-0.13-0.23-0.61-0.29-0.83-0.13c-0.74,1.89-2.57,4.59-6.71,4.59
	c-5.26,0-9.53-3.72-9.53-10.46c0-6.64,4.17-9.75,9.08-9.75c4.65,0,6.1,2.5,6.58,4.69c0.22,0.19,0.71,0.16,0.87-0.06
	c-0.26-1.96-0.42-3.98-0.45-4.72c-0.29,0.03-0.51-0.03-0.9-0.13c-1.51-0.42-3.95-0.77-5.68-0.77c-3.34,0-6.32,0.9-8.67,2.73
	C163.63,222.98,162.03,226.03,162.03,229.59L162.03,229.59z"/>
<path style="fill-rule:evenodd;clip-rule:evenodd;" d="M156.88,236.97c0.26,0.77,0.42,1.35,0.42,1.7c0,0.32-0.45,0.51-1.12,0.58
	l-0.93,0.1c-0.22,0.16-0.19,0.67,0.06,0.8c0.93-0.03,2.15-0.1,3.69-0.1c1.44,0,2.57,0.03,3.88,0.1c0.16-0.13,0.23-0.64,0-0.8
	l-0.87-0.1c-1.38-0.16-1.8-0.64-2.73-3.4l-4.4-12.9c-0.48-1.41-1-2.89-1.41-4.3c-0.06-0.22-0.29-0.29-0.48-0.29
	c-0.35,0.42-0.9,0.99-1.67,1.22c0.1,0.51-0.1,1.12-0.55,2.28l-3.27,8.66c-1.35,3.6-2.24,5.68-2.82,7.16
	c-0.45,1.15-1.16,1.51-1.93,1.57l-1.06,0.1c-0.19,0.16-0.13,0.67,0.06,0.8c0.87-0.03,2.02-0.1,3.08-0.1c1.51,0.03,2.5,0.03,3.34,0.1
	c0.29-0.13,0.29-0.64,0.06-0.8l-1.06-0.1c-0.77-0.06-0.93-0.26-0.93-0.64c0-0.35,0.23-1.22,0.71-2.66l1.12-3.37
	c0.22-0.67,0.42-0.77,1.22-0.77l4.84,0c0.96,0,1.09,0.1,1.32,0.8L156.88,236.97L156.88,236.97z M151.14,224.17
	c0.35-0.96,0.67-1.73,0.77-1.89h0.06c0.19,0.39,0.48,1.25,0.74,2.02l1.73,5.23c0.29,0.87,0.22,1-0.71,1l-3.95,0
	c-0.9,0-0.93-0.03-0.67-0.77L151.14,224.17L151.14,224.17z"/>
<path d="M116.21,219.73c-1.27-2.61-2.29-5.14-2.12-6.73c-1.35,0.12-2.45,0.12-3.39,0.12c-1.02,0-2-0.04-3.22-0.12
	c-0.33,0.16-0.37,0.78-0.16,1.02l0.65,0.08c2.49,0.41,2.82,0.94,2.73,3.51c-0.08,2.24-0.24,5.71-0.45,9.1
	c-0.25,4.04-0.45,6.28-0.69,8.97c-0.25,2.86-0.82,3.14-2.53,3.35l-0.9,0.12c-0.24,0.2-0.16,0.82,0.08,1.02
	c1.39-0.08,2.86-0.12,4.16-0.12c1.55,0,3.14,0.04,4.53,0.12c0.29-0.12,0.33-0.77,0.04-1.02l-1.55-0.12
	c-1.59-0.12-1.84-0.78-1.84-3.8c0-3.47,0.16-7.1,0.29-9.59c0.12-2.37,0.24-4.73,0.41-7.26h0.08c0.9,1.88,1.75,4,2.61,5.88l3.67,7.88
	c0.94,2,2.9,6,3.59,8.16c0.08,0.12,0.29,0.16,0.37,0.16c0.16,0,0.33-0.04,0.41-0.16c0.73-1.88,2.57-5.71,4.41-9.3l3.63-7.14
	c0.82-1.59,2.37-4.86,2.65-5.3h0.08l0.12,17.01c0,2.61,0,3.26-2,3.47l-1.18,0.12c-0.25,0.25-0.2,0.81,0.08,1.02
	c1.67-0.08,3.51-0.12,4.94-0.12c1.47,0,3.14,0.04,4.81,0.12c0.29-0.16,0.33-0.77,0.08-1.02l-1.31-0.12c-1.92-0.2-1.88-1.27-2-3.3
	c-0.33-5.88-0.37-13.42-0.45-17.75c-0.04-2.86,0.28-3.59,2.85-3.88l0.86-0.08c0.2-0.16,0.2-0.86-0.04-1.02
	c-1.26,0.08-2.61,0.12-3.63,0.12c-0.81,0-1.67,0-3.06-0.12c-0.08,1.88-1.22,4.12-3.1,7.83l-3.84,7.79c-1.02,2.08-2.04,4.2-3.14,6.12
	h-0.08c-0.98-1.8-1.88-3.67-2.82-5.59L116.21,219.73L116.21,219.73z"/>
<path d="M270.71,276.27c0,3.37-0.16,3.85-1.99,4.01l-1.06,0.1c-0.19,0.19-0.13,0.71,0.07,0.8c1.89-0.07,2.98-0.1,4.37-0.1h2.89
	c2.86,0,5.71,0.03,8.6,0.1c0.42-0.87,1.22-3.34,1.44-4.46c-0.13-0.29-0.58-0.39-0.8-0.22c-0.83,1.67-1.7,2.79-2.28,3.11
	c-0.71,0.35-1.64,0.48-4.11,0.48c-2.82,0-3.5-0.35-3.88-0.74c-0.51-0.55-0.61-1.64-0.61-3.34l0-4.53c0-0.83,0.1-0.87,1.06-0.87h1.86
	c1.25,0,2.02,0.03,2.47,0.16c0.64,0.16,0.87,0.64,0.99,1.22l0.29,1.25c0.16,0.19,0.7,0.19,0.83-0.03c0-0.71-0.13-1.93-0.13-3.08
	c0-1.22,0.13-2.47,0.13-3.24c-0.13-0.23-0.67-0.23-0.83-0.03l-0.26,1.32c-0.16,0.8-0.39,0.99-0.77,1.12
	c-0.38,0.13-1.38,0.19-2.73,0.19l-1.86,0c-0.96,0-1.06,0-1.06-0.9v-6.42c0-1.22,0-1.28,0.96-1.28h2.31c1.41,0,2.44,0.03,3.11,0.19
	c1.67,0.42,1.96,1.54,2.44,3.05c0.16,0.19,0.67,0.13,0.8-0.06c-0.13-1.41-0.32-3.72-0.51-4.27c-0.39,0.1-2.28,0.1-4.33,0.1l-6.03,0
	c-1.31,0-2.41-0.03-3.79-0.1c-0.2,0.1-0.26,0.67-0.06,0.8l0.51,0.06c1.89,0.23,1.96,0.71,1.96,4.04L270.71,276.27L270.71,276.27z"/>
<path d="M263.86,276.01c0-1.64,0.03-2.54,1.38-2.7l0.51-0.06c0.23-0.19,0.19-0.67-0.03-0.8c-1.06,0.06-2.15,0.1-3.4,0.1
	c-1.89,0-3.66-0.03-4.59-0.1c-0.22,0.09-0.26,0.67,0,0.8l1.41,0.16c1.99,0.23,2.09,0.42,2.09,3.11v1.28c0,1.03-0.16,1.6-0.32,1.83
	c-0.35,0.55-1.54,0.96-3.53,0.96c-6.45,0-9.63-4.85-9.63-11.01c0-4.81,2.73-9.24,8.95-9.24c3.27,0,5.68,1.09,6.58,4.56
	c0.19,0.19,0.77,0.16,0.87-0.09c-0.29-1.93-0.48-3.59-0.48-4.65c-0.39,0.06-1.38-0.16-1.99-0.29c-0.55-0.13-2.25-0.48-4.07-0.48
	c-4.85,0-8.03,1.51-10.17,3.75c-1.99,2.12-2.89,4.88-2.89,7.61c0,2.82,1.03,5.36,2.95,7.29c2.47,2.5,5.97,3.56,9.79,3.56
	c1.73,0,4.04-0.39,5.74-0.84c0.61-0.16,1.19-0.29,1.57-0.29c0.13-0.1,0.13-0.29,0.03-0.39c-0.58-0.22-0.77-0.99-0.77-2.28V276.01
	L263.86,276.01z"/>
<path d="M228.86,276.26c0,3.37-0.16,3.85-1.99,4.01l-1.06,0.09c-0.19,0.19-0.13,0.71,0.06,0.8c1.89-0.06,2.99-0.1,4.36-0.1l2.89,0
	c2.86,0,5.71,0.03,8.6,0.1c0.42-0.87,1.22-3.34,1.45-4.46c-0.13-0.29-0.58-0.38-0.8-0.23c-0.83,1.67-1.7,2.79-2.28,3.11
	c-0.7,0.35-1.64,0.48-4.11,0.48c-2.82,0-3.5-0.35-3.88-0.74c-0.51-0.55-0.61-1.64-0.61-3.34v-4.53c0-0.83,0.09-0.87,1.06-0.87h1.86
	c1.25,0,2.02,0.03,2.47,0.16c0.64,0.16,0.87,0.64,1,1.22l0.29,1.25c0.16,0.19,0.7,0.19,0.83-0.03c0-0.71-0.13-1.93-0.13-3.08
	c0-1.22,0.13-2.47,0.13-3.24c-0.13-0.22-0.67-0.23-0.83-0.03l-0.26,1.31c-0.16,0.8-0.38,1-0.77,1.12c-0.38,0.13-1.38,0.19-2.73,0.19
	h-1.86c-0.96,0-1.06,0-1.06-0.9v-6.42c0-1.22,0-1.28,0.96-1.28h2.31c1.41,0,2.44,0.03,3.11,0.19c1.67,0.42,1.96,1.54,2.44,3.05
	c0.16,0.19,0.67,0.13,0.8-0.06c-0.13-1.41-0.32-3.72-0.52-4.27c-0.38,0.1-2.28,0.1-4.33,0.1l-6.03,0c-1.32,0-2.41-0.03-3.79-0.1
	c-0.19,0.1-0.26,0.67-0.06,0.8l0.51,0.06c1.89,0.22,1.96,0.71,1.96,4.04L228.86,276.26L228.86,276.26z"/>
<path d="M211.55,276.26c0,3.37-0.06,3.82-1.93,4.01l-0.96,0.1c-0.19,0.19-0.13,0.71,0.06,0.8c1.8-0.06,2.83-0.09,4.17-0.09h2.95
	c3.31,0,6.36,0.03,7.99,0.1c0.45-0.87,1.35-4.14,1.35-4.49c0-0.23-0.61-0.35-0.8-0.19c-0.64,1.64-1.48,2.79-2.12,3.18
	c-0.51,0.29-1.19,0.42-3.92,0.42c-2.54,0-3.15-0.38-3.5-0.74c-0.58-0.61-0.67-1.44-0.67-3.47l0-11.17c0-3.37,0.06-3.88,1.96-4.04
	l0.77-0.06c0.19-0.13,0.13-0.71-0.07-0.8c-1.6,0.06-2.7,0.1-3.95,0.1c-1.28,0-2.37-0.03-4.17-0.1c-0.19,0.1-0.26,0.67-0.06,0.8
	l0.8,0.06c2.02,0.16,2.09,0.67,2.09,4.04L211.55,276.26L211.55,276.26z"/>
<path d="M194.24,276.26c0,3.37-0.06,3.82-1.92,4.01l-0.96,0.1c-0.19,0.19-0.13,0.71,0.06,0.8c1.8-0.06,2.82-0.1,4.17-0.1h2.95
	c3.3,0,6.35,0.03,7.99,0.1c0.45-0.87,1.35-4.14,1.35-4.49c0-0.22-0.61-0.35-0.8-0.19c-0.64,1.64-1.48,2.79-2.12,3.18
	c-0.51,0.29-1.19,0.42-3.92,0.42c-2.53,0-3.15-0.39-3.5-0.74c-0.58-0.61-0.67-1.45-0.67-3.47l0-11.17c0-3.37,0.06-3.88,1.96-4.04
	l0.77-0.06c0.19-0.13,0.13-0.71-0.06-0.8c-1.6,0.06-2.7,0.1-3.95,0.1c-1.28,0-2.38-0.03-4.17-0.1c-0.19,0.1-0.26,0.67-0.06,0.8
	l0.8,0.06c2.02,0.16,2.09,0.68,2.09,4.04L194.24,276.26L194.24,276.26z"/>
<path style="fill-rule:evenodd;clip-rule:evenodd;" d="M177.95,281.59c6.19,0,11.14-4.72,11.14-11.2c0-5.65-3.72-11.01-11.14-11.01
	c-6.61,0-11.43,4.91-11.42,11.33C166.52,276.48,170.82,281.58,177.95,281.59L177.95,281.59z M178.36,280.59
	c-6.32,0-8.63-6.16-8.63-10.91c0-7.03,4.33-9.31,7.67-9.31c6.13,0,8.47,5.71,8.47,11.01C185.87,277.7,182.21,280.59,178.36,280.59
	L178.36,280.59z"/>
<path d="M138.33,267.77c0,5.26,2.53,8.98,5.8,11.22c2.98,2,6.49,2.73,10.16,2.73c2.61,0,5.55-0.61,6.44-0.94
	c0.45-0.16,0.94-0.33,1.43-0.41c0.61-0.78,1.67-3.47,1.96-5.59c-0.16-0.29-0.78-0.37-1.06-0.16c-0.94,2.41-3.26,5.83-8.53,5.83
	c-6.69,0-12.12-4.73-12.12-13.3c0-8.45,5.3-12.4,11.54-12.4c5.92,0,7.75,3.18,8.37,5.96c0.29,0.25,0.9,0.2,1.1-0.08
	c-0.33-2.49-0.53-5.06-0.57-6c-0.37,0.04-0.65-0.04-1.14-0.16c-1.92-0.53-5.02-0.98-7.22-0.98c-4.24,0-8.04,1.14-11.02,3.47
	C140.37,259.36,138.33,263.24,138.33,267.77L138.33,267.77z"/>
<path d="M215.81,422.89c2.34-1.72,5.28-3.98,8.48-6.66l-18.66-18.66l4.52-4.52l18.97,18.97c2.54-2.32,5.12-4.84,7.62-7.53
	l-19.01-19.01l10.82-10.82l17.72,17.72c2.09-3.28,3.83-6.66,5.05-10.09l-15.2-15.2l4.83-4.83l12.17,12.17
	c0.08-0.83,0.12-1.66,0.12-2.49l-0.03-12.56l-4.69-4.69l4.67-4.67l-0.04-15.11l-12.2,12.21l-4.53-4.53l16.71-16.71l-0.03-12.53
	h-2.58L228.83,335L218,324.17l10.84-10.84h-15.14l-3.27,3.27l-3.27-3.27l-18.27,0l-3.26,3.26l-3.26-3.26l-14.37,0c0,0,0,0.28,0,0.77
	l10.07,10.07l-10.17,10.17c-0.02,5.35-0.05,11.08-0.07,16.39l4.25,4.25l-4.27,4.28c-0.01,6.76-0.01,11.5,0.03,11.5
	c0,1.52,0.15,3.04,0.39,4.55l10.17,10.17l-4.57,4.57c1.8,3.09,3.9,6.1,6.18,8.97l5.97-5.97l4.53,4.53l-6.34,6.34
	c2.46,2.73,5,5.29,7.5,7.64l6.41-6.41L215.81,422.89z M210.14,377.9l-4.53-4.53l10.82-10.82l4.53,4.53L210.14,377.9z M228.83,350.15
	l4.53,4.53l-4.83,4.83l-4.53-4.53L228.83,350.15z M210.43,331.74l10.83,10.83l-4.83,4.83l-10.83-10.83L210.43,331.74z
	 M198.02,319.34l4.83,4.83l-4.82,4.83l-4.83-4.84L198.02,319.34z M185.62,331.73l4.83,4.84l-10.82,10.82l-4.83-4.83L185.62,331.73z
	 M185.95,377.89l-10.83-10.83l4.52-4.52l10.83,10.83L185.95,377.89z M187.21,354.97l10.82-10.82l10.83,10.83l-10.82,10.82
	L187.21,354.97z M193.52,385.46l4.52-4.52l4.53,4.53l-4.52,4.52L193.52,385.46z"/>
<path style="fill-rule:evenodd;clip-rule:evenodd;" d="M278.32,750.89c0,2.1-0.04,2.36-1.2,2.5l-0.5,0.06
	c-0.12,0.14-0.08,0.44,0.04,0.5c0.94-0.04,1.66-0.06,2.5-0.06c0.8,0,1.48,0.02,2.38,0.06c0.12-0.06,0.16-0.4,0.04-0.5l-0.42-0.06
	c-1.16-0.16-1.2-0.4-1.2-2.5v-2.52c0-0.42,0.04-0.44,0.94-0.44c0.8,0,1.12,0.2,1.42,0.64c0.62,0.9,1.44,2.28,1.96,3.02
	c1.42,2.02,2.44,2.52,4.14,2.52c0.38,0,0.7-0.04,0.88-0.1c0.1-0.08,0.08-0.24-0.02-0.28c-0.54-0.04-1.04-0.26-1.38-0.56
	c-1.36-1.14-2.42-2.74-4.02-5.32c-0.1-0.16-0.2-0.36-0.1-0.48c1-0.4,2.5-1.44,2.5-3.34c0-1.4-0.7-2.3-1.66-2.8
	c-0.92-0.5-2.1-0.6-3.34-0.6c-1.96,0-3.34,0.06-4.46,0.16c-0.16,0.08-0.16,0.4-0.02,0.5l0.64,0.08c0.82,0.1,0.88,0.44,0.88,2.34
	V750.89L278.32,750.89z M279.97,741.89c0-0.56,0.06-0.64,1.3-0.64c2.22,0,3.2,1.5,3.2,3.08c0,1.36-0.46,2.06-1,2.48
	c-0.58,0.44-1.34,0.52-2.06,0.52c-1.02,0-1.32-0.04-1.38-0.1c-0.06-0.08-0.06-0.3-0.06-0.66V741.89L279.97,741.89z"/>
<path d="M266.73,750.89c0,2.1-0.1,2.4-1.24,2.5l-0.66,0.06c-0.12,0.12-0.08,0.44,0.04,0.5c1.18-0.04,1.86-0.06,2.72-0.06l1.8,0
	c1.78,0,3.56,0.02,5.36,0.06c0.26-0.54,0.76-2.08,0.9-2.78c-0.08-0.18-0.36-0.24-0.5-0.14c-0.52,1.04-1.06,1.74-1.42,1.94
	c-0.44,0.22-1.02,0.3-2.56,0.3c-1.76,0-2.18-0.22-2.42-0.46c-0.32-0.34-0.38-1.02-0.38-2.08v-2.82c0-0.52,0.06-0.54,0.66-0.54h1.16
	c0.78,0,1.26,0.02,1.54,0.1c0.4,0.1,0.54,0.4,0.62,0.76l0.18,0.78c0.1,0.12,0.44,0.12,0.52-0.02c0-0.44-0.08-1.2-0.08-1.92
	c0-0.76,0.08-1.54,0.08-2.02c-0.08-0.14-0.42-0.14-0.52-0.02l-0.16,0.82c-0.1,0.5-0.24,0.62-0.48,0.7c-0.24,0.08-0.86,0.12-1.7,0.12
	h-1.16c-0.6,0-0.66,0-0.66-0.56l0-4c0-0.76,0-0.8,0.6-0.8l1.44,0c0.88,0,1.52,0.02,1.94,0.12c1.04,0.26,1.22,0.96,1.52,1.9
	c0.1,0.12,0.42,0.08,0.5-0.04c-0.08-0.88-0.2-2.32-0.32-2.66c-0.24,0.06-1.42,0.06-2.7,0.06h-3.76c-0.82,0-1.5-0.02-2.36-0.06
	c-0.12,0.06-0.16,0.42-0.04,0.5l0.32,0.04c1.18,0.14,1.22,0.44,1.22,2.52L266.73,750.89L266.73,750.89z"/>
<path d="M258.41,741.98c0-0.66-0.02-0.68,0.58-0.68h1.42c1.1,0,1.86,0.16,2.32,0.5c0.3,0.22,0.44,0.96,0.5,1.46
	c0.1,0.12,0.44,0.12,0.52-0.04c-0.06-0.6,0.08-2.22,0.3-3.04c-0.04-0.08-0.26-0.1-0.36-0.06c-0.3,0.52-0.48,0.56-1.56,0.56l-8.11,0
	c-0.92,0-1.58,0.02-1.7-0.62c-0.06-0.06-0.32-0.04-0.38,0c-0.14,0.8-0.44,2.08-0.76,2.98c0.08,0.16,0.36,0.26,0.52,0.14
	c0.22-0.5,0.42-0.94,0.9-1.38c0.5-0.46,1.6-0.5,2.46-0.5h1.1c0.6,0,0.6,0.02,0.6,0.64v8.95c0,2.1-0.1,2.4-1.24,2.5l-0.72,0.06
	c-0.16,0.1-0.12,0.44,0,0.5c1.28-0.04,1.98-0.06,2.78-0.06s1.48,0.02,2.62,0.06c0.12-0.06,0.16-0.42,0.04-0.5l-0.64-0.06
	c-1.16-0.12-1.2-0.4-1.2-2.5L258.41,741.98L258.41,741.98z"/>
<path d="M250.3,750.51c0-1.9-1.24-3.06-2.5-3.84l-1.6-1c-0.74-0.48-1.7-1.3-1.7-2.46c0-0.92,0.42-2.22,2.38-2.22
	c1.92,0,2.46,1.3,2.72,2.26c0.1,0.12,0.42,0.06,0.5-0.06c0-0.84-0.18-1.96-0.36-2.44c-0.16,0-0.44-0.06-0.7-0.12
	c-0.52-0.16-1.24-0.26-1.86-0.26c-2.6,0-4.08,1.54-4.08,3.44c0,1.64,1.16,2.78,2.16,3.44l1.9,1.24c1.46,0.94,1.64,1.92,1.64,2.8
	c0,1.2-0.82,2.3-2.5,2.3c-2.32,0-3.14-1.96-3.44-2.98c-0.08-0.12-0.38-0.08-0.48,0.06c0.04,0.94,0.3,2.36,0.54,2.8
	c0.38,0.22,1.44,0.74,3.12,0.74C248.64,754.21,250.3,752.71,250.3,750.51L250.3,750.51z"/>
<path d="M232.32,750.89c0,2.1-0.1,2.4-1.24,2.5l-0.66,0.06c-0.12,0.12-0.08,0.44,0.04,0.5c1.18-0.04,1.86-0.06,2.72-0.06h1.8
	c1.78,0,3.56,0.02,5.36,0.06c0.26-0.54,0.76-2.08,0.9-2.78c-0.08-0.18-0.36-0.24-0.5-0.14c-0.52,1.04-1.06,1.74-1.42,1.94
	c-0.44,0.22-1.02,0.3-2.56,0.3c-1.76,0-2.18-0.22-2.42-0.46c-0.32-0.34-0.38-1.02-0.38-2.08v-2.82c0-0.52,0.06-0.54,0.66-0.54h1.16
	c0.78,0,1.26,0.02,1.54,0.1c0.4,0.1,0.54,0.4,0.62,0.76l0.18,0.78c0.1,0.12,0.44,0.12,0.52-0.02c0-0.44-0.08-1.2-0.08-1.92
	c0-0.76,0.08-1.54,0.08-2.02c-0.08-0.14-0.42-0.14-0.52-0.02l-0.16,0.82c-0.1,0.5-0.24,0.62-0.48,0.7c-0.24,0.08-0.86,0.12-1.7,0.12
	h-1.16c-0.6,0-0.66,0-0.66-0.56v-4c0-0.76,0-0.8,0.6-0.8H236c0.88,0,1.52,0.02,1.94,0.12c1.04,0.26,1.22,0.96,1.52,1.9
	c0.1,0.12,0.42,0.08,0.5-0.04c-0.08-0.88-0.2-2.32-0.32-2.66c-0.24,0.06-1.42,0.06-2.7,0.06l-3.76,0c-0.82,0-1.5-0.02-2.36-0.06
	c-0.12,0.06-0.16,0.42-0.04,0.5l0.32,0.04c1.18,0.14,1.22,0.44,1.22,2.52V750.89L232.32,750.89z"/>
<path d="M221.34,750.88c0,2.1-0.04,2.38-1.2,2.5l-0.6,0.06c-0.12,0.12-0.08,0.44,0.04,0.5c1.12-0.04,1.76-0.06,2.6-0.06h1.84
	c2.06,0,3.96,0.02,4.98,0.06c0.28-0.54,0.84-2.58,0.84-2.8c0-0.14-0.38-0.22-0.5-0.12c-0.4,1.02-0.92,1.74-1.32,1.98
	c-0.32,0.18-0.74,0.26-2.44,0.26c-1.58,0-1.96-0.24-2.18-0.46c-0.36-0.38-0.42-0.9-0.42-2.16l0-6.97c0-2.1,0.04-2.42,1.22-2.52
	l0.48-0.04c0.12-0.08,0.08-0.44-0.04-0.5c-1,0.04-1.68,0.06-2.46,0.06c-0.8,0-1.48-0.02-2.6-0.06c-0.12,0.06-0.16,0.42-0.04,0.5
	l0.5,0.04c1.26,0.1,1.3,0.42,1.3,2.52V750.88L221.34,750.88z"/>
<path style="fill-rule:evenodd;clip-rule:evenodd;" d="M214.83,751.96c0.16,0.48,0.26,0.84,0.26,1.06c0,0.2-0.28,0.32-0.7,0.36
	l-0.58,0.06c-0.14,0.1-0.12,0.42,0.04,0.5c0.58-0.02,1.34-0.06,2.3-0.06c0.9,0,1.6,0.02,2.42,0.06c0.1-0.08,0.14-0.4,0-0.5
	l-0.54-0.06c-0.86-0.1-1.12-0.4-1.7-2.12l-2.74-8.05c-0.3-0.88-0.62-1.8-0.88-2.68c-0.04-0.14-0.18-0.18-0.3-0.18
	c-0.22,0.26-0.56,0.62-1.04,0.76c0.06,0.32-0.06,0.7-0.34,1.42l-2.04,5.4c-0.84,2.24-1.4,3.54-1.76,4.46
	c-0.28,0.72-0.72,0.94-1.2,0.98l-0.66,0.06c-0.12,0.1-0.08,0.42,0.04,0.5c0.54-0.02,1.26-0.06,1.92-0.06
	c0.94,0.02,1.56,0.02,2.08,0.06c0.18-0.08,0.18-0.4,0.04-0.5l-0.66-0.06c-0.48-0.04-0.58-0.16-0.58-0.4c0-0.22,0.14-0.76,0.44-1.66
	l0.7-2.1c0.14-0.42,0.26-0.48,0.76-0.48h3.02c0.6,0,0.68,0.06,0.82,0.5L214.83,751.96L214.83,751.96z M211.25,743.98
	c0.22-0.6,0.42-1.08,0.48-1.18h0.04c0.12,0.24,0.3,0.78,0.46,1.26l1.08,3.26c0.18,0.54,0.14,0.62-0.44,0.62h-2.46
	c-0.56,0-0.58-0.02-0.42-0.48L211.25,743.98L211.25,743.98z"/>
<path d="M192.26,747.36c0,2.58,1.24,4.4,2.84,5.5c1.46,0.98,3.18,1.34,4.98,1.34c1.28,0,2.72-0.3,3.16-0.46
	c0.22-0.08,0.46-0.16,0.7-0.2c0.3-0.38,0.82-1.7,0.96-2.74c-0.08-0.14-0.38-0.18-0.52-0.08c-0.46,1.18-1.6,2.86-4.18,2.86
	c-3.28,0-5.94-2.32-5.95-6.53c0-4.14,2.6-6.08,5.66-6.08c2.9,0,3.8,1.56,4.1,2.92c0.14,0.12,0.44,0.1,0.54-0.04
	c-0.16-1.22-0.26-2.48-0.28-2.94c-0.18,0.02-0.32-0.02-0.56-0.08c-0.94-0.26-2.46-0.48-3.54-0.48c-2.08,0-3.94,0.56-5.4,1.7
	C193.26,743.23,192.26,745.14,192.26,747.36L192.26,747.36z"/>
<path style="fill-rule:evenodd;clip-rule:evenodd;" d="M189.07,751.96c0.16,0.48,0.26,0.84,0.26,1.06c0,0.2-0.28,0.32-0.7,0.36
	l-0.58,0.06c-0.14,0.1-0.12,0.42,0.04,0.5c0.58-0.02,1.34-0.06,2.3-0.06c0.9,0,1.6,0.02,2.42,0.06c0.1-0.08,0.14-0.4,0-0.5
	l-0.54-0.06c-0.86-0.1-1.12-0.4-1.7-2.12l-2.74-8.04c-0.3-0.88-0.62-1.8-0.88-2.68c-0.04-0.14-0.18-0.18-0.3-0.18
	c-0.22,0.26-0.56,0.62-1.04,0.76c0.06,0.32-0.06,0.7-0.34,1.42l-2.04,5.4c-0.84,2.24-1.4,3.54-1.76,4.46
	c-0.28,0.72-0.72,0.94-1.2,0.98l-0.66,0.06c-0.12,0.1-0.08,0.42,0.04,0.5c0.54-0.02,1.26-0.06,1.92-0.06
	c0.94,0.02,1.56,0.02,2.08,0.06c0.18-0.08,0.18-0.4,0.04-0.5l-0.66-0.06c-0.48-0.04-0.58-0.16-0.58-0.4c0-0.22,0.14-0.76,0.44-1.66
	l0.7-2.1c0.14-0.42,0.26-0.48,0.76-0.48l3.02,0c0.6,0,0.68,0.06,0.82,0.5L189.07,751.96L189.07,751.96z M185.49,743.97
	c0.22-0.6,0.42-1.08,0.48-1.18h0.04c0.12,0.24,0.3,0.78,0.46,1.26l1.08,3.26c0.18,0.54,0.14,0.62-0.44,0.62h-2.46
	c-0.56,0-0.58-0.02-0.42-0.48L185.49,743.97L185.49,743.97z"/>
<path d="M163.71,741.21c-0.79-1.63-1.43-3.21-1.32-4.2c-0.84,0.08-1.53,0.08-2.11,0.08c-0.64,0-1.25-0.03-2.01-0.08
	c-0.2,0.1-0.23,0.48-0.1,0.64l0.41,0.05c1.55,0.25,1.76,0.58,1.7,2.19c-0.05,1.4-0.15,3.56-0.28,5.67c-0.15,2.52-0.28,3.92-0.43,5.6
	c-0.15,1.78-0.51,1.96-1.58,2.09l-0.56,0.08c-0.15,0.13-0.1,0.51,0.05,0.64c0.87-0.05,1.78-0.08,2.6-0.08
	c0.97,0,1.96,0.02,2.82,0.08c0.18-0.08,0.2-0.48,0.03-0.63l-0.97-0.08c-0.99-0.08-1.14-0.48-1.15-2.37c0-2.16,0.1-4.43,0.18-5.98
	c0.08-1.48,0.15-2.95,0.25-4.53h0.05c0.56,1.17,1.09,2.49,1.63,3.66l2.29,4.91c0.58,1.25,1.81,3.74,2.24,5.09
	c0.05,0.08,0.18,0.1,0.23,0.1c0.1,0,0.2-0.02,0.25-0.1c0.46-1.17,1.6-3.56,2.75-5.8l2.26-4.45c0.51-0.99,1.48-3.03,1.65-3.31h0.05
	l0.08,10.61c0,1.63,0,2.03-1.25,2.16l-0.74,0.08c-0.15,0.15-0.13,0.51,0.05,0.63c1.04-0.05,2.19-0.08,3.08-0.08
	c0.92,0,1.96,0.03,3,0.08c0.18-0.1,0.2-0.48,0.05-0.64l-0.81-0.08c-1.2-0.13-1.17-0.79-1.25-2.06c-0.2-3.67-0.23-8.37-0.28-11.07
	c-0.03-1.78,0.18-2.24,1.78-2.42l0.53-0.05c0.13-0.1,0.13-0.53-0.03-0.64c-0.79,0.05-1.63,0.08-2.26,0.08c-0.51,0-1.04,0-1.91-0.08
	c-0.05,1.17-0.76,2.57-1.93,4.88l-2.39,4.86c-0.64,1.3-1.27,2.62-1.96,3.82h-0.05c-0.61-1.12-1.17-2.29-1.76-3.49L163.71,741.21
	L163.71,741.21z"/>
<path d="M141.78,760.61c0.48-0.35,1.12-0.83,1.84-1.42l-4.04-4.05l0.97-0.97l4.12,4.12c0.55-0.49,1.11-1.03,1.66-1.6l-4.15-4.15
	l2.33-2.33l3.92,3.92c0.46-0.68,0.85-1.39,1.15-2.11l-3.43-3.43l1.04-1.04l2.86,2.86c0.06-0.33,0.09-0.66,0.09-0.99l-0.01-2.19
	l-1.32-1.32l1.31-1.31l-0.01-3.25l-2.93,2.93l-0.98-0.98l3.91-3.91l-0.01-2.62h-0.64l-4.9,4.9l-2.34-2.34l2.56-2.56l-3.26,0
	l-0.93,0.93l-0.93-0.93h-3.49l-0.92,0.92l-0.92-0.92h-2.59c0,0,0,0.25,0,0.67l1.89,1.89l-1.9,1.91c-0.01,1.34-0.01,2.8-0.02,4.09
	l0.64,0.64l-0.64,0.64c0,1.5,0,2.56,0.01,2.56c0,0.53,0.07,1.06,0.21,1.58l1.79,1.79l-0.74,0.74c0.38,0.67,0.83,1.32,1.32,1.94
	l1.04-1.04l0.98,0.98l-1.13,1.13c0.53,0.59,1.07,1.14,1.61,1.65l1.14-1.15L141.78,760.61z M140.55,750.91l-0.98-0.98l2.33-2.33
	l0.98,0.98L140.55,750.91z M144.57,744.93l0.98,0.98l-1.04,1.04l-0.98-0.98L144.57,744.93z M140.6,740.97l2.34,2.34l-1.04,1.04
	l-2.34-2.34L140.6,740.97z M137.92,738.29l1.05,1.05l-1.04,1.04l-1.05-1.04L137.92,738.29z M135.26,740.96l1.05,1.04l-2.33,2.33
	l-1.05-1.04L135.26,740.96z M135.34,750.91l-2.34-2.34l0.97-0.97l2.34,2.34L135.34,750.91z M135.6,745.97l2.33-2.33l2.34,2.34
	l-2.33,2.33L135.6,745.97z M136.97,752.54l0.97-0.97l0.98,0.98l-0.97,0.97L136.97,752.54z"/>
</svg>
