<?xml version="1.0" encoding="utf-8"?>
<svg version="1.1"
	 xmlns="http://www.w3.org/2000/svg" xmlns:xlink="http://www.w3.org/1999/xlink"
	 viewBox="0 0 116 79" class="today">
<title>Today</title>
<path d="M98.94,36.65c-0.92,0-1.83-0.21-2.79-0.67l-0.37,2.95c1.08,0.5,2.45,0.79,3.83,0.79c3.45,0,5.86-1.62,7.61-6.16l9.11-25.29
	h-4.24l-5.7,17.93l-0.92,3.2h-0.12l-1.16-3.12L97.11,8.28h-4.58l10.86,24.79l-0.12,0.42C102.19,35.9,100.86,36.65,98.94,36.65z
	 M85.64,26.04c0,2.08-2.79,4.16-5.87,4.16c-2.87,0-4.99-1.21-4.99-4.74c0-2.95,1.79-4.62,5.91-4.62c2.5,0,4.33,0.54,4.95,0.92V26.04
	z M86.55,33.07h3V17.05c0-6.53-2.45-9.28-8.99-9.28c-2.95,0-5.62,0.54-7.99,1.62l0.38,3.29c2.2-1.04,4.33-1.5,6.95-1.5
	c4.03,0,5.78,1.37,5.78,5.28v2.45c-1.54-0.54-3.58-0.96-5.7-0.96c-5.91,0-8.9,2.87-8.9,7.53c0,5.57,3.08,7.95,7.61,7.95
	c3.2,0,5.91-1.33,7.36-3.45l0.12,0.04L86.55,33.07z M62.76,27.25c-0.71,1.33-2.5,3.04-5.95,3.04c-4.95,0-6.53-2.54-6.53-9.48
	c0-6.74,1.75-9.32,6.57-9.32c2.66,0,4.87,1.12,5.91,2.83V27.25z M66.71,33.07V0l-3.95,0.25v6.99l0.08,3.33l-0.08,0.04
	c-1.75-1.83-4.24-2.79-6.99-2.79c-6.61,0-9.57,4.41-9.57,12.81c0,8.86,2.83,12.94,9.53,12.94c3.33,0,5.78-1.08,7.32-3.12l0.12,0.04
	l0.5,2.58H66.71z M26.16,20.76c0-7.11,1.87-9.53,6.74-9.53c4.78,0,6.61,2.41,6.61,9.53c0,7.07-1.83,9.53-6.61,9.53
	C28.03,30.28,26.16,27.87,26.16,20.76z M43.54,20.76c0-9.19-3.16-12.89-10.65-12.89c-7.45,0-10.81,3.7-10.81,12.89
	c0,9.19,3.33,12.85,10.81,12.85C40.34,33.61,43.54,29.95,43.54,20.76z M22.88,5.86l-0.08-3.99H0.12L0,5.86h9.28v27.2h4.33V5.86
	H22.88z"/>
</svg>
