<?xml version="1.0" encoding="utf-8"?>
<svg version="1.1"
	 xmlns="http://www.w3.org/2000/svg" xmlns:xlink="http://www.w3.org/1999/xlink" viewBox="0 0 407 79" preserveAspectRatio="xMinYMin meet" class="macalester">
<title>Macalester</title>
<path style="fill:#FFFFFF;" d="M355.55,62.4V38.92c0-11.15,6.55-18.33,14.35-18.33c1.48,0,2.89,0.16,4.21,0.62l0.39-4.91
	c-1.33-0.39-2.81-0.54-4.37-0.54c-6.94,0-12.32,4.84-14.98,12.01h-0.16l-0.16-6.32l-0.16-5.15l-3.82,0.31V62.4H355.55z M310.7,35.8
	c0.47-10.61,4.52-15.99,13.57-15.99c7.64,0,13.1,4.37,13.26,15.99H310.7z M326.46,63.34c5.38,0,9.83-1.33,13.81-3.59l-0.62-4.13
	c-3.9,2.11-7.88,3.28-12.71,3.28c-11,0-15.91-4.99-16.15-19.73h30.97c0.08-0.62,0.16-1.64,0.16-2.34c0-14.9-7.25-21.22-17.63-21.22
	c-12.17,0-18.33,7.8-18.33,22.23C305.95,55.62,311.8,63.34,326.46,63.34z M301.81,20.2v-3.82h-12.09V3.82l-3.74,0.47l-0.94,12.09
	h-7.25v3.82h7.18v31.28c0,7.88,3.82,11.62,11,11.62c2.03,0,4.29-0.39,5.54-0.94l-0.39-3.74c-0.94,0.39-2.57,0.62-3.9,0.62
	c-4.6,0-7.49-2.18-7.49-7.72V20.2H301.81z M274.46,49.46c0-16.22-24.73-10.53-24.73-22c0-4.68,4.13-7.64,10.69-7.64
	c3.82,0,7.88,0.86,11.7,2.57l0.47-4.13c-3.67-1.79-7.72-2.65-12.09-2.65c-9.91,0-15.29,4.6-15.29,12.09
	c0,15.21,24.8,9.91,24.8,22.23c0,5.3-3.28,9.28-11.08,9.28c-4.68,0-9.83-1.56-13.18-4.37l-0.78,4.29c3.43,2.73,8.58,4.21,14.04,4.21
	C269.7,63.34,274.46,57.8,274.46,49.46z M207.55,35.8c0.47-10.61,4.52-15.99,13.57-15.99c7.64,0,13.1,4.37,13.26,15.99H207.55z
	 M223.31,63.34c5.38,0,9.83-1.33,13.81-3.59l-0.62-4.13c-3.9,2.11-7.88,3.28-12.71,3.28c-11,0-15.91-4.99-16.15-19.73h30.97
	c0.08-0.62,0.16-1.64,0.16-2.34c0-14.9-7.25-21.22-17.63-21.22c-12.17,0-18.33,7.8-18.33,22.23
	C202.79,55.62,208.64,63.34,223.31,63.34z M191.87,62.4V0l-4.68,0.31V62.4H191.87z M169.49,49.92c0,4.45-6.01,9.13-12.71,9.13
	c-6.16,0-10.84-2.65-10.84-10.45c0-6.4,3.9-10.06,12.79-10.06c5.54,0,9.59,1.33,10.76,2.18V49.92z M170.66,62.4h3.59V31.98
	c0-11.94-4.52-16.54-15.76-16.54c-5.3,0-9.98,1.01-14.35,3.04l0.55,4.13c3.98-2.03,8.27-2.89,13.03-2.89
	c8.11,0,11.78,2.81,11.78,11.54v5.7c-3.12-1.17-7.33-2.03-11.47-2.03c-11.23,0-16.62,4.99-16.62,13.73
	c0,10.3,5.77,14.43,14.12,14.43c6.4,0,11.86-2.89,14.35-7.25l0.23,0.08L170.66,62.4z M135.33,18.18c-3.04-1.48-7.18-2.57-11.47-2.57
	c-13.18,0-18.95,7.57-18.95,23.24c0,17.39,6.24,24.57,18.88,24.57c4.76,0,9.21-1.4,11.93-3.43l-0.47-4.13
	c-2.89,2.11-6.71,3.2-10.61,3.2c-9.75,0-14.82-5.3-14.82-20.2c0-13.18,4.21-18.72,14.98-18.72c3.67,0,7.25,1.01,10.14,2.42
	L135.33,18.18z M91.96,49.92c0,4.45-6.01,9.13-12.71,9.13c-6.16,0-10.84-2.65-10.84-10.45c0-6.4,3.9-10.06,12.79-10.06
	c5.54,0,9.59,1.33,10.76,2.18V49.92z M93.13,62.4h3.59V31.98c0-11.94-4.52-16.54-15.76-16.54c-5.3,0-9.98,1.01-14.35,3.04l0.55,4.13
	c3.98-2.03,8.27-2.89,13.03-2.89c8.11,0,11.78,2.81,11.78,11.54v5.7c-3.12-1.17-7.33-2.03-11.47-2.03
	c-11.23,0-16.61,4.99-16.61,13.73c0,10.3,5.77,14.43,14.12,14.43c6.4,0,11.86-2.89,14.35-7.25l0.23,0.08L93.13,62.4z M0,3.9v58.5
	h4.52V18.88l-0.08-6.32l0.16-0.08l2.26,5.93L24.88,62.4h3.9L46.8,18.18l2.26-5.93l0.23,0.08l-0.16,6.32V62.4h4.6V3.9h-6.01
	L29.25,49.38l-2.18,5.85h-0.23l-2.26-5.85L6.08,3.9H0z"/>
</svg>
