<?xml version="1.0" encoding="utf-8"?>
<!-- Generator: Adobe Illustrator 15.1.0, SVG Export Plug-In  -->
<!DOCTYPE svg PUBLIC "-//W3C//DTD SVG 1.1//EN" "http://www.w3.org/Graphics/SVG/1.1/DTD/svg11.dtd" [
	<!ENTITY ns_flows "http://ns.adobe.com/Flows/1.0/">
]>
<svg version="1.1"
	 xmlns="http://www.w3.org/2000/svg" xmlns:xlink="http://www.w3.org/1999/xlink" xmlns:a="http://ns.adobe.com/AdobeSVGViewerExtensions/3.0/"
	 x="0px" y="0px" width="556px" height="280px" viewBox="-10 -6 556 280"
	 style="overflow:visible;enable-background:new -10 -6 556 280;" xml:space="preserve">
<defs>
</defs>
<path d="M517.13,33.29c0,4.92-0.23,5.63-2.91,5.86l-1.55,0.14c-0.28,0.28-0.19,1.03,0.09,1.17c2.77-0.09,4.36-0.14,6.38-0.14l4.22,0
	c4.17,0,8.35,0.05,12.57,0.14c0.61-1.27,1.78-4.88,2.11-6.52c-0.19-0.42-0.84-0.56-1.17-0.33c-1.22,2.44-2.49,4.08-3.33,4.55
	c-1.03,0.52-2.39,0.7-6,0.7c-4.13,0-5.11-0.52-5.68-1.08c-0.75-0.8-0.89-2.39-0.89-4.88V26.3c0-1.22,0.14-1.27,1.55-1.27l2.72,0
	c1.83,0,2.95,0.05,3.61,0.23c0.94,0.23,1.27,0.94,1.45,1.78l0.42,1.83c0.23,0.28,1.03,0.28,1.22-0.05c0-1.03-0.19-2.81-0.19-4.5
	c0-1.78,0.19-3.61,0.19-4.74c-0.19-0.33-0.99-0.33-1.22-0.05l-0.38,1.92c-0.23,1.17-0.56,1.45-1.12,1.64s-2.02,0.28-3.99,0.28
	l-2.72,0c-1.41,0-1.55,0-1.55-1.31l0-9.38c0-1.78,0-1.88,1.41-1.88l3.38,0c2.06,0,3.57,0.05,4.55,0.28
	c2.44,0.61,2.86,2.25,3.57,4.46c0.23,0.28,0.98,0.19,1.17-0.09c-0.19-2.06-0.47-5.44-0.75-6.24c-0.56,0.14-3.33,0.14-6.33,0.14
	l-8.82,0c-1.92,0-3.52-0.05-5.53-0.14c-0.28,0.14-0.38,0.98-0.09,1.17l0.75,0.09c2.77,0.33,2.86,1.03,2.86,5.91L517.13,33.29
	L517.13,33.29z"/>
<path d="M507.19,32.91c0-2.39,0.05-3.71,2.02-3.94l0.75-0.09c0.33-0.28,0.28-0.99-0.05-1.17c-1.55,0.09-3.14,0.14-4.97,0.14
	c-2.77,0-5.35-0.05-6.71-0.14c-0.33,0.14-0.38,0.98,0,1.17l2.06,0.23c2.91,0.33,3.05,0.61,3.05,4.55v1.88c0,1.5-0.23,2.34-0.47,2.67
	c-0.52,0.8-2.25,1.41-5.16,1.41c-9.43,0-14.07-7.08-14.07-16.09c0-7.03,3.99-13.51,13.08-13.51c4.78,0,8.3,1.6,9.62,6.66
	c0.28,0.28,1.13,0.23,1.27-0.14c-0.42-2.81-0.7-5.25-0.7-6.8c-0.56,0.09-2.02-0.23-2.91-0.42c-0.8-0.19-3.28-0.7-5.96-0.7
	c-7.08,0-11.73,2.2-14.87,5.49c-2.91,3.09-4.22,7.13-4.22,11.12c0,4.13,1.5,7.83,4.32,10.65c3.61,3.66,8.72,5.21,14.31,5.21
	c2.53,0,5.91-0.56,8.39-1.22c0.89-0.23,1.74-0.42,2.3-0.42c0.19-0.14,0.19-0.42,0.05-0.56c-0.84-0.33-1.13-1.45-1.13-3.33
	L507.19,32.91L507.19,32.91z"/>
<path d="M456.08,33.28c0,4.92-0.23,5.63-2.91,5.86l-1.55,0.14c-0.28,0.28-0.19,1.03,0.09,1.17c2.77-0.09,4.36-0.14,6.38-0.14l4.22,0
	c4.17,0,8.35,0.05,12.57,0.14c0.61-1.27,1.78-4.88,2.11-6.52c-0.19-0.42-0.84-0.56-1.17-0.33c-1.22,2.44-2.49,4.08-3.33,4.55
	c-1.03,0.52-2.39,0.7-6,0.7c-4.13,0-5.11-0.52-5.67-1.08c-0.75-0.8-0.89-2.39-0.89-4.88l0-6.61c0-1.22,0.14-1.27,1.55-1.27h2.72
	c1.83,0,2.96,0.05,3.61,0.24c0.94,0.23,1.27,0.94,1.45,1.78l0.42,1.83c0.23,0.28,1.03,0.28,1.22-0.05c0-1.03-0.19-2.81-0.19-4.5
	c0-1.78,0.19-3.61,0.19-4.74c-0.19-0.33-0.99-0.33-1.22-0.05l-0.38,1.92c-0.23,1.17-0.56,1.45-1.12,1.64
	c-0.56,0.19-2.02,0.28-3.99,0.28l-2.72,0c-1.41,0-1.55,0-1.55-1.31l0-9.38c0-1.78,0-1.88,1.41-1.88l3.38,0
	c2.06,0,3.56,0.05,4.55,0.28c2.44,0.61,2.86,2.25,3.56,4.46c0.24,0.28,0.99,0.19,1.17-0.09c-0.19-2.06-0.47-5.44-0.75-6.24
	c-0.56,0.14-3.33,0.14-6.33,0.14l-8.82,0c-1.92,0-3.52-0.05-5.53-0.14c-0.28,0.14-0.38,0.98-0.09,1.17l0.75,0.09
	c2.77,0.33,2.86,1.03,2.86,5.91L456.08,33.28L456.08,33.28z"/>
<path d="M430.83,33.28c0,4.92-0.09,5.58-2.81,5.86l-1.41,0.14c-0.28,0.28-0.19,1.03,0.09,1.17c2.63-0.09,4.13-0.14,6.1-0.14l4.31,0
	c4.83,0,9.29,0.05,11.68,0.14c0.66-1.27,1.97-6.05,1.97-6.57c0-0.33-0.89-0.52-1.17-0.28c-0.94,2.39-2.16,4.08-3.1,4.64
	c-0.75,0.42-1.74,0.61-5.72,0.61c-3.71,0-4.6-0.56-5.11-1.08c-0.84-0.89-0.99-2.11-0.99-5.07l0-16.32c0-4.92,0.09-5.67,2.86-5.91
	l1.13-0.09c0.28-0.19,0.19-1.03-0.09-1.17c-2.35,0.09-3.94,0.14-5.77,0.14c-1.88,0-3.47-0.05-6.1-0.14
	c-0.28,0.14-0.38,0.98-0.09,1.17l1.17,0.09c2.95,0.23,3.05,0.99,3.05,5.91L430.83,33.28L430.83,33.28z"/>
<path d="M405.58,33.28c0,4.92-0.09,5.58-2.81,5.86l-1.41,0.14c-0.28,0.28-0.19,1.03,0.09,1.17c2.63-0.09,4.13-0.14,6.1-0.14h4.31
	c4.83,0,9.29,0.05,11.68,0.14c0.66-1.27,1.97-6.05,1.97-6.57c0-0.33-0.89-0.52-1.17-0.28c-0.94,2.39-2.16,4.08-3.1,4.64
	c-0.75,0.42-1.73,0.61-5.72,0.61c-3.71,0-4.6-0.56-5.11-1.08c-0.84-0.89-0.99-2.11-0.99-5.07l0-16.32c0-4.92,0.09-5.68,2.86-5.91
	l1.13-0.09c0.28-0.19,0.19-1.03-0.09-1.17c-2.35,0.09-3.94,0.14-5.77,0.14c-1.88,0-3.47-0.05-6.1-0.14
	c-0.28,0.14-0.38,0.99-0.09,1.17l1.17,0.09c2.95,0.23,3.05,0.99,3.05,5.91L405.58,33.28L405.58,33.28z"/>
<path style="fill-rule:evenodd;clip-rule:evenodd;" d="M381.85,41.06c9.05,0,16.27-6.89,16.27-16.37c0-8.25-5.44-16.09-16.28-16.09
	c-9.66,0-16.7,7.17-16.69,16.55C365.15,33.6,371.43,41.06,381.85,41.06L381.85,41.06z M382.46,39.6c-9.24,0-12.62-9.01-12.62-15.95
	c0-10.27,6.33-13.6,11.21-13.6c8.96,0,12.38,8.35,12.38,16.09C393.43,35.38,388.08,39.6,382.46,39.6L382.46,39.6z"/>
<path d="M323.95,20.86c0,7.69,3.7,13.12,8.47,16.4c4.35,2.92,9.48,4,14.85,4c3.82,0,8.11-0.89,9.42-1.37
	c0.66-0.24,1.37-0.48,2.09-0.6c0.89-1.13,2.44-5.07,2.86-8.17c-0.24-0.42-1.13-0.54-1.55-0.24c-1.37,3.52-4.77,8.52-12.46,8.52
	c-9.78,0-17.71-6.92-17.71-19.44c0-12.34,7.75-18.12,16.87-18.12c8.65,0,11.33,4.65,12.22,8.71c0.42,0.36,1.31,0.3,1.61-0.12
	c-0.48-3.64-0.78-7.39-0.83-8.76c-0.54,0.06-0.95-0.06-1.67-0.24C355.31,0.66,350.78,0,347.56,0c-6.2,0-11.75,1.67-16.1,5.07
	C326.93,8.58,323.95,14.25,323.95,20.86L323.95,20.86z"/>
<path style="fill-rule:evenodd;clip-rule:evenodd;" d="M283.53,33.26c0,4.92-0.09,5.53-2.81,5.86l-1.17,0.14
	c-0.28,0.33-0.19,1.03,0.09,1.17c2.2-0.09,3.89-0.14,5.86-0.14c1.88,0,3.47,0.05,5.58,0.14c0.28-0.14,0.38-0.94,0.09-1.17
	l-0.98-0.14c-2.72-0.38-2.81-0.94-2.82-5.86v-5.91c0-0.98,0.09-1.03,2.2-1.03c1.88,0,2.63,0.47,3.33,1.5
	c1.45,2.11,3.38,5.35,4.6,7.08c3.33,4.74,5.72,5.91,9.71,5.91c0.89,0,1.64-0.09,2.06-0.23c0.23-0.19,0.19-0.56-0.05-0.66
	c-1.27-0.09-2.44-0.61-3.24-1.31c-3.19-2.67-5.68-6.43-9.43-12.48c-0.23-0.38-0.47-0.84-0.23-1.13c2.34-0.94,5.86-3.38,5.86-7.83
	c0-3.28-1.64-5.39-3.89-6.57c-2.16-1.17-4.92-1.41-7.83-1.41c-4.6,0-7.83,0.14-10.46,0.37c-0.38,0.19-0.38,0.94-0.05,1.17l1.5,0.19
	c1.92,0.23,2.06,1.03,2.06,5.49L283.53,33.26L283.53,33.26z M287.38,12.15c0-1.31,0.14-1.5,3.05-1.5c5.21,0,7.5,3.52,7.5,7.22
	c0,3.19-1.08,4.83-2.34,5.82c-1.36,1.03-3.14,1.22-4.83,1.22c-2.39,0-3.09-0.09-3.24-0.23c-0.14-0.19-0.14-0.7-0.14-1.55
	L287.38,12.15L287.38,12.15z"/>
<path d="M256.35,33.26c0,4.92-0.23,5.63-2.91,5.86l-1.55,0.14c-0.28,0.28-0.19,1.03,0.09,1.17c2.77-0.09,4.36-0.14,6.38-0.14l4.22,0
	c4.17,0,8.35,0.05,12.57,0.14c0.61-1.27,1.78-4.88,2.11-6.52c-0.19-0.42-0.84-0.56-1.17-0.33c-1.22,2.44-2.49,4.08-3.33,4.55
	c-1.03,0.52-2.39,0.7-6,0.7c-4.13,0-5.11-0.52-5.68-1.08c-0.75-0.8-0.89-2.39-0.89-4.88v-6.61c0-1.22,0.14-1.27,1.55-1.27l2.72,0
	c1.83,0,2.95,0.05,3.61,0.23c0.94,0.23,1.27,0.94,1.45,1.78l0.42,1.83c0.23,0.28,1.03,0.28,1.22-0.05c0-1.03-0.19-2.81-0.19-4.5
	c0-1.78,0.19-3.61,0.19-4.74c-0.19-0.33-0.99-0.33-1.22-0.05l-0.38,1.92c-0.23,1.17-0.56,1.45-1.12,1.64
	c-0.56,0.19-2.02,0.28-3.99,0.28l-2.72,0c-1.41,0-1.55,0-1.55-1.31l0-9.38c0-1.78,0-1.88,1.41-1.88l3.38,0
	c2.06,0,3.56,0.05,4.55,0.28c2.44,0.61,2.86,2.25,3.57,4.46c0.23,0.28,0.98,0.19,1.17-0.09c-0.19-2.06-0.47-5.44-0.75-6.24
	c-0.56,0.14-3.33,0.14-6.33,0.14l-8.82,0c-1.92,0-3.52-0.05-5.53-0.14c-0.28,0.14-0.38,0.98-0.09,1.17l0.75,0.09
	c2.77,0.33,2.86,1.03,2.86,5.91L256.35,33.26L256.35,33.26z"/>
<path d="M236.87,12.38c0-1.55-0.05-1.59,1.36-1.59l3.33,0c2.58,0,4.36,0.38,5.44,1.17c0.7,0.52,1.03,2.25,1.17,3.42
	c0.23,0.28,1.03,0.28,1.22-0.09c-0.14-1.41,0.19-5.21,0.7-7.13c-0.09-0.19-0.61-0.23-0.84-0.14c-0.7,1.22-1.12,1.31-3.66,1.31l-19,0
	c-2.16,0-3.71,0.05-3.99-1.45c-0.14-0.14-0.75-0.09-0.89,0c-0.33,1.88-1.03,4.88-1.78,6.99c0.19,0.38,0.84,0.61,1.22,0.33
	c0.52-1.17,0.99-2.2,2.11-3.24c1.17-1.08,3.75-1.17,5.77-1.17h2.58c1.41,0,1.41,0.05,1.41,1.5l0,20.96c0,4.92-0.23,5.63-2.91,5.86
	l-1.69,0.14c-0.38,0.23-0.28,1.03,0,1.17c3-0.09,4.64-0.14,6.52-0.14s3.47,0.05,6.14,0.14c0.28-0.14,0.38-0.98,0.09-1.17l-1.5-0.14
	c-2.72-0.28-2.81-0.94-2.82-5.86L236.87,12.38L236.87,12.38z"/>
<path d="M217.86,32.36c0-4.46-2.91-7.18-5.86-9.01l-3.75-2.35c-1.74-1.13-3.99-3.05-3.99-5.77c0-2.16,0.98-5.21,5.58-5.21
	c4.5,0,5.77,3.05,6.38,5.3c0.23,0.28,0.98,0.14,1.17-0.14c0-1.97-0.42-4.6-0.84-5.72c-0.38,0-1.03-0.14-1.64-0.28
	c-1.22-0.38-2.91-0.61-4.36-0.61c-6.1,0-9.57,3.61-9.57,8.07c0,3.85,2.72,6.52,5.07,8.07l4.46,2.91c3.42,2.21,3.85,4.5,3.85,6.57
	c0,2.81-1.92,5.39-5.86,5.39c-5.44,0-7.36-4.6-8.07-6.99c-0.19-0.28-0.89-0.19-1.13,0.14c0.09,2.2,0.7,5.53,1.27,6.57
	c0.89,0.52,3.38,1.74,7.32,1.74C213.97,41.04,217.86,37.52,217.86,32.36L217.86,32.36z"/>
<path d="M175.72,33.25c0,4.92-0.23,5.63-2.91,5.86l-1.55,0.14c-0.28,0.28-0.19,1.03,0.09,1.17c2.77-0.09,4.36-0.14,6.38-0.14l4.22,0
	c4.17,0,8.35,0.05,12.57,0.14c0.61-1.27,1.78-4.88,2.11-6.52c-0.19-0.42-0.84-0.56-1.17-0.33c-1.22,2.44-2.49,4.08-3.33,4.55
	c-1.03,0.52-2.39,0.7-6,0.7c-4.13,0-5.11-0.52-5.67-1.08c-0.75-0.8-0.89-2.39-0.89-4.88v-6.61c0-1.22,0.14-1.27,1.55-1.27l2.72,0
	c1.83,0,2.96,0.05,3.61,0.23c0.94,0.23,1.27,0.94,1.45,1.78l0.42,1.83c0.23,0.28,1.03,0.28,1.22-0.05c0-1.03-0.19-2.81-0.19-4.5
	c0-1.78,0.19-3.61,0.19-4.74c-0.19-0.33-0.98-0.33-1.22-0.05l-0.38,1.92c-0.23,1.17-0.56,1.45-1.13,1.64s-2.02,0.28-3.99,0.28
	l-2.72,0c-1.41,0-1.55,0-1.55-1.31l0-9.38c0-1.78,0-1.88,1.41-1.88l3.38,0c2.06,0,3.56,0.05,4.55,0.28
	c2.44,0.61,2.86,2.25,3.57,4.46c0.23,0.28,0.99,0.19,1.17-0.09c-0.19-2.06-0.47-5.44-0.75-6.24c-0.56,0.14-3.33,0.14-6.33,0.14
	l-8.82,0c-1.92,0-3.52-0.05-5.53-0.14c-0.28,0.14-0.38,0.98-0.09,1.17l0.75,0.09c2.77,0.33,2.86,1.03,2.86,5.91L175.72,33.25
	L175.72,33.25z"/>
<path d="M150,33.24c0,4.92-0.09,5.58-2.81,5.86l-1.41,0.14c-0.28,0.28-0.19,1.03,0.09,1.17c2.63-0.09,4.13-0.14,6.1-0.14l4.31,0
	c4.83,0,9.29,0.05,11.68,0.14c0.66-1.27,1.97-6.05,1.97-6.57c0-0.33-0.89-0.52-1.17-0.28c-0.94,2.39-2.16,4.08-3.09,4.64
	c-0.75,0.42-1.74,0.61-5.72,0.61c-3.71,0-4.6-0.56-5.11-1.08c-0.84-0.89-0.98-2.11-0.99-5.06l0-16.32c0-4.92,0.09-5.67,2.86-5.91
	l1.13-0.09c0.28-0.19,0.19-1.03-0.09-1.17c-2.34,0.09-3.94,0.14-5.77,0.14c-1.88,0-3.47-0.05-6.1-0.14
	c-0.28,0.14-0.38,0.98-0.09,1.17l1.17,0.09c2.95,0.23,3.05,0.99,3.05,5.91L150,33.24L150,33.24z"/>
<path style="fill-rule:evenodd;clip-rule:evenodd;" d="M134.75,35.77c0.38,1.13,0.61,1.97,0.61,2.49c0,0.47-0.66,0.75-1.64,0.84
	l-1.36,0.14c-0.33,0.23-0.28,0.98,0.09,1.17c1.36-0.05,3.14-0.14,5.39-0.14c2.11,0,3.75,0.05,5.67,0.14c0.23-0.19,0.33-0.94,0-1.17
	l-1.27-0.14c-2.02-0.23-2.63-0.94-3.99-4.97l-6.43-18.85c-0.7-2.06-1.45-4.22-2.06-6.29c-0.09-0.33-0.42-0.42-0.7-0.42
	c-0.52,0.61-1.31,1.45-2.44,1.78c0.14,0.75-0.14,1.64-0.8,3.33l-4.78,12.66c-1.97,5.25-3.28,8.3-4.13,10.46
	c-0.66,1.69-1.69,2.2-2.81,2.3l-1.55,0.14c-0.28,0.23-0.19,0.98,0.09,1.17c1.27-0.05,2.96-0.14,4.5-0.14
	c2.2,0.05,3.66,0.05,4.88,0.14c0.42-0.19,0.42-0.94,0.09-1.17l-1.55-0.14c-1.13-0.09-1.36-0.38-1.36-0.94
	c0-0.52,0.33-1.78,1.03-3.89l1.64-4.92c0.33-0.98,0.61-1.13,1.78-1.13l7.08,0c1.41,0,1.59,0.14,1.92,1.17L134.75,35.77L134.75,35.77
	z M126.35,17.06c0.52-1.41,0.98-2.53,1.13-2.77h0.09c0.28,0.56,0.7,1.83,1.08,2.95l2.53,7.65c0.42,1.27,0.33,1.45-1.03,1.45l-5.77,0
	c-1.31,0-1.36-0.05-0.99-1.13L126.35,17.06L126.35,17.06z"/>
<path d="M81.85,24.98c0,6.05,2.91,10.32,6.66,12.9c3.42,2.3,7.46,3.14,11.68,3.14c3,0,6.38-0.7,7.41-1.08
	c0.52-0.19,1.08-0.38,1.64-0.47c0.7-0.89,1.92-3.99,2.25-6.42c-0.19-0.33-0.89-0.42-1.22-0.19c-1.08,2.77-3.75,6.71-9.8,6.71
	c-7.69,0-13.93-5.44-13.93-15.29c0-9.71,6.1-14.26,13.27-14.26c6.8,0,8.91,3.66,9.62,6.85c0.33,0.28,1.03,0.23,1.27-0.09
	c-0.38-2.86-0.61-5.82-0.66-6.89c-0.42,0.05-0.75-0.05-1.31-0.19c-2.2-0.61-5.77-1.13-8.3-1.13c-4.88,0-9.24,1.31-12.66,3.98
	C84.19,15.32,81.85,19.77,81.85,24.98L81.85,24.98z"/>
<path style="fill-rule:evenodd;clip-rule:evenodd;" d="M74.37,35.77c0.38,1.13,0.61,1.97,0.61,2.49c0,0.47-0.66,0.75-1.64,0.84
	l-1.36,0.14c-0.33,0.23-0.28,0.98,0.09,1.17c1.36-0.05,3.14-0.14,5.39-0.14c2.11,0,3.75,0.05,5.68,0.14c0.23-0.19,0.33-0.94,0-1.17
	l-1.27-0.14c-2.02-0.23-2.63-0.94-3.99-4.97l-6.43-18.85c-0.7-2.06-1.45-4.22-2.06-6.29c-0.09-0.33-0.42-0.42-0.7-0.42
	c-0.52,0.61-1.31,1.45-2.44,1.78c0.14,0.75-0.14,1.64-0.8,3.33l-4.78,12.66c-1.97,5.25-3.28,8.3-4.13,10.46
	c-0.66,1.69-1.69,2.2-2.81,2.3l-1.55,0.14c-0.28,0.23-0.19,0.98,0.09,1.17c1.27-0.05,2.96-0.14,4.5-0.14
	c2.2,0.05,3.66,0.05,4.88,0.14c0.42-0.19,0.42-0.94,0.09-1.17l-1.55-0.14c-1.13-0.09-1.36-0.38-1.36-0.94
	c0-0.52,0.33-1.78,1.03-3.89l1.64-4.92c0.33-0.98,0.61-1.13,1.78-1.12l7.08,0c1.41,0,1.59,0.14,1.92,1.17L74.37,35.77L74.37,35.77z
	 M65.98,17.05c0.52-1.41,0.98-2.53,1.13-2.77h0.09c0.28,0.56,0.7,1.83,1.08,2.95l2.53,7.65c0.42,1.27,0.33,1.45-1.03,1.45l-5.77,0
	c-1.31,0-1.36-0.05-0.98-1.13L65.98,17.05L65.98,17.05z"/>
<path d="M14.94,10.57c-1.85-3.82-3.34-7.51-3.1-9.84C9.87,0.91,8.26,0.91,6.89,0.91c-1.49,0-2.92-0.06-4.71-0.18
	C1.7,0.97,1.64,1.86,1.94,2.22l0.95,0.12c3.64,0.6,4.11,1.37,4,5.13c-0.12,3.28-0.36,8.35-0.65,13.3c-0.36,5.9-0.65,9.18-1.01,13.12
	c-0.36,4.17-1.19,4.59-3.7,4.89l-1.31,0.18c-0.36,0.3-0.24,1.19,0.12,1.49c2.03-0.12,4.17-0.18,6.08-0.18
	c2.27,0,4.59,0.06,6.62,0.18c0.42-0.18,0.48-1.13,0.06-1.49l-2.27-0.18c-2.33-0.18-2.68-1.13-2.68-5.55
	c0-5.07,0.24-10.37,0.42-14.01c0.18-3.46,0.36-6.92,0.6-10.61h0.12c1.31,2.74,2.56,5.84,3.82,8.59l5.37,11.51
	c1.37,2.92,4.23,8.77,5.25,11.92c0.12,0.18,0.42,0.24,0.54,0.24c0.24,0,0.48-0.06,0.6-0.24c1.07-2.74,3.76-8.35,6.44-13.59
	l5.31-10.43c1.19-2.33,3.46-7.09,3.87-7.75h0.12l0.18,24.86c0,3.82,0,4.77-2.92,5.07l-1.73,0.18c-0.36,0.36-0.3,1.19,0.12,1.49
	c2.44-0.12,5.13-0.18,7.21-0.18c2.15,0,4.59,0.06,7.04,0.18c0.42-0.24,0.48-1.13,0.12-1.49l-1.91-0.18c-2.8-0.3-2.74-1.85-2.92-4.83
	c-0.48-8.59-0.54-19.62-0.66-25.94c-0.06-4.17,0.42-5.25,4.17-5.66l1.25-0.12c0.3-0.24,0.3-1.25-0.06-1.49
	c-1.85,0.12-3.82,0.18-5.31,0.18c-1.19,0-2.44,0-4.47-0.18c-0.12,2.74-1.79,6.02-4.53,11.45l-5.6,11.39
	c-1.49,3.04-2.98,6.14-4.59,8.94h-0.12c-1.43-2.62-2.74-5.37-4.11-8.17L14.94,10.57L14.94,10.57z"/>
<path d="M276.65,261.43c3.33-2.44,7.57-5.67,12.2-9.54l-27.23-27.23l6.49-6.49l27.68,27.68c3.65-3.31,7.37-6.92,10.97-10.77
	l-27.78-27.78l15.54-15.54l25.99,25.99c3.02-4.67,5.55-9.49,7.35-14.39l-22.47-22.47l6.93-6.93l18.25,18.25
	c0.16-1.43,0.25-2.86,0.25-4.29l-0.04-17.24l-7.59-7.59l7.56-7.56l-0.05-21.69l-18.38,18.38l-6.5-6.5l24.85-24.85l-0.04-17.06h-4.64
	l-31.04,31.04l-15.55-15.55l15.49-15.49l-21.74,0l-4.62,4.62l-4.62-4.62l-26.37,0l-4.62,4.62l-4.62-4.62l-19.83,0
	c0,0,0,0.68-0.01,1.9l13.59,13.59l-13.72,13.73c-0.04,8.22-0.08,17.12-0.1,25.27l5.23,5.23l-5.26,5.26
	c-0.02,10.2-0.02,17.45,0.04,17.46c0,2.49,0.24,4.99,0.69,7.47l13.59,13.59l-6.04,6.04c2.55,4.46,5.54,8.79,8.8,12.94l8.11-8.11
	l6.5,6.5l-8.68,8.68c3.5,3.92,7.15,7.61,10.73,11.01l8.81-8.81L276.65,261.43z M268.12,196.43l-6.5-6.5l15.54-15.54l6.5,6.5
	L268.12,196.43z M294.96,156.58l6.5,6.5l-6.93,6.93l-6.5-6.5L294.96,156.58z M268.53,130.16l15.55,15.55l-6.93,6.93l-15.55-15.55
	L268.53,130.16z M250.72,112.35l6.94,6.94l-6.93,6.93l-6.94-6.94L250.72,112.35z M232.92,130.16l6.94,6.94l-15.54,15.54l-6.94-6.94
	L232.92,130.16z M233.39,196.42l-15.55-15.55l6.49-6.49l15.55,15.55L233.39,196.42z M235.2,163.51l15.54-15.54l15.55,15.55
	l-15.54,15.54L235.2,163.51z M244.26,207.29l6.49-6.49l6.5,6.5l-6.49,6.49L244.26,207.29z"/>
</svg>
