<?xml version="1.0" encoding="utf-8"?>
<svg version="1.1"
	 xmlns="http://www.w3.org/2000/svg" xmlns:xlink="http://www.w3.org/1999/xlink"
	 width="559px" height="96px" viewBox="0 0 559 96"
	 style="overflow:visible;" preserveAspectRatio="xMinYMin meet" >
<path style="fill:#FFFFFF;" d="M355.555,75.716V52.238c0-11.155,6.552-18.331,14.353-18.331c1.481,0,2.886,0.156,4.212,0.624
	l0.39-4.914c-1.326-0.39-2.808-0.546-4.368-0.546c-6.942,0-12.324,4.836-14.977,12.012h-0.155l-0.156-6.318l-0.156-5.148
	l-3.822,0.312v45.788H355.555z M310.704,49.117c0.469-10.608,4.524-15.99,13.573-15.99c7.644,0,13.104,4.368,13.26,15.99H310.704z
	 M326.461,76.652c5.382,0,9.828-1.326,13.807-3.588l-0.624-4.134c-3.9,2.106-7.878,3.276-12.715,3.276
	c-10.998,0-15.912-4.992-16.146-19.734h30.968c0.077-0.625,0.155-1.639,0.155-2.341c0-14.898-7.254-21.217-17.628-21.217
	c-12.169,0-18.331,7.8-18.331,22.231C305.946,68.93,311.797,76.652,326.461,76.652z M301.813,33.517v-3.822h-12.09V17.136
	l-3.744,0.468l-0.937,12.091h-7.255v3.822h7.177v31.28c0,7.878,3.822,11.622,10.999,11.622c2.027,0,4.289-0.39,5.537-0.937
	l-0.389-3.744c-0.937,0.391-2.574,0.625-3.9,0.625c-4.603,0-7.488-2.185-7.488-7.723V33.517H301.813z M274.459,62.768
	c0-16.225-24.727-10.53-24.727-21.997c0-4.68,4.134-7.644,10.687-7.644c3.822,0,7.878,0.858,11.7,2.574l0.469-4.134
	c-3.666-1.794-7.723-2.652-12.091-2.652c-9.906,0-15.288,4.602-15.288,12.09c0,15.211,24.805,9.907,24.805,22.231
	c0,5.305-3.276,9.282-11.076,9.282c-4.681,0-9.829-1.56-13.183-4.368l-0.78,4.291c3.432,2.729,8.581,4.211,14.041,4.211
	C269.701,76.652,274.459,71.115,274.459,62.768z M207.55,49.117c0.468-10.608,4.524-15.99,13.572-15.99
	c7.645,0,13.104,4.368,13.261,15.99H207.55z M223.306,76.652c5.382,0,9.829-1.326,13.807-3.588l-0.624-4.134
	c-3.9,2.106-7.878,3.276-12.714,3.276c-10.999,0-15.913-4.992-16.146-19.734h30.967c0.078-0.625,0.156-1.639,0.156-2.341
	c0-14.898-7.254-21.217-17.629-21.217c-12.168,0-18.331,7.8-18.331,22.231C202.792,68.93,208.642,76.652,223.306,76.652z
	 M191.872,75.716V13.314l-4.68,0.312v62.09H191.872z M169.487,63.236c0,4.446-6.006,9.127-12.714,9.127
	c-6.163,0-10.843-2.652-10.843-10.453c0-6.396,3.9-10.062,12.792-10.062c5.539,0,9.595,1.326,10.765,2.185V63.236z M170.657,75.716
	h3.588V45.295c0-11.935-4.524-16.537-15.757-16.537c-5.304,0-9.984,1.014-14.353,3.042l0.546,4.134
	c3.979-2.028,8.269-2.886,13.027-2.886c8.112,0,11.778,2.808,11.778,11.544v5.694c-3.12-1.17-7.333-2.028-11.466-2.028
	c-11.232,0-16.615,4.992-16.615,13.729c0,10.297,5.772,14.431,14.119,14.431c6.396,0,11.856-2.886,14.353-7.255l0.234,0.078
	L170.657,75.716z M135.33,31.489c-3.042-1.482-7.176-2.574-11.466-2.574c-13.183,0-18.955,7.566-18.955,23.245
	c0,17.395,6.24,24.57,18.877,24.57c4.758,0,9.204-1.404,11.935-3.432l-0.468-4.135c-2.886,2.106-6.708,3.199-10.608,3.199
	c-9.75,0-14.82-5.305-14.82-20.203c0-13.183,4.212-18.721,14.977-18.721c3.666,0,7.254,1.014,10.14,2.418L135.33,31.489z
	 M91.962,63.236c0,4.446-6.006,9.127-12.714,9.127c-6.162,0-10.842-2.652-10.842-10.453c0-6.396,3.9-10.062,12.792-10.062
	c5.538,0,9.594,1.326,10.764,2.185V63.236z M93.132,75.716h3.588V45.295c0-11.935-4.524-16.537-15.757-16.537
	c-5.304,0-9.984,1.014-14.353,3.042l0.546,4.134c3.978-2.028,8.268-2.886,13.026-2.886c8.112,0,11.778,2.808,11.778,11.544v5.694
	c-3.12-1.17-7.332-2.028-11.466-2.028c-11.232,0-16.615,4.992-16.615,13.729c0,10.297,5.772,14.431,14.119,14.431
	c6.396,0,11.856-2.886,14.353-7.255l0.234,0.078L93.132,75.716z M0,17.214v58.502h4.524V32.191l-0.078-6.318l0.156-0.078
	l2.262,5.928l18.019,43.994h3.9l18.019-44.228l2.262-5.928l0.234,0.078l-0.156,6.318v43.76h4.603V17.214h-6.006L29.251,62.69
	l-2.184,5.851h-0.234l-2.262-5.851L6.084,17.214H0z"/>
<polyline style="opacity:0.3;fill:#FFFFFF;" points="523.608,0 394.342,0 394.342,96.3 541.608,96.3 541.608,18 523.608,0 "/>
<path d="M507.004,79.512c-0.915,0-1.83-0.208-2.787-0.665l-0.374,2.953c1.081,0.499,2.454,0.79,3.826,0.79
	c3.453,0,5.865-1.622,7.612-6.156l9.109-25.29h-4.242l-5.699,17.928l-0.915,3.203h-0.125l-1.164-3.12l-7.071-18.011h-4.575
	l10.855,24.791l-0.124,0.416C510.248,78.763,508.917,79.512,507.004,79.512z M493.695,68.906c0,2.08-2.787,4.159-5.865,4.159
	c-2.87,0-4.991-1.206-4.991-4.741c0-2.954,1.788-4.617,5.906-4.617c2.496,0,4.326,0.54,4.95,0.914V68.906z M494.61,75.935h2.995
	V59.921c0-6.531-2.454-9.276-8.985-9.276c-2.953,0-5.615,0.541-7.986,1.622l0.375,3.286c2.204-1.04,4.325-1.497,6.946-1.497
	c4.034,0,5.781,1.373,5.781,5.282v2.454c-1.539-0.541-3.577-0.957-5.698-0.957c-5.906,0-8.901,2.871-8.901,7.529
	c0,5.574,3.078,7.945,7.612,7.945c3.202,0,5.906-1.332,7.362-3.453l0.124,0.042L494.61,75.935z M470.819,70.112
	c-0.707,1.331-2.495,3.036-5.948,3.036c-4.949,0-6.53-2.537-6.53-9.483c0-6.738,1.747-9.317,6.572-9.317
	c2.662,0,4.866,1.123,5.906,2.828V70.112z M474.771,75.935V42.867l-3.952,0.25v6.989l0.083,3.327l-0.083,0.042
	c-1.747-1.83-4.242-2.787-6.988-2.787c-6.613,0-9.566,4.408-9.566,12.811c0,8.86,2.828,12.937,9.525,12.937
	c3.327,0,5.781-1.081,7.32-3.12l0.125,0.042l0.499,2.579H474.771z M434.217,63.623c0-7.112,1.872-9.525,6.739-9.525
	c4.783,0,6.613,2.413,6.613,9.525c0,7.071-1.83,9.525-6.613,9.525C436.089,73.148,434.217,70.736,434.217,63.623z M451.604,63.623
	c0-9.192-3.162-12.895-10.648-12.895c-7.446,0-10.815,3.702-10.815,12.895c0,9.193,3.328,12.854,10.815,12.854
	C448.401,76.476,451.604,72.816,451.604,63.623z M430.938,48.732l-0.084-3.993h-22.669l-0.125,3.993h9.275v27.203h4.326V48.732
	H430.938z"/>
</svg>
