<?xml version="1.0" encoding="utf-8"?>
<!-- Generator: Adobe Illustrator 15.1.0, SVG Export Plug-In  -->
<!DOCTYPE svg PUBLIC "-//W3C//DTD SVG 1.1//EN" "http://www.w3.org/Graphics/SVG/1.1/DTD/svg11.dtd" [
	<!ENTITY ns_flows "http://ns.adobe.com/Flows/1.0/">
]>
<svg version="1.1"
	 xmlns="http://www.w3.org/2000/svg" xmlns:xlink="http://www.w3.org/1999/xlink" xmlns:a="http://ns.adobe.com/AdobeSVGViewerExtensions/3.0/"
	 x="0px" y="0px" width="516px" height="247px" viewBox="-12.14 -10.81 516 247"
	 style="overflow:visible;enable-background:new -12.14 -10.81 516 247;" xml:space="preserve">
<defs>
</defs>
<path d="M413.72,121.74c4.85-1.39,8.09-1.85,12.24-1.85c8.32,0,10.86,3.46,10.86,14.78v30.96l21.48,17.79l34.88-33.27l-2.31-2.77
	l-10.16,9.93l-11.55-9.93v-12.71c0-9.24-5.54-12.71-24.26-15.48c-1.38-0.23-3.23-0.46-6.01-0.92l9.01-1.62
	c18.71-3.46,21.02-5.78,21.95-22.64c0.92-14.09,1.62-15.94,8.55-22.41c1.85-1.62,2.77-2.54,5.31-5.08l-2.77-2.77
	c-0.92,1.16-1.62,1.85-2.08,2.31c-4.39,4.39-6.7,5.78-9.01,5.78c-4.39,0-11.55-6.01-21.95-18.02l-34.19,31.42V6.7l-32.34,9.93V132.6
	c0,13.17-1.85,16.17-12.01,19.4c-0.69,0.23-1.62,0.69-3,1.15c13.63,6.01,21.95,13.86,28.41,27.26l1.62,3
	c6.47-15.71,13.86-23.1,29.8-29.11c0.69-0.23,1.39-0.69,2.54-1.15c-10.86-2.08-15.02-6.01-15.02-14.79V121.74 M413.72,118.27V90.32
	L425.73,79l11.09,8.09v14.09c0,12.24-3,14.55-19.4,16.4C416.72,117.81,415.33,118.04,413.72,118.27 M327.33,140.22V69.07l1.38-0.46
	c2.31,9.93,7.39,14.78,16.4,14.78c12.7,0,19.4-8.78,21.71-28.87h-3.23c-1.16,5.31-3.23,8.78-5.78,8.78c-4.16,0-7.85-6.47-9.7-15.94
	c-4.62,7.16-7.16,9.7-12.94,13.63c-8.55,5.54-20.79,9.24-30.72,9.24c-2.77,0-4.85-0.23-9.47-1.16v58.44
	c0,23.79-0.92,26.1-13.4,39.27l2.54,2.31c6.24-6.93,8.55-8.78,12.01-8.78c2.31,0,5.54,1.39,12.47,5.08
	c12.71,7.16,18.48,11.09,26.1,16.86l31.65-42.04l-2.77-2.08l-12.24,15.94L327.33,140.22 M235.85,51.05
	c-4.62,9.24-9.93,15.02-17.33,18.48c-7.16,3.46-18.25,6.24-25.64,6.24c-1.62,0-3.93,0-7.16-0.23c-0.69,0-1.62,0-3,0v54.98
	c0,17.56-1.62,21.48-13.4,31.19l2.54,3.23c6.93-6.93,9.01-8.32,11.55-8.32c3.47,0,9.01,3.23,19.64,12.24
	c9.24,8.09,12.47,11.32,15.71,17.56c3.7-9.01,10.86-16.63,20.33-21.48c7.39-3.93,13.4-5.08,26.57-5.08h2.54v-57.52
	c0-16.4,1.85-20.79,11.32-29.11l1.85-1.62l-2.31-2.77c-6.01,6.24-8.55,7.85-12.24,7.85c-2.31,0-4.62-1.16-9.01-4.62l-9.24-7.16
	C244.4,61.45,242.09,58.91,235.85,51.05 M215.06,137.91V78.08l2.54-0.92c4.85,10.86,8.55,15.02,18.25,20.1v59.37l-1.85,1.15
	c-4.39-8.08-5.77-9.93-15.25-17.09C217.83,139.99,216.68,139.06,215.06,137.91 M71.61,47.59V28.41c0-18.02-5.31-24.02-21.25-24.02
	c-0.92,0-1.62,0-2.54,0L30.03,5.54L17.33,6.47c-0.69,0-1.15,0-1.85,0C7.62,6.47,5.31,4.85,5.08,0H1.62
	C1.39,4.16,1.39,6.01,1.39,8.55c0,27.49,3.7,34.65,18.48,34.65c0.46,0,0.92,0,1.39,0c2.77-0.23,4.39-0.23,5.08-0.23
	c4.16,0,6.01,2.08,6.01,6.7v21.71H22.18c-15.25,0-20.56,9.47-20.56,36.96c0,2.08,0,4.85,0,8.32h3.46
	c0.23-13.4,2.31-15.94,13.63-15.94h13.63v19.4c0,11.78-0.46,12.71-9.7,18.94c-3.46,2.31-6.93,5.54-10.4,9.93
	C3.7,159.39,0,169.09,0,181.11c0,25.64,19.64,44.58,46.43,44.58c29.11,0,51.74-21.48,51.74-48.74c0-1.62-0.23-2.77-0.46-5.78h-4.39
	c0.23,2.08,0.23,3.93,0.23,5.08c0,7.39-2.31,13.86-6.93,18.94c-7.39,8.08-15.71,10.16-38.81,10.16c-18.94,0-25.18-0.69-32.8-3.7
	c-7.62-3-11.55-8.32-11.55-15.71c0-9.7,7.85-16.86,18.71-16.86c8.55,0,18.71,3.46,26.57,9.24c4.62,3.23,7.16,6.01,14.09,14.09
	l41.81-46.66l-2.54-3l-14.32,15.01V99.1c2.31-0.23,3.93-0.46,5.08-0.46c11.32,0,16.86,7.39,16.86,21.48v42.04
	c0,6.93,1.62,10.39,6.7,14.78l17.56,15.48l35.34-42.73l-3.47-3c-6.7,8.09-8.55,9.93-11.32,9.93c-3.7,0-5.54-3.7-5.54-11.09V125.9
	c0-19.87-9.01-26.8-39.27-29.8c16.63-6.01,21.95-9.01,30.03-15.71c9.01-7.62,13.86-18.71,13.86-31.65c0-11.32-3.7-22.87-10.4-31.65
	c-5.31-6.93-9.24-10.16-20.79-17.09c-2.54,3.23-4.62,5.77-6.01,7.39c-8.08,9.01-17.32,17.79-34.19,31.65L71.61,47.59 M71.61,128.44
	V52.21l12.71-10.86v112.5c-10.16-7.86-14.55-10.4-25.18-14.32c-8.08-3-14.55-4.39-20.56-4.39c-2.08,0-3.93,0.23-6.24,0.23
	c11.09-5.08,21.02-7.16,33.26-7.16C66.99,128.21,69.07,128.21,71.61,128.44 M87.78,96.1V39.04c3.7-3.7,5.77-4.85,9.7-4.85
	c10.4,0,16.86,10.4,16.86,27.26C114.35,84.78,106.26,95.4,87.78,96.1"/>
</svg>
